<?xml version="1.0" standalone="no"?>
<!DOCTYPE svg PUBLIC "-//W3C//DTD SVG 1.1//EN" "http://www.w3.org/Graphics/SVG/1.1/DTD/svg11.dtd" >
<svg>
<metadata>
Created by FontForge 20120731 at Mon Jul  1 08:34:13 2019
 By www
Copyright (c) 2015 by Fernando Diaz. All rights reserved.
</metadata>
<defs>
<font id="TrasandinaW03-Medium" horiz-adv-x="1200" >
  <font-face 
    font-family="TrasandinaW03-Medium"
    font-weight="600"
    font-stretch="normal"
    units-per-em="2048"
    panose-1="1 0 0 0 0 0 0 0 0 0"
    ascent="1638"
    descent="-410"
    x-height="996"
    cap-height="1354"
    bbox="-97 -525 2804 2219"
    underline-thickness="102"
    underline-position="-154"
    unicode-range="U+0020-FB06"
  />
<missing-glyph horiz-adv-x="1415" 
d="M467 1015l-97 -96l241 -240l-243 -245l96 -96l245 241l242 -241l96 96l-243 245l241 240l-96 96l-240 -241zM150 0v1354h1115v-1354h-1115z" />
    <glyph glyph-name="percent" unicode="&#x30;&#x2f;&#x30;" horiz-adv-x="1663" 
d="M1135 1354h174l-784 -1354h-174zM90 924v157q0 84 38 146t109 99.5t167 37.5q97 0 168.5 -37.5t109.5 -99.5t38 -146v-157q0 -84 -38 -146t-109.5 -99.5t-168.5 -37.5q-96 0 -167 37.5t-109 99.5t-38 146zM277 1071v-137q0 -60 35 -95t92 -35q56 0 92.5 34t36.5 96v137
q0 62 -36.5 96t-92.5 34q-57 0 -92 -35t-35 -95zM943 272v157q0 84 38 146t109 99.5t167 37.5q97 0 168.5 -37.5t109.5 -99.5t38 -146v-157q0 -84 -38 -146t-109.5 -99.5t-168.5 -37.5q-96 0 -167 37.5t-109 99.5t-38 146zM1130 419v-137q0 -60 35 -95t92 -35q56 0 92.5 34
t36.5 96v137q0 62 -36.5 96t-92.5 34q-57 0 -92 -35t-35 -95z" />
    <glyph glyph-name="onequarter" unicode="&#x31;&#x2f;&#x34;" horiz-adv-x="946" 
d="M181 -88v138l300 432v2h180v-426h108v-146h-108v-131h-185v131h-295zM765 1030v-159h-532v159h179v360l-181 -38l-12 151l236 71h148v-544h162zM38 749h836v-143h-836v143zM366 53h121v179z" />
    <glyph glyph-name="onehalf" unicode="&#x31;&#x2f;&#x32;" horiz-adv-x="946" 
d="M748 1030v-159h-532v159h179v360l-181 -38l-12 151l237 71h147v-544h162zM775 -61v-160h-552v150q180 114 226.5 151.5t71.5 73t25 71.5q0 49 -37.5 73.5t-98.5 24.5q-63 0 -163 -20l-20 162q108 27 215 27q96 0 164.5 -31.5t105.5 -88.5t37 -140q0 -155 -249 -293h275z
M38 749h836v-143h-836v143z" />
    <glyph glyph-name="threequarters" unicode="&#x33;&#x2f;&#x34;" horiz-adv-x="946" 
d="M181 -88v138l300 432v2h180v-426h108v-146h-108v-131h-185v131h-295zM298 1161v126h125q44 0 71.5 16t27.5 50q0 49 -61 65q-29 8 -66 8q-64 -1 -147 -17l-19 148q96 27 197 27q141 0 219.5 -55t78.5 -153q0 -104 -101 -146q52 -18 82.5 -60t30.5 -104q0 -99 -81.5 -152
t-233.5 -53q-106 0 -194 22l18 156q78 -17 148 -18q42 0 72 6q69 14 69 62q0 35 -32.5 53.5t-78.5 18.5h-125zM38 749h836v-143h-836v143zM366 53h121v179z" />
    <glyph glyph-name="perthousand" unicode="&#x30;&#x2f;&#x30;&#x30;" horiz-adv-x="2061" 
d="M943 272v157q0 84 38 146t109 99.5t167 37.5q134 0 221 -75q42 36 100.5 55.5t121.5 19.5q97 0 168.5 -37.5t109.5 -99.5t38 -146v-157q0 -84 -38 -146t-109.5 -99.5t-168.5 -37.5q-136 0 -222 75q-85 -75 -221 -75q-96 0 -167 37.5t-109 99.5t-38 146zM90 924v157
q0 84 38 146t109 99.5t167 37.5q97 0 168.5 -37.5t109.5 -99.5t38 -146v-157q0 -84 -38 -146t-109.5 -99.5t-168.5 -37.5q-96 0 -167 37.5t-109 99.5t-38 146zM1135 1354h174l-784 -1354h-174zM1130 419v-137q0 -60 35 -95t92 -35q56 0 92.5 34t36.5 96v137q0 62 -36.5 96
t-92.5 34q-57 0 -92 -35t-35 -95zM1573 425v-150q2 -57 37 -90t90 -33q56 0 92.5 34t36.5 96v137q0 62 -36.5 96t-92.5 34q-55 0 -90.5 -33.5t-36.5 -90.5zM277 1071v-137q0 -60 35 -95t92 -35q56 0 92.5 34t36.5 96v137q0 62 -36.5 96t-92.5 34q-57 0 -92 -35t-35 -95z" />
    <glyph glyph-name="emdash_guilsinglright.liga" unicode="&#x2d;&#x2d;&#x3e;" horiz-adv-x="2184" 
d="M141 397v203l1525 -2l-427 419l142 142l661 -661l-661 -661l-142 142l429 420z" />
    <glyph glyph-name="endash_guilsinglright.liga" unicode="&#x2d;&#x3e;" horiz-adv-x="1732" 
d="M141 397v203l1073 -2l-427 419l142 142l661 -661l-661 -661l-142 142l429 420z" />
    <glyph glyph-name="guilsinglleft_hyphen_hyphen.liga" unicode="&#x3c;&#x2d;&#x2d;" horiz-adv-x="2184" 
d="M803 1159l142 -142l-429 -420l1526 1v-202l-1524 1l427 -418l-142 -142l-662 661z" />
    <glyph glyph-name="guilsinglleft_endash.liga" unicode="&#x3c;&#x2d;" horiz-adv-x="1732" 
d="M803 1159l142 -142l-429 -420l1074 1v-202l-1072 1l427 -418l-142 -142l-662 661z" />
    <glyph glyph-name=".notdef" horiz-adv-x="1415" 
d="M467 1015l-97 -96l241 -240l-243 -245l96 -96l245 241l242 -241l96 96l-243 245l241 240l-96 96l-240 -241zM150 0v1354h1115v-1354h-1115z" />
    <glyph glyph-name=".null" horiz-adv-x="0" 
 />
    <glyph glyph-name="nonmarkingreturn" horiz-adv-x="682" 
 />
    <glyph glyph-name="space" unicode=" " horiz-adv-x="466" 
 />
    <glyph glyph-name="exclam" unicode="!" horiz-adv-x="441" 
d="M348 1354l-33 -974h-189l-33 974h255zM93 104q0 60 33 92.5t94 32.5t94.5 -32.5t33.5 -92.5t-33 -92t-95 -32q-61 0 -94 32t-33 92z" />
    <glyph glyph-name="quotedbl" unicode="&#x22;" horiz-adv-x="734" 
d="M441 1387h200l-12 -521h-176zM92 1387h201l-13 -521h-175z" />
    <glyph glyph-name="numbersign" unicode="#" horiz-adv-x="1501" 
d="M980 1354h195l-48 -354h224l-24 -177h-225l-40 -298h224l-23 -175h-225l-48 -350h-198l48 350h-269l-47 -350h-196l47 350h-234l23 175h235l40 298h-229l24 177h229l49 354h197l-49 -354h271zM636 823l-40 -298h268l42 298h-270z" />
    <glyph glyph-name="dollar" unicode="$" horiz-adv-x="1062" 
d="M425 1537h215l-11 -275q115 -8 243 -42l-30 -185q-139 38 -284 38q-99 0 -154.5 -34.5t-55.5 -100.5q0 -32 10 -56t32 -41t51 -28.5t60.5 -21t79 -23t59.5 -16.5q143 -40 211.5 -119.5t68.5 -215.5q0 -142 -82.5 -224t-241.5 -99l11 -277h-215l12 275q-148 11 -275 54
l35 185q53 -18 144 -34t170 -16q120 0 171.5 35t51.5 102q0 21 -8.5 48.5t-40.5 51.5t-76.5 40.5t-214.5 63.5q-229 63 -229 316q0 121 82.5 208.5t222.5 110.5z" />
    <glyph glyph-name="ampersand" unicode="&#x26;" horiz-adv-x="1258" 
d="M82 377q0 111 53.5 201.5t176.5 170.5q-68 93 -97 153t-29 137q0 102 50.5 175.5t148.5 116.5t242 43q75 0 170 -16.5t181 -46.5l-32 -188q-55 19 -142 36t-159 17q-118 0 -180 -36.5t-62 -117.5q0 -37 18 -81.5t86 -127.5l402 -515q23 38 23 103q0 52 -12.5 104t-40 98
t-56 80.5t-162.5 176.5v112h529v-182h-232q169 -186 169 -373q0 -166 -96 -274l157 -197l-151 -120l-163 205q-109 -50 -265 -50q-115 0 -212.5 26t-168 76.5t-108.5 125.5t-38 168zM603 171q88 0 148 21l-330 422q-60 -43 -91.5 -92.5t-31.5 -124.5q0 -103 81 -164.5
t224 -61.5z" />
    <glyph glyph-name="quotesingle" unicode="'" horiz-adv-x="378" 
d="M89 1387h200l-12 -521h-176z" />
    <glyph glyph-name="parenleft" unicode="(" horiz-adv-x="679" 
d="M351 677q0 -123 28 -255t103.5 -297.5t233.5 -361.5l-147 -107q-216 216 -331.5 481t-115.5 540q0 276 115.5 541t331.5 481l147 -107q-365 -452 -365 -915z" />
    <glyph glyph-name="parenright" unicode=")" horiz-adv-x="679" 
d="M328 676q0 123 -28 255t-103.5 297.5t-233.5 361.5l147 107q216 -216 331.5 -481t115.5 -540q0 -276 -115.5 -541t-331.5 -481l-147 107q365 452 365 915z" />
    <glyph glyph-name="asterisk" unicode="*" horiz-adv-x="766" 
d="M45 1151l51 164l216 -88l-14 226h170l-13 -226l215 88l51 -164l-228 -66l146 -179l-133 -94l-123 182l-122 -182l-134 94l146 179z" />
    <glyph glyph-name="plus" unicode="+" horiz-adv-x="1122" 
d="M453 1106h216v-332h312v-194h-312v-331h-216v331h-312v194h312v332z" />
    <glyph glyph-name="comma" unicode="," horiz-adv-x="405" 
d="M96 210h208v-102q0 -223 -127 -394h-155q30 65 52 162t22 191v143z" />
    <glyph glyph-name="hyphen" unicode="-" horiz-adv-x="761" 
d="M91 408v179h579v-179h-579z" />
    <glyph glyph-name="period" unicode="." horiz-adv-x="432" 
d="M88 104q0 60 33.5 92.5t94.5 32.5t94.5 -32.5t33.5 -92.5t-33 -92t-95 -32q-61 0 -94.5 32t-33.5 92z" />
    <glyph glyph-name="slash" unicode="/" horiz-adv-x="992" 
d="M790 1679h238l-827 -2004h-238z" />
    <glyph glyph-name="zero" unicode="0" horiz-adv-x="1177" 
d="M106 437v480q0 140 63 248t177.5 158.5t241.5 50.5q155 0 268.5 -63.5t164 -166.5t50.5 -227v-480q0 -124 -50.5 -227t-164 -166.5t-268.5 -63.5q-127 0 -241.5 50.5t-177.5 158.5t-63 248zM338 912v-470q0 -128 64.5 -200t185.5 -72t186 72t65 200v470q0 128 -65 199.5
t-186 71.5q-120 0 -185 -71.5t-65 -199.5z" />
    <glyph glyph-name="one" unicode="1" horiz-adv-x="718" 
d="M75 1035l-25 194l341 125h174v-1354h-229v1123z" />
    <glyph glyph-name="two" unicode="2" horiz-adv-x="984" 
d="M903 201v-201h-811v182q253 282 352.5 404t152 220.5t52.5 182.5q0 90 -59.5 135.5t-163.5 45.5q-145 0 -290 -58l-30 191q71 32 160.5 51.5t175.5 19.5q88 0 167 -23t139 -70.5t94.5 -121t34.5 -168.5q0 -69 -21 -139.5t-64.5 -142t-95 -136.5t-105.5 -126t-132 -146
t-91 -100h535z" />
    <glyph glyph-name="three" unicode="3" horiz-adv-x="940" 
d="M210 591v185h178q95 0 163 54t68 145q0 99 -63.5 150t-179.5 51q-134 0 -267 -38l-23 182q146 54 318 54q95 0 175.5 -24.5t138 -72.5t88.5 -118.5t31 -159.5q0 -94 -45.5 -175t-148.5 -133q100 -43 158 -128.5t58 -203.5q0 -116 -52.5 -198.5t-157 -131.5t-263.5 -49
q-163 0 -315 42l23 191q133 -35 280 -35q83 0 143 27t92 73t32 110q0 50 -26 97.5t-90 76.5t-140 29h-175z" />
    <glyph glyph-name="four" unicode="4" horiz-adv-x="1152" 
d="M692 1354h206v-870h168v-186h-168v-298h-215v298h-577v176zM342 484h345v520z" />
    <glyph glyph-name="five" unicode="5" horiz-adv-x="994" 
d="M917 392q0 -208 -127.5 -310t-359.5 -102q-186 0 -344 40l31 196q148 -32 293 -32q278 0 278 211q0 224 -308 226q-68 0 -254 -6l30 739h689v-201h-502l-15 -350q56 1 131 -2q102 -5 186.5 -32t145 -77.5t93.5 -126.5t33 -173z" />
    <glyph glyph-name="six" unicode="6" horiz-adv-x="1095" 
d="M106 394v385l3 133q7 221 142.5 341.5t381.5 120.5q143 0 294 -40l-32 -196q-132 35 -260 35q-165 0 -237.5 -77t-74.5 -227v-117q137 57 261 57q139 0 233.5 -53.5t143 -145t48.5 -222.5q0 -188 -119 -298t-332 -110q-97 0 -180.5 26.5t-144 78.5t-94 131t-33.5 178z
M551 621q-47 0 -110 -11t-118 -38v-183q0 -101 63.5 -158t171.5 -57q106 0 168 54t62 148q0 245 -237 245z" />
    <glyph glyph-name="seven" unicode="7" horiz-adv-x="912" 
d="M35 1154v200h807v-190l-447 -1164h-240l460 1154h-580z" />
    <glyph glyph-name="eight" unicode="8" horiz-adv-x="1060" 
d="M990 319q0 -151 -125 -245t-335 -94q-211 0 -334 94t-123 248q0 117 64 203.5t203 158.5q-121 66 -179 144t-58 186q0 159 115.5 259.5t311.5 100.5t311.5 -100t115.5 -260q0 -89 -50.5 -168t-186.5 -155q140 -74 205 -162.5t65 -209.5zM530 159q98 0 163.5 50t65.5 136
q0 65 -48.5 127.5t-184.5 130.5q-115 -50 -169.5 -108t-54.5 -150q0 -86 64.5 -136t163.5 -50zM742 1005q0 89 -60.5 134.5t-151.5 45.5q-93 0 -152 -45t-59 -135q0 -58 46 -113t169 -119q103 46 155.5 98.5t52.5 133.5z" />
    <glyph glyph-name="nine" unicode="9" horiz-adv-x="1095" 
d="M989 960v-399l-2 -136q-6 -213 -138.5 -329t-370.5 -116q-75 0 -170.5 13t-152.5 35l31 196q74 -20 129 -30t128 -11q176 -3 252 71.5t77 213.5v125q-137 -57 -260 -57q-139 0 -233.5 54t-143.5 147t-49 224q0 190 119.5 301.5t331.5 111.5q149 0 249.5 -54.5
t151.5 -144.5t51 -215zM544 724q47 0 109.5 11.5t118.5 38.5v191q0 101 -63.5 158t-171.5 57q-106 0 -168 -55.5t-62 -150.5q0 -250 237 -250z" />
    <glyph glyph-name="colon" unicode=":" horiz-adv-x="432" 
d="M88 104q0 60 33.5 92.5t94.5 32.5t94.5 -32.5t33.5 -92.5t-33 -92t-95 -32q-61 0 -94.5 32t-33.5 92zM88 892q0 60 33.5 92t94.5 32q62 0 95 -32t33 -92t-33.5 -92.5t-94.5 -32.5t-94.5 32.5t-33.5 92.5z" />
    <glyph glyph-name="semicolon" unicode=";" horiz-adv-x="401" 
d="M88 892q0 60 33.5 92t94.5 32q62 0 95 -32t33 -92t-33.5 -92.5t-94.5 -32.5t-94.5 32.5t-33.5 92.5zM116 210h208v-102q0 -220 -127 -394h-156q31 65 53 162t22 191v143z" />
    <glyph glyph-name="less" unicode="&#x3c;" horiz-adv-x="991" 
d="M700 1165l149 -136l-411 -352l411 -352l-149 -136l-559 488z" />
    <glyph glyph-name="equal" unicode="=" horiz-adv-x="1014" 
d="M141 943h732v-190h-732v190zM141 601h732v-190h-732v190z" />
    <glyph glyph-name="greater" unicode="&#x3e;" horiz-adv-x="991" 
d="M290 189l-149 136l411 352l-411 352l149 136l559 -488z" />
    <glyph glyph-name="question" unicode="?" horiz-adv-x="772" 
d="M399 379h-180q-2 5 -3.5 34t-0.5 55q1 42 15.5 87t44 85.5t127 148.5t97.5 212q0 77 -50 122t-156 45q-102 0 -246 -48l-40 193q56 23 142 42t185 19q118 0 205.5 -41t137 -114t52.5 -178q1 -68 -18 -136q-4 -14 -19.5 -50.5t-47 -80.5t-125 -146t-100.5 -172
q-15 -36 -20 -77zM185 104q0 60 33.5 92.5t94.5 32.5t94.5 -32.5t33.5 -92.5t-33 -92t-95 -32q-61 0 -94.5 32t-33.5 92z" />
    <glyph glyph-name="at" unicode="@" horiz-adv-x="2114" 
d="M1486 -20q-76 0 -142 40t-100 119q-168 -139 -360 -139q-62 0 -117.5 27.5t-94 80.5t-54.5 128.5t-3 166.5l22 151q10 72 40.5 146.5t88.5 135t146.5 100.5t207.5 40q220 0 374 -110l-79 -571q-4 -56 21.5 -97t80.5 -41q56 0 107.5 46t89.5 146.5t40 258.5
q4 166 -52 301.5t-191.5 216t-345.5 80.5q-220 0 -403.5 -99t-292 -290.5t-111.5 -434.5q-3 -172 52 -311t172 -218.5t279 -79.5q126 0 302 44l28 -162q-173 -60 -368 -60q-190 0 -347 91t-247.5 271t-85.5 413q3 221 81.5 410t220 327t334.5 212.5t420 74.5
q143 0 271.5 -39t242 -131t183 -249.5t66.5 -347.5q-3 -181 -60 -329t-166 -233t-250 -85zM974 192q110 0 224 93l66 476q-85 29 -164 29q-109 0 -173.5 -65t-78.5 -171l-18 -131q-14 -108 20 -169.5t124 -61.5z" />
    <glyph glyph-name="A" unicode="A" horiz-adv-x="1209" 
d="M1180 0h-246l-90 315h-479l-90 -315h-246l409 1354h333zM604 1174l-190 -670h382z" />
    <glyph glyph-name="B" unicode="B" horiz-adv-x="1138" 
d="M622 0h-469v1354h463q204 0 307 -96.5t103 -272.5q0 -99 -49 -172.5t-140 -113.5q105 -37 172 -121.5t67 -194.5q0 -69 -21.5 -137.5t-74.5 -123t-141 -88.5t-217 -34zM849 400q0 106 -69 158.5t-190 52.5h-213v-424h219q121 0 187 53t66 160zM606 781q97 0 147 51.5
t50 143.5q0 191 -208 191h-218v-386h229z" />
    <glyph glyph-name="C" unicode="C" horiz-adv-x="972" 
d="M900 226l25 -190q-141 -56 -333 -56q-94 0 -182.5 31t-157 89.5t-107.5 143t-39 184.5v481q0 124 54.5 228.5t172 170.5t267.5 66q86 0 172.5 -17t133.5 -38l-32 -194q-152 46 -262 46q-119 0 -197 -76t-78 -204v-445q0 -123 80 -193.5t210 -70.5q129 0 273 44z" />
    <glyph glyph-name="D" unicode="D" horiz-adv-x="1211" 
d="M153 0v1354h454q102 0 193.5 -31t159.5 -88.5t106.5 -139.5t38.5 -179v-481q0 -123 -52 -221t-168.5 -156t-277.5 -58h-454zM874 445v440q0 87 -36 150t-98 96.5t-148 33.5h-208v-976h208q137 0 209.5 66.5t72.5 189.5z" />
    <glyph glyph-name="E" unicode="E" horiz-adv-x="1028" 
d="M153 0v1354h798v-201h-566v-374h545v-194h-545v-384h586v-201h-818z" />
    <glyph glyph-name="F" unicode="F" horiz-adv-x="1001" 
d="M153 0v1354h793v-199h-561v-374h541v-198h-541v-583h-232z" />
    <glyph glyph-name="G" unicode="G" horiz-adv-x="1108" 
d="M1012 663v-605q-75 -34 -185.5 -56t-221.5 -22q-158 0 -275.5 65t-170.5 168.5t-53 226.5v456q0 129 55.5 236.5t182 174.5t299.5 67q193 0 352 -65l-40 -191q-56 20 -137 36.5t-152 16.5q-157 0 -243 -76.5t-86 -214.5v-429q0 -134 76.5 -202t219.5 -68q94 0 169 22v460
h210z" />
    <glyph glyph-name="H" unicode="H" horiz-adv-x="1313" 
d="M1160 0h-231v578h-545v-578h-231v1354h231v-571h545v571h231v-1354z" />
    <glyph glyph-name="I" unicode="I" horiz-adv-x="537" 
d="M384 1354v-1354h-231v1354h231z" />
    <glyph glyph-name="J" unicode="J" horiz-adv-x="538" 
d="M153 1354h232v-1360q0 -149 -71.5 -256.5t-257.5 -204.5l-101 149q112 74 155 147t43 179v1346z" />
    <glyph glyph-name="K" unicode="K" horiz-adv-x="1133" 
d="M838 1354h252l-344 -685l362 -669h-257l-303 582h-164v-582h-231v1354h231v-570h179z" />
    <glyph glyph-name="L" unicode="L" horiz-adv-x="962" 
d="M384 1354v-1152h541v-202h-772v1354h231z" />
    <glyph glyph-name="M" unicode="M" horiz-adv-x="1567" 
d="M1209 0v988l-344 -812h-150l-344 811v-987h-218v1354h280l356 -880l358 880h280v-1354h-218z" />
    <glyph glyph-name="N" unicode="N" horiz-adv-x="1317" 
d="M928 0l-547 962v-962h-228v1354h236l547 -962v962h228v-1354h-236z" />
    <glyph glyph-name="O" unicode="O" horiz-adv-x="1216" 
d="M106 435v484q0 123 52.5 225.5t170.5 166t279 63.5t279 -63.5t170.5 -166t52.5 -225.5v-484q0 -123 -52.5 -225.5t-170.5 -166t-279 -63.5t-279 63.5t-170.5 166t-52.5 225.5zM337 914v-447q0 -136 69 -216.5t202 -80.5t202 80.5t69 216.5v420q0 135 -69 215.5t-202 80.5
q-129 0 -200 -71.5t-71 -197.5z" />
    <glyph glyph-name="P" unicode="P" horiz-adv-x="1133" 
d="M607 442h-223v-442h-231v1354h454q141 0 243.5 -54t157 -142.5t54.5 -209.5v-102q0 -76 -25 -147.5t-81 -128t-144.5 -92.5t-204.5 -36zM594 1165h-210v-535h210q113 0 175.5 62.5t62.5 176.5v66q0 110 -63 170t-175 60z" />
    <glyph glyph-name="Q" unicode="Q" horiz-adv-x="1216" 
d="M106 435v484q0 123 52.5 225.5t170.5 166t279 63.5t279 -63.5t170.5 -166t52.5 -225.5v-484q0 -111 -39.5 -198.5t-117 -150.5t-194.5 -89l159 -287l-204 -50l-135 322q-151 5 -257 65.5t-161 158t-55 229.5zM337 914v-447q0 -136 69 -216.5t202 -80.5t202 80.5t69 216.5
v420q0 135 -69 215.5t-202 80.5q-129 0 -200 -71.5t-71 -197.5z" />
    <glyph glyph-name="R" unicode="R" horiz-adv-x="1157" 
d="M153 1354h462q92 0 175 -26t146 -77.5t98.5 -128.5t35.5 -174v-78q0 -137 -69.5 -231t-183.5 -136l265 -503h-253l-233 466h-212v-466h-231v1354zM603 1165h-219v-515h219q109 0 173 58.5t64 167.5v65q0 109 -64 166.5t-173 57.5z" />
    <glyph glyph-name="S" unicode="S" horiz-adv-x="1001" 
d="M932 366q0 -189 -117 -287.5t-345 -98.5q-226 0 -397 63l33 198q173 -56 330 -56q149 0 208.5 44.5t59.5 133.5q0 85 -52.5 130t-191 91t-145.5 48q-229 77 -229 352q0 60 19.5 125.5t76.5 131.5t148.5 99.5t190.5 33.5q186 0 356 -52l-29 -200q-151 48 -301 48
q-111 0 -174 -46t-63 -130q0 -70 30.5 -114t133.5 -78l160 -52q153 -50 225.5 -138.5t72.5 -245.5z" />
    <glyph glyph-name="T" unicode="T" horiz-adv-x="1031" 
d="M399 0v1155h-371v199h975v-199h-371v-1155h-233z" />
    <glyph glyph-name="U" unicode="U" horiz-adv-x="1260" 
d="M886 1354h231v-943q0 -98 -35 -178.5t-99.5 -137t-155 -86t-197.5 -29.5t-197.5 29.5t-155 86t-99.5 137t-35 178.5v943h231v-943q0 -106 70.5 -171t185.5 -65t185.5 65t70.5 171v943z" />
    <glyph glyph-name="V" unicode="V" horiz-adv-x="1180" 
d="M905 1354h246l-391 -1354h-340l-391 1354h246l315 -1132z" />
    <glyph glyph-name="W" unicode="W" horiz-adv-x="1789" 
d="M1511 1354h246l-331 -1354h-309l-223 981l-222 -981h-309l-331 1354h246l255 -1109l244 1089h235l245 -1089z" />
    <glyph glyph-name="X" unicode="X" horiz-adv-x="1152" 
d="M301 1354l276 -519l274 519h255l-362 -664l379 -690h-263l-282 529l-286 -529h-263l379 675l-362 679h255z" />
    <glyph glyph-name="Y" unicode="Y" horiz-adv-x="1133" 
d="M855 1354h241l-414 -864v-490h-231v490l-414 864h241l289 -638z" />
    <glyph glyph-name="Z" unicode="Z" horiz-adv-x="1041" 
d="M95 1155v199h845v-177l-608 -978h639v-199h-906v177l607 978h-577z" />
    <glyph glyph-name="bracketleft" unicode="[" horiz-adv-x="620" 
d="M581 -144v-181h-427v2004h427v-181h-209v-1642h209z" />
    <glyph glyph-name="backslash" unicode="\" horiz-adv-x="992" 
d="M-37 1679h238l827 -2004h-237z" />
    <glyph glyph-name="bracketright" unicode="]" horiz-adv-x="620" 
d="M39 1497v181h428v-2004h-428v181h210v1642h-210z" />
    <glyph glyph-name="asciicircum" unicode="^" horiz-adv-x="994" 
d="M303 809h-215l301 635h216l301 -635h-216l-194 453z" />
    <glyph glyph-name="underscore" unicode="_" horiz-adv-x="1067" 
d="M91 -239v173h885v-173h-885z" />
    <glyph glyph-name="grave" unicode="`" horiz-adv-x="622" 
d="M534 1159l-124 -70l-322 300l184 109z" />
    <glyph glyph-name="a" unicode="a" horiz-adv-x="1005" 
d="M67 260q0 90 42 154t120.5 102t187.5 38h197v90q0 87 -42.5 132.5t-150.5 45.5q-123 0 -276 -46l-27 184q62 20 153 38t180 18q205 0 293 -93.5t88 -295.5v-377q0 -38 17 -59.5t47 -21.5q32 0 64 8l4 -172q-56 -25 -135 -25q-61 0 -107.5 26.5t-71.5 74.5
q-59 -43 -133.5 -72t-150.5 -29q-135 0 -217 71.5t-82 208.5zM410 144q102 0 204 67v202h-177q-75 0 -116.5 -36t-41.5 -104q0 -64 39 -96.5t92 -32.5z" />
    <glyph glyph-name="b" unicode="b" horiz-adv-x="1109" 
d="M1005 622v-228q0 -197 -122 -305.5t-329 -108.5q-235 0 -403 76v1388h219v-537q144 109 292 109q103 0 181 -53.5t120 -140t42 -200.5zM595 821q-116 0 -219 -85v-539q99 -28 184 -28q113 0 166.5 61t53.5 167v200q0 224 -185 224z" />
    <glyph glyph-name="c" unicode="c" horiz-adv-x="860" 
d="M327 583v-174q0 -113 62 -174.5t173 -61.5q41 0 103.5 7t107.5 18l17 -185q-119 -33 -250 -33q-140 0 -235.5 51.5t-145.5 138t-53 205.5l-1 81v84l1 80q3 116 52.5 202.5t144 140t228.5 53.5q130 0 252 -35l-28 -188q-3 1 -35.5 9t-80.5 14.5t-86 6.5q-108 0 -167 -64.5
t-59 -175.5z" />
    <glyph glyph-name="d" unicode="d" horiz-adv-x="1109" 
d="M105 374v233q0 122 46.5 211t140 143.5t234.5 54.5q104 0 213 -35v463h219v-1444h-190l-13 101q-66 -52 -133.5 -82.5t-148.5 -33.5q-57 -5 -111 9q-114 29 -185.5 129t-71.5 251zM514 175q116 0 219 83v534q-97 37 -186 37q-218 0 -218 -239v-185q0 -230 185 -230z" />
    <glyph glyph-name="e" unicode="e" horiz-adv-x="1007" 
d="M96 390v213q0 71 20.5 144.5t70.5 132.5t130 97.5t189 38.5q84 0 158.5 -27.5t129.5 -81t85.5 -131.5t30.5 -174l-2 -170h-591v-45q0 -104 62.5 -160t181.5 -56q144 0 311 40l19 -181q-167 -50 -351 -50q-95 0 -177 27t-141.5 79.5t-92.5 130t-33 173.5zM317 615v-43h377
v39q0 223 -188 223q-189 0 -189 -219z" />
    <glyph glyph-name="f" unicode="f" horiz-adv-x="643" 
d="M27 819v177h144v129q0 157 86.5 248t238.5 91q102 0 184 -22l-23 -180q-81 13 -121 13q-71 0 -107 -38.5t-36 -130.5v-110h246v-177h-244v-819h-224v819h-144z" />
    <glyph glyph-name="g" unicode="g" horiz-adv-x="983" 
d="M727 1218l204 -58q-20 -48 -61.5 -115t-98.5 -121q114 -95 114 -261v-35q0 -68 -29 -129.5t-82.5 -107.5t-129.5 -72t-165 -26q-59 0 -106 10q-63 -47 -63 -92q0 -27 19.5 -42.5t53.5 -15.5h239q111 0 190 -42.5t120 -112.5t41 -165q0 -88 -46.5 -154.5t-136.5 -108
t-217 -41.5h-158q-167 0 -261.5 67.5t-94.5 190.5q0 66 41.5 126t121.5 104q-43 21 -70.5 59.5t-27.5 83.5q0 54 34.5 103t86.5 85q-78 43 -122 114t-44 157v71q0 140 112.5 233t288.5 93q84 0 162 -27q24 44 48.5 111t36.5 118zM591 -20h-225q-46 -23 -79.5 -64t-33.5 -92
q0 -57 45.5 -91t142.5 -34h110q116 0 165 31.5t49 104.5q0 145 -174 145zM294 685v-51q0 -77 48 -128t140 -51q91 0 139.5 51.5t48.5 127.5v41q0 76 -48 129.5t-140 53.5q-89 0 -138.5 -50.5t-49.5 -122.5z" />
    <glyph glyph-name="h" unicode="h" horiz-adv-x="1126" 
d="M151 1444h219v-553q175 125 336 125q132 0 205.5 -73.5t73.5 -209.5v-733h-225v665q0 143 -137 143q-53 0 -120 -24.5t-127 -67.5v-716h-225v1444z" />
    <glyph glyph-name="i" unicode="i" horiz-adv-x="527" 
d="M151 996h225v-996h-225v996zM136 1288q0 60 33 91.5t94 31.5q62 0 95 -31.5t33 -91.5t-33.5 -92.5t-94.5 -32.5t-94 32.5t-33 92.5z" />
    <glyph glyph-name="j" unicode="j" horiz-adv-x="527" 
d="M151 996h225v-1002q0 -150 -70.5 -258.5t-253.5 -203.5l-101 150q126 85 163 159.5t37 166.5v988zM136 1288q0 60 33 91.5t94 31.5q62 0 95 -31.5t33 -91.5t-33.5 -92.5t-94.5 -32.5t-94 32.5t-33 92.5z" />
    <glyph glyph-name="k" unicode="k" horiz-adv-x="1030" 
d="M151 1444h225v-844h127l227 396h250l-300 -489l312 -507h-250l-240 420h-126v-420h-225v1444z" />
    <glyph glyph-name="l" unicode="l" horiz-adv-x="527" 
d="M151 1444h225v-1444h-225v1444z" />
    <glyph glyph-name="m" unicode="m" horiz-adv-x="1702" 
d="M151 996h190l14 -115q169 128 324 132q57 3 107 -11q109 -27 154 -127q83 63 174 102t176 39q129 0 199.5 -73t70.5 -210v-733h-224v665q0 143 -129 143q-51 0 -115.5 -24.5t-123.5 -67.5v-716h-224v665q0 143 -129 143q-51 0 -115.5 -24.5t-123.5 -67.5v-716h-225v996z
" />
    <glyph glyph-name="n" unicode="n" horiz-adv-x="1126" 
d="M151 996h190l14 -114q186 134 351 134q132 0 205.5 -73.5t73.5 -209.5v-733h-225v665q0 143 -137 143q-53 0 -120 -24.5t-127 -67.5v-716h-225v996z" />
    <glyph glyph-name="o" unicode="o" horiz-adv-x="1088" 
d="M105 385v226q0 72 22.5 144.5t76 130t139 94t201.5 36.5q92 0 172.5 -26t140 -77.5t93 -128t33.5 -173.5v-226q0 -72 -22.5 -144.5t-76 -130t-139 -94t-201.5 -36.5q-92 0 -172.5 26t-140 77.5t-93 128t-33.5 173.5zM329 609v-222q0 -103 56.5 -161.5t158.5 -58.5
t158.5 58.5t56.5 161.5v222q0 102 -56.5 161t-158.5 59t-158.5 -59t-56.5 -161z" />
    <glyph glyph-name="p" unicode="p" horiz-adv-x="1109" 
d="M1005 622v-228q0 -97 -31 -175.5t-87.5 -131t-134.5 -80t-169 -27.5q-100 0 -213 33v-461h-219v1444h190l13 -101q157 121 308 121q104 0 182 -54t119.5 -140t41.5 -200zM595 821q-58 0 -115.5 -23.5t-103.5 -60.5v-534q98 -36 187 -36q98 0 157.5 53.5t59.5 174.5v201
q0 225 -185 225z" />
    <glyph glyph-name="q" unicode="q" horiz-adv-x="1109" 
d="M105 374v228q0 72 21 146t73.5 133t139 97t211.5 38q239 0 408 -72v-1392h-219v534q-144 -106 -290 -106q-67 0 -129.5 26t-111 76.5t-76 125.5t-27.5 166zM514 175q118 0 219 83v539q-94 28 -186 28q-98 0 -158 -53.5t-60 -173.5v-200q0 -223 185 -223z" />
    <glyph glyph-name="r" unicode="r" horiz-adv-x="724" 
d="M151 996h187l17 -146q64 64 156.5 114.5t174.5 51.5l3 -220q-77 -5 -164.5 -44t-148.5 -93v-659h-225v996z" />
    <glyph glyph-name="s" unicode="s" horiz-adv-x="838" 
d="M770 272q0 -147 -94 -219.5t-271 -72.5q-75 0 -169 12.5t-159 38.5l30 171q45 -16 121 -30.5t146 -14.5q98 0 142.5 22t44.5 84q0 67 -46.5 99.5t-183.5 65.5q-152 39 -202.5 108t-50.5 192q0 127 98.5 207.5t263.5 80.5q157 0 291 -36l-24 -174q-125 33 -243 33
q-87 0 -132 -26.5t-45 -88.5q0 -53 35 -83t174 -64q97 -24 154.5 -57.5t88.5 -89.5t31 -158z" />
    <glyph glyph-name="t" unicode="t" horiz-adv-x="684" 
d="M21 819v177h149l14 278h200l1 -278h232v-177h-228v-525q0 -62 27 -93.5t93 -31.5q51 0 128 14l15 -179q-85 -24 -196 -24q-127 0 -203.5 62t-82.5 188q-5 134 -5 589h-144z" />
    <glyph glyph-name="u" unicode="u" horiz-adv-x="1110" 
d="M958 0h-189l-15 114q-180 -134 -347 -134q-130 0 -202 73.5t-72 209.5v733h224v-665q0 -143 134 -143q52 0 118 24t125 67v717h224v-996z" />
    <glyph glyph-name="v" unicode="v" horiz-adv-x="994" 
d="M734 996h237l-332 -996h-284l-332 996h237l237 -781z" />
    <glyph glyph-name="w" unicode="w" horiz-adv-x="1507" 
d="M1247 996h233l-278 -996h-266l-183 654l-181 -654h-266l-279 996h233l196 -771l205 753h186l204 -753z" />
    <glyph glyph-name="x" unicode="x" horiz-adv-x="975" 
d="M291 996l196 -369l198 369h245l-282 -483l301 -513h-244l-218 394l-217 -394h-243l300 499l-282 497h246z" />
    <glyph glyph-name="y" unicode="y" horiz-adv-x="1024" 
d="M486 -448h-228l165 448h-68l-334 996h237l245 -791l256 791h240l-350 -996z" />
    <glyph glyph-name="z" unicode="z" horiz-adv-x="841" 
d="M83 822v174h690v-163l-462 -658h477v-175h-719v158l458 664h-444z" />
    <glyph glyph-name="braceleft" unicode="{" horiz-adv-x="709" 
d="M466 1361v-401q0 -126 -38.5 -192t-130.5 -91q92 -23 130.5 -86.5t38.5 -178.5v-403q0 -70 30.5 -107t82.5 -37h97v-190h-127q-137 0 -216.5 79.5t-79.5 205.5v453q0 29 -10.5 68.5t-42.5 70.5t-82 31h-45v189h45q65 0 100 47.5t35 105.5v452q0 137 79 219.5t217 82.5
h127v-190h-97q-50 0 -81.5 -34.5t-31.5 -93.5z" />
    <glyph glyph-name="bar" unicode="|" horiz-adv-x="529" 
d="M154 1679h221v-2004h-221v2004z" />
    <glyph glyph-name="braceright" unicode="}" horiz-adv-x="709" 
d="M243 -8v402q0 125 38.5 191t130.5 91q-91 23 -130 86.5t-39 178.5v403q0 70 -30.5 107.5t-82.5 37.5h-97v189h127q137 0 216.5 -79.5t79.5 -205.5v-453q0 -29 10.5 -68.5t42.5 -70.5t82 -31h45v-188h-45q-65 0 -100 -48t-35 -106v-452q0 -136 -79 -219t-217 -83h-127v190
h97q50 0 81.5 35t31.5 93z" />
    <glyph glyph-name="asciitilde" unicode="~" horiz-adv-x="984" 
d="M343 650q62 0 158.5 -36.5t140.5 -36.5q78 0 156 78l94 -104q-36 -64 -101.5 -113.5t-149.5 -49.5q-62 0 -158.5 36.5t-140.5 36.5q-78 0 -156 -78l-95 101q17 30 50 69t86.5 68t115.5 29z" />
    <glyph glyph-name="exclamdown" unicode="&#xa1;" horiz-adv-x="441" 
d="M93 -358l33 974h189l33 -974h-255zM92 892q0 60 33.5 92t94.5 32q62 0 95 -32t33 -92t-33.5 -92.5t-94.5 -32.5t-94.5 32.5t-33.5 92.5z" />
    <glyph glyph-name="cent" unicode="&#xa2;" horiz-adv-x="1007" 
d="M484 1477h215l-11 -267q93 -9 171 -35l-26 -181q-115 33 -215 33q-97 0 -161 -53t-64 -141v-321q0 -86 65 -135t172 -49q106 0 224 31l19 -178q-82 -29 -198 -38l11 -266h-215l11 274q-137 27 -226.5 119t-89.5 227v352q0 92 38 164t111.5 124t179.5 70z" />
    <glyph glyph-name="sterling" unicode="&#xa3;" horiz-adv-x="1186" 
d="M165 755h157v197q0 80 23.5 155t78 134t140.5 96t202 37q136 0 272 -35l-23 -198q-117 28 -234 28q-112 0 -171 -61t-59 -177v-176h369v-159h-369v-250q0 -108 -61 -172h560v-194h-905v194q90 0 133.5 42.5t43.5 139.5v240h-157v159z" />
    <glyph glyph-name="currency" unicode="&#xa4;" horiz-adv-x="1310" 
d="M233 116l-132 118l184 214q-57 90 -57 208v44q0 113 54 202l-182 209l132 120l202 -189q98 54 221 54t221 -53l202 188l132 -119l-182 -210q54 -89 54 -202v-44q0 -119 -58 -208l185 -214l-132 -119l-207 196q-96 -51 -215 -51t-214 50zM438 690v-24q0 -98 58 -159.5
t159 -61.5q102 0 159.5 61t57.5 160v24q0 99 -57.5 160t-159.5 61q-101 0 -159 -61.5t-58 -159.5z" />
    <glyph glyph-name="yen" unicode="&#xa5;" horiz-adv-x="1288" 
d="M642 842l287 512h242l-278 -474h190v-148h-880v148h189l-275 474h242zM228 620h830v-148h-298v-472h-232v472h-300v148z" />
    <glyph glyph-name="brokenbar" unicode="&#xa6;" horiz-adv-x="529" 
d="M154 1679h221v-782h-221v782zM154 458h221v-782h-221v782z" />
    <glyph glyph-name="section" unicode="&#xa7;" horiz-adv-x="1293" 
d="M1113 1335q-164 55 -300 69q-69 -65 -69 -160q0 -106 86 -257l185 -331q71 -126 108 -227t37 -210q0 -211 -157.5 -337t-417.5 -126q-103 0 -221 22.5t-224 65.5l40 177q149 -55 300 -70q69 66 69 160q0 105 -85 258l-186 331q-71 126 -108 226.5t-37 209.5
q0 211 157.5 337t417.5 126q103 0 221.5 -22.5t223.5 -64.5zM763 152q0 -119 -82 -198q267 34 267 273q0 59 -21.5 133t-101.5 213l-210 365q-85 149 -85 265q0 120 81 198q-266 -34 -266 -272q0 -59 21.5 -133.5t101.5 -213.5l210 -365q85 -149 85 -265z" />
    <glyph glyph-name="dieresis" unicode="&#xa8;" horiz-adv-x="830" 
d="M88 1287q0 60 33.5 92t94.5 32q62 0 95 -32t33 -92t-33.5 -92.5t-94.5 -32.5t-94.5 32.5t-33.5 92.5zM486 1287q0 60 33 92t95 32q61 0 94.5 -32t33.5 -92t-33.5 -92.5t-94.5 -32.5t-94.5 32.5t-33.5 92.5z" />
    <glyph glyph-name="copyright" unicode="&#xa9;" horiz-adv-x="1568" 
d="M88 676q0 181 85 341.5t247.5 258.5t361.5 98q181 0 341.5 -85.5t258.5 -249t98 -363.5q0 -199 -98 -362t-258.5 -248.5t-341.5 -85.5q-180 0 -339.5 85.5t-257 248.5t-97.5 362zM244 676q0 -111 41 -210.5t114.5 -173.5t173 -115.5t209.5 -41.5q111 0 211 41.5
t174.5 115.5t116 173.5t41.5 210.5t-41.5 211t-116 174.5t-174.5 116t-211 41.5q-110 0 -209.5 -41.5t-173 -116t-114.5 -174.5t-41 -211zM633 710v-70q0 -89 48.5 -137.5t134.5 -48.5q28 0 72.5 4.5t72.5 12.5l13 -153q-79 -24 -175 -24q-113 0 -190.5 41.5t-118 112
t-41.5 169.5l-1 60l1 60q2 95 43.5 165.5t119.5 114t188 43.5q91 0 169 -26l-21 -155q-67 20 -138 20q-86 0 -131.5 -50t-45.5 -139z" />
    <glyph glyph-name="ordfeminine" unicode="&#xaa;" horiz-adv-x="757" 
d="M53 845q0 52 23 96t81 77t152 33h136v43q0 52 -28 79.5t-96 27.5q-100 0 -213 -33l-22 154q41 16 112.5 29.5t143.5 13.5q156 0 223 -61.5t67 -204.5v-252q0 -47 43 -47q30 0 51 6l3 -145q-47 -20 -108 -20q-44 0 -83 20.5t-60 54.5q-36 -31 -89.5 -53t-111.5 -22
q-98 0 -161 51.5t-63 152.5zM318 786q60 0 127 40v100h-117q-92 0 -92 -72q0 -34 23 -51t59 -17z" />
    <glyph glyph-name="guillemotleft" unicode="&#xab;" horiz-adv-x="983" 
d="M322 498l201 -373l-174 -76l-256 449l256 449l174 -76zM730 498l195 -372l-174 -74l-248 446l248 446l174 -74z" />
    <glyph glyph-name="logicalnot" unicode="&#xac;" horiz-adv-x="1117" 
d="M772 337v243h-631v194h835v-437h-204z" />
    <glyph glyph-name="uni00AD" unicode="&#xad;" horiz-adv-x="761" 
d="M91 408v179h579v-179h-579z" />
    <glyph glyph-name="registered" unicode="&#xae;" horiz-adv-x="1568" 
d="M88 676q0 181 85 341.5t247.5 258.5t361.5 98q181 0 341.5 -85.5t258.5 -249t98 -363.5q0 -199 -98 -362t-258.5 -248.5t-341.5 -85.5q-180 0 -339.5 85.5t-257 248.5t-97.5 362zM244 676q0 -111 41 -210.5t114.5 -173.5t173 -115.5t209.5 -41.5q111 0 211 41.5
t174.5 115.5t116 173.5t41.5 210.5t-41.5 211t-116 174.5t-174.5 116t-211 41.5q-110 0 -209.5 -41.5t-173 -116t-114.5 -174.5t-41 -211zM1081 774q0 -65 -36.5 -121t-113.5 -85l159 -262h-183l-134 235h-100v-235h-168v742h296q72 0 139.5 -26t104 -83t36.5 -128v-37z
M780 908h-107v-232h107q62 0 97.5 26.5t35.5 74.5v23q0 50 -35 79t-98 29z" />
    <glyph glyph-name="macron" unicode="&#xaf;" horiz-adv-x="758" 
d="M88 1195v177h582v-177h-582z" />
    <glyph glyph-name="degree" unicode="&#xb0;" horiz-adv-x="780" 
d="M75 1013v76q0 84 38 146t109 99.5t167 37.5q97 0 168.5 -37.5t109.5 -99.5t38 -146v-76q0 -84 -38 -146t-109.5 -99.5t-168.5 -37.5q-96 0 -167 37.5t-109 99.5t-38 146zM260 1078v-53q0 -63 36.5 -97.5t92.5 -34.5t93.5 34.5t37.5 97.5v53q0 63 -37.5 97.5t-93.5 34.5
t-92.5 -34.5t-36.5 -97.5z" />
    <glyph glyph-name="plusminus" unicode="&#xb1;" horiz-adv-x="1060" 
d="M425 1253h217v-296h276v-193h-276v-296h-217v296h-276v193h276v296zM186 314h697v-190h-697v190z" />
    <glyph glyph-name="uni00B2" unicode="&#xb2;" horiz-adv-x="638" 
d="M599 811v-160h-552v150q160 101 214 141.5t81.5 79.5t27.5 75q0 49 -37 73.5t-98 24.5q-60 0 -164 -20l-20 162q113 27 216 27q95 0 164 -32t106 -88.5t37 -139.5q0 -155 -250 -293h275z" />
    <glyph glyph-name="uni00B3" unicode="&#xb3;" horiz-adv-x="616" 
d="M116 941v126h125q44 0 71.5 16t27.5 50q0 35 -31 54t-87 19q-78 0 -156 -17l-19 148q96 27 197 27q141 0 220 -55t79 -153q0 -103 -102 -146q52 -18 83 -60t31 -104q0 -99 -82 -152t-234 -53q-104 0 -194 22l18 156q77 -18 158 -18q131 0 131 68q0 35 -32.5 53.5
t-78.5 18.5h-125z" />
    <glyph glyph-name="acute" unicode="&#xb4;" horiz-adv-x="622" 
d="M212 1089l-124 70l262 339l184 -109z" />
    <glyph glyph-name="uni00B5" unicode="&#xb5;" horiz-adv-x="1118" 
d="M967 0h-190l-14 113q-147 -119 -280 -122q-66 -3 -117 20q-2 -160 -69.5 -270.5t-254.5 -208.5l-101 150q126 85 163 159.5t37 166.5v988h225v-665q0 -143 133 -143q52 0 118 24t125 67v717h225v-996z" />
    <glyph glyph-name="paragraph" unicode="&#xb6;" horiz-adv-x="1177" 
d="M566 1354h73v-981h-73q-103 0 -191 30.5t-151 89t-97.5 143t-34.5 186.5v79q0 102 34.5 187t97.5 144t151 90.5t191 31.5zM782 1354h228v-1295q0 -149 -71 -256.5t-255 -204.5l-101 149q113 75 156 148t43 179v1280z" />
    <glyph glyph-name="periodcentered" unicode="&#xb7;" horiz-adv-x="432" 
d="M88 498q0 60 33.5 92t94.5 32q62 0 95 -32t33 -92t-33.5 -92.5t-94.5 -32.5t-94.5 32.5t-33.5 92.5z" />
    <glyph glyph-name="cedilla" unicode="&#xb8;" horiz-adv-x="584" 
d="M203 20h122l-16 -124q86 -9 136.5 -54t50.5 -127q0 -45 -25 -84t-88 -69t-162 -30q-77 0 -133 14l18 141q33 -11 92 -11q53 0 85 17t32 51q0 32 -27 49.5t-74 17.5h-61z" />
    <glyph glyph-name="uni00B9" unicode="&#xb9;" horiz-adv-x="603" 
d="M584 810v-159h-532v159h179v360l-181 -38l-12 151l236 71h148v-544h162z" />
    <glyph glyph-name="ordmasculine" unicode="&#xba;" horiz-adv-x="808" 
d="M72 924v157q0 84 40 146t115 99.5t176 37.5q84 0 164 -31t124.5 -97t44.5 -147v-157q0 -87 -40.5 -150.5t-115.5 -102t-177 -38.5q-101 0 -176 37.5t-115 99.5t-40 146zM258 1070v-135q0 -61 40 -96t105 -35q66 0 106.5 37.5t40.5 102.5v134q0 57 -40.5 90t-106.5 33
q-65 0 -105 -35t-40 -96z" />
    <glyph glyph-name="guillemotright" unicode="&#xbb;" horiz-adv-x="983" 
d="M253 498l-195 372l174 74l248 -446l-248 -446l-174 73zM662 498l-202 372l174 77l256 -449l-256 -449l-174 76z" />
    <glyph glyph-name="questiondown" unicode="&#xbf;" horiz-adv-x="772" 
d="M373 617h180q2 -5 3.5 -34t0.5 -55q-1 -42 -15.5 -87t-46.5 -89t-100 -118t-88 -114.5t-27 -68.5t-7 -56q0 -77 50 -122t156 -45q116 0 246 48l40 -193q-56 -23 -142 -42t-185 -19q-118 0 -205.5 41t-137 114t-52.5 178q-1 68 18 136q11 34 32.5 76t51 78.5t115.5 130.5
t93 164q15 36 20 77zM331 892q0 60 33 92t95 32q61 0 94.5 -32t33.5 -92t-33.5 -92.5t-94.5 -32.5t-94.5 32.5t-33.5 92.5z" />
    <glyph glyph-name="Agrave" unicode="&#xc0;" horiz-adv-x="1209" 
d="M1180 0h-246l-90 315h-479l-90 -315h-246l409 1354h333zM604 1174l-190 -670h382zM740 1518l-124 -71l-321 301l183 109z" />
    <glyph glyph-name="Aacute" unicode="&#xc1;" horiz-adv-x="1209" 
d="M1180 0h-246l-90 315h-479l-90 -315h-246l409 1354h333zM604 1174l-190 -670h382zM565 1447l-123 71l262 339l183 -109z" />
    <glyph glyph-name="Acircumflex" unicode="&#xc2;" horiz-adv-x="1209" 
d="M1180 0h-246l-90 315h-479l-90 -315h-246l409 1354h333zM604 1174l-190 -670h382zM289 1484l213 340h204l213 -340l-198 -16l-117 209l-117 -209z" />
    <glyph glyph-name="Atilde" unicode="&#xc3;" horiz-adv-x="1209" 
d="M1180 0h-246l-90 315h-479l-90 -315h-246l409 1354h333zM604 1174l-190 -670h382zM486 1764q44 0 121.5 -30.5t111.5 -30.5q60 0 115 69l109 -78q-33 -81 -92.5 -129t-126.5 -48q-44 0 -122 30.5t-112 30.5q-58 0 -115 -68l-109 77q33 81 92.5 129t127.5 48z" />
    <glyph glyph-name="Adieresis" unicode="&#xc4;" horiz-adv-x="1209" 
d="M1180 0h-246l-90 315h-479l-90 -315h-246l409 1354h333zM604 1174l-190 -670h382zM277 1645q0 60 33 92t94 32q62 0 95 -32t33 -92t-33 -92t-95 -32q-61 0 -94 32t-33 92zM676 1645q0 60 33 92t95 32q61 0 94.5 -32t33.5 -92t-33.5 -92t-94.5 -32t-94.5 32t-33.5 92z" />
    <glyph glyph-name="Aring" unicode="&#xc5;" horiz-adv-x="1209" 
d="M1180 0h-246l-90 315h-479l-90 -315h-246l409 1354h333zM362 1661q0 99 68 161.5t175 62.5q106 0 174 -62t68 -158q0 -98 -68 -160.5t-176 -62.5q-106 0 -173.5 61.5t-67.5 157.5zM604 1174l-190 -670h382zM509 1665q0 -38 27 -64t68 -26t68.5 24.5t27.5 62.5
q0 39 -27.5 65.5t-68.5 26.5t-68 -25.5t-27 -63.5z" />
    <glyph glyph-name="AE" unicode="&#xc6;" horiz-adv-x="1634" 
d="M945 0l-53 306h-485l-132 -306h-246l603 1354h925v-201h-581l70 -374h491v-194h-462l72 -384h431v-201h-633zM756 1127l-274 -631h383z" />
    <glyph glyph-name="Ccedilla" unicode="&#xc7;" horiz-adv-x="972" 
d="M900 226l25 -190q-64 -24 -151.5 -40t-174.5 -16l-11 -84q86 -9 136.5 -54t50.5 -127q0 -45 -25 -84t-88 -69t-162 -30q-76 0 -132 14l18 141q33 -11 91 -11q53 0 85 17t32 51q0 32 -27 49.5t-74 17.5h-60l42 181q-116 24 -199 89t-126.5 152.5t-43.5 194.5v481
q0 124 54.5 228.5t172 170.5t267.5 66q86 0 172.5 -17t133.5 -38l-32 -194q-152 46 -262 46q-119 0 -197 -76t-78 -204v-445q0 -122 80 -193t210 -71q132 0 273 44z" />
    <glyph glyph-name="Egrave" unicode="&#xc8;" horiz-adv-x="1028" 
d="M153 0v1354h798v-201h-566v-374h545v-194h-545v-384h586v-201h-818zM717 1518l-124 -71l-322 301l184 109z" />
    <glyph glyph-name="Eacute" unicode="&#xc9;" horiz-adv-x="1028" 
d="M153 0v1354h798v-201h-566v-374h545v-194h-545v-384h586v-201h-818zM537 1447l-124 71l262 339l184 -109z" />
    <glyph glyph-name="Ecircumflex" unicode="&#xca;" horiz-adv-x="1028" 
d="M153 0v1354h798v-201h-566v-374h545v-194h-545v-384h586v-201h-818zM232 1484l213 340h205l213 -340l-198 -16l-118 209l-117 -209z" />
    <glyph glyph-name="Edieresis" unicode="&#xcb;" horiz-adv-x="1028" 
d="M153 0v1354h798v-201h-566v-374h545v-194h-545v-384h586v-201h-818zM227 1645q0 60 33 92t94 32q62 0 95 -32t33 -92t-33 -92t-95 -32q-61 0 -94 32t-33 92zM626 1645q0 60 33 92t95 32q61 0 94.5 -32t33.5 -92t-33.5 -92t-94.5 -32t-94.5 32t-33.5 92z" />
    <glyph glyph-name="Igrave" unicode="&#xcc;" horiz-adv-x="537" 
d="M384 1354v-1354h-231v1354h231zM416 1518l-123 -71l-322 301l183 109z" />
    <glyph glyph-name="Iacute" unicode="&#xcd;" horiz-adv-x="537" 
d="M384 1354v-1354h-231v1354h231zM248 1447l-124 71l262 339l184 -109z" />
    <glyph glyph-name="Icircumflex" unicode="&#xce;" horiz-adv-x="537" 
d="M384 1354v-1354h-231v1354h231zM-47 1484l213 340h205l213 -340l-198 -16l-117 209l-118 -209z" />
    <glyph glyph-name="Idieresis" unicode="&#xcf;" horiz-adv-x="537" 
d="M384 1354v-1354h-231v1354h231zM-51 1645q0 60 33.5 92t94.5 32q62 0 95 -32t33 -92t-33 -92t-95 -32q-61 0 -94.5 32t-33.5 92zM332 1645q0 60 33.5 92t94.5 32t94.5 -32t33.5 -92t-33.5 -92t-94.5 -32t-94.5 32t-33.5 92z" />
    <glyph glyph-name="Eth" unicode="&#xd0;" horiz-adv-x="1228" 
d="M41 603v148h129v603h454q102 0 193 -31t159 -88.5t106.5 -139.5t38.5 -179v-481q0 -123 -52 -221t-168.5 -156t-276.5 -58h-454v603h-129zM891 445v445q0 71 -30 137t-97.5 102t-154.5 36h-208v-414h272v-148h-272v-414h208q137 0 209.5 67t72.5 189z" />
    <glyph glyph-name="Ntilde" unicode="&#xd1;" horiz-adv-x="1317" 
d="M928 0l-547 962v-962h-228v1354h236l547 -962v962h228v-1354h-236zM539 1764q44 0 121.5 -30.5t111.5 -30.5q58 0 115 69l109 -78q-12 -29 -39.5 -70.5t-75 -74t-105.5 -32.5q-44 0 -121.5 30.5t-111.5 30.5q-60 0 -115 -68l-109 77q33 81 92.5 129t127.5 48z" />
    <glyph glyph-name="Ograve" unicode="&#xd2;" horiz-adv-x="1216" 
d="M106 435v484q0 123 52.5 225.5t170.5 166t279 63.5t279 -63.5t170.5 -166t52.5 -225.5v-484q0 -123 -52.5 -225.5t-170.5 -166t-279 -63.5t-279 63.5t-170.5 166t-52.5 225.5zM337 914v-447q0 -136 69 -216.5t202 -80.5t202 80.5t69 216.5v420q0 135 -69 215.5t-202 80.5
q-129 0 -200 -71.5t-71 -197.5zM779 1518l-124 -71l-322 301l184 109z" />
    <glyph glyph-name="Oacute" unicode="&#xd3;" horiz-adv-x="1216" 
d="M106 435v484q0 123 52.5 225.5t170.5 166t279 63.5t279 -63.5t170.5 -166t52.5 -225.5v-484q0 -123 -52.5 -225.5t-170.5 -166t-279 -63.5t-279 63.5t-170.5 166t-52.5 225.5zM337 914v-447q0 -136 69 -216.5t202 -80.5t202 80.5t69 216.5v420q0 135 -69 215.5t-202 80.5
q-129 0 -200 -71.5t-71 -197.5zM574 1447l-124 71l262 339l184 -109z" />
    <glyph glyph-name="Ocircumflex" unicode="&#xd4;" horiz-adv-x="1216" 
d="M106 435v484q0 123 52.5 225.5t170.5 166t279 63.5t279 -63.5t170.5 -166t52.5 -225.5v-484q0 -123 -52.5 -225.5t-170.5 -166t-279 -63.5t-279 63.5t-170.5 166t-52.5 225.5zM337 914v-447q0 -136 69 -216.5t202 -80.5t202 80.5t69 216.5v420q0 135 -69 215.5t-202 80.5
q-129 0 -200 -71.5t-71 -197.5zM293 1484l213 340h204l213 -340l-197 -16l-118 209l-117 -209z" />
    <glyph glyph-name="Otilde" unicode="&#xd5;" horiz-adv-x="1216" 
d="M106 435v484q0 123 52.5 225.5t170.5 166t279 63.5t279 -63.5t170.5 -166t52.5 -225.5v-484q0 -123 -52.5 -225.5t-170.5 -166t-279 -63.5t-279 63.5t-170.5 166t-52.5 225.5zM337 914v-447q0 -136 69 -216.5t202 -80.5t202 80.5t69 216.5v420q0 135 -69 215.5t-202 80.5
q-129 0 -200 -71.5t-71 -197.5zM489 1764q44 0 121.5 -30.5t112.5 -30.5q59 0 114 69l109 -78q-33 -81 -92.5 -129t-126.5 -48q-44 0 -122 30.5t-112 30.5q-58 0 -115 -68l-109 77q33 81 92.5 129t127.5 48z" />
    <glyph glyph-name="Odieresis" unicode="&#xd6;" horiz-adv-x="1216" 
d="M106 435v484q0 123 52.5 225.5t170.5 166t279 63.5t279 -63.5t170.5 -166t52.5 -225.5v-484q0 -123 -52.5 -225.5t-170.5 -166t-279 -63.5t-279 63.5t-170.5 166t-52.5 225.5zM337 914v-447q0 -136 69 -216.5t202 -80.5t202 80.5t69 216.5v420q0 135 -69 215.5t-202 80.5
q-129 0 -200 -71.5t-71 -197.5zM281 1645q0 60 33 92t95 32q61 0 94.5 -32t33.5 -92t-33.5 -92t-94.5 -32q-62 0 -95 32t-33 92zM680 1645q0 60 33 92t95 32q61 0 94.5 -32t33.5 -92t-33.5 -92t-94.5 -32t-94.5 32t-33.5 92z" />
    <glyph glyph-name="multiply" unicode="&#xd7;" horiz-adv-x="1086" 
d="M798 1079l147 -147l-260 -260l249 -249l-138 -138l-249 250l-259 -260l-147 147l259 259l-249 250l138 137l249 -249z" />
    <glyph glyph-name="Oslash" unicode="&#xd8;" horiz-adv-x="1216" 
d="M106 435v484q0 123 52.5 225.5t170.5 166t279 63.5q104 0 195 -32l107 251h160l-135 -315q83 -57 129 -148.5t46 -210.5v-484q0 -123 -52.5 -225.5t-170.5 -166t-279 -63.5q-108 0 -199 32l-107 -250h-160l135 315q-171 120 -171 358zM337 914v-447q0 -136 69 -216.5
t202 -80.5t202 80.5t69 216.5v420q0 135 -69 215.5t-202 80.5q-129 0 -200 -71.5t-71 -197.5z" />
    <glyph glyph-name="Ugrave" unicode="&#xd9;" horiz-adv-x="1260" 
d="M886 1354h231v-943q0 -98 -35 -178.5t-99.5 -137t-155 -86t-197.5 -29.5t-197.5 29.5t-155 86t-99.5 137t-35 178.5v943h231v-943q0 -106 70.5 -171t185.5 -65t185.5 65t70.5 171v943zM750 1518l-124 -71l-322 301l184 109z" />
    <glyph glyph-name="Uacute" unicode="&#xda;" horiz-adv-x="1260" 
d="M886 1354h231v-943q0 -98 -35 -178.5t-99.5 -137t-155 -86t-197.5 -29.5t-197.5 29.5t-155 86t-99.5 137t-35 178.5v943h231v-943q0 -106 70.5 -171t185.5 -65t185.5 65t70.5 171v943zM616 1447l-123 71l262 339l183 -109z" />
    <glyph glyph-name="Ucircumflex" unicode="&#xdb;" horiz-adv-x="1260" 
d="M886 1354h231v-943q0 -98 -35 -178.5t-99.5 -137t-155 -86t-197.5 -29.5t-197.5 29.5t-155 86t-99.5 137t-35 178.5v943h231v-943q0 -106 70.5 -171t185.5 -65t185.5 65t70.5 171v943zM315 1484l213 340h204l213 -340l-197 -16l-118 209l-117 -209z" />
    <glyph glyph-name="Udieresis" unicode="&#xdc;" horiz-adv-x="1260" 
d="M886 1354h231v-943q0 -98 -35 -178.5t-99.5 -137t-155 -86t-197.5 -29.5t-197.5 29.5t-155 86t-99.5 137t-35 178.5v943h231v-943q0 -106 70.5 -171t185.5 -65t185.5 65t70.5 171v943zM303 1645q0 60 33 92t95 32q61 0 94 -32t33 -92t-33 -92t-94 -32q-62 0 -95 32
t-33 92zM702 1645q0 60 33 92t95 32q61 0 94.5 -32t33.5 -92t-33.5 -92t-94.5 -32t-94.5 32t-33.5 92z" />
    <glyph glyph-name="Yacute" unicode="&#xdd;" horiz-adv-x="1133" 
d="M855 1354h241l-414 -864v-490h-231v490l-414 864h241l289 -638zM568 1447l-124 71l262 339l183 -109z" />
    <glyph glyph-name="Thorn" unicode="&#xde;" horiz-adv-x="1133" 
d="M607 221h-223v-221h-231v1354h231v-221h223q141 0 243.5 -54t157 -142.5t54.5 -209.5v-101q0 -76 -25 -148t-81 -128.5t-144.5 -92.5t-204.5 -36zM594 944h-210v-534h210q113 0 175.5 62t62.5 177v65q0 110 -63 170t-175 60z" />
    <glyph glyph-name="germandbls" unicode="&#xdf;" horiz-adv-x="1195" 
d="M367 1091v-1091h-224v1114q0 56 20 116t67 111.5t122.5 87t173.5 35.5q77 0 156 -16.5t143.5 -56.5t107 -104t42.5 -150q0 -58 -21.5 -114t-111.5 -155q-69 -75 -94.5 -110t-25.5 -66q0 -40 27 -64t138 -62q145 -49 204.5 -115.5t59.5 -183.5q0 -141 -92.5 -214
t-265.5 -73q-72 0 -161.5 12.5t-150.5 38.5l31 171q41 -16 111.5 -30.5t135.5 -14.5q183 0 183 107q0 42 -31.5 72.5t-182.5 78.5q-112 35 -166.5 94t-54.5 158q0 40 12.5 79t39 75t85.5 103t89 112.5t30 83.5q0 66 -63 110.5t-158 44.5q-80 0 -127.5 -48t-47.5 -136z" />
    <glyph glyph-name="agrave" unicode="&#xe0;" horiz-adv-x="1005" 
d="M67 260q0 90 42 154t120.5 102t187.5 38h197v90q0 87 -42.5 132.5t-150.5 45.5q-123 0 -276 -46l-27 184q62 20 153 38t180 18q205 0 293 -93.5t88 -295.5v-377q0 -38 17 -59.5t47 -21.5q32 0 64 8l4 -172q-56 -25 -135 -25q-61 0 -107.5 26.5t-71.5 74.5
q-59 -43 -133.5 -72t-150.5 -29q-135 0 -217 71.5t-82 208.5zM410 144q102 0 204 67v202h-177q-75 0 -116.5 -36t-41.5 -104q0 -64 39 -96.5t92 -32.5zM632 1159l-124 -70l-322 300l184 109z" />
    <glyph glyph-name="aacute" unicode="&#xe1;" horiz-adv-x="1005" 
d="M67 260q0 90 42 154t120.5 102t187.5 38h197v90q0 87 -42.5 132.5t-150.5 45.5q-123 0 -276 -46l-27 184q62 20 153 38t180 18q205 0 293 -93.5t88 -295.5v-377q0 -38 17 -59.5t47 -21.5q32 0 64 8l4 -172q-56 -25 -135 -25q-61 0 -107.5 26.5t-71.5 74.5
q-59 -43 -133.5 -72t-150.5 -29q-135 0 -217 71.5t-82 208.5zM410 144q102 0 204 67v202h-177q-75 0 -116.5 -36t-41.5 -104q0 -64 39 -96.5t92 -32.5zM425 1089l-124 70l262 339l184 -109z" />
    <glyph glyph-name="acircumflex" unicode="&#xe2;" horiz-adv-x="1005" 
d="M67 260q0 90 42 154t120.5 102t187.5 38h197v90q0 87 -42.5 132.5t-150.5 45.5q-123 0 -276 -46l-27 184q62 20 153 38t180 18q205 0 293 -93.5t88 -295.5v-377q0 -38 17 -59.5t47 -21.5q32 0 64 8l4 -172q-56 -25 -135 -25q-61 0 -107.5 26.5t-71.5 74.5
q-59 -43 -133.5 -72t-150.5 -29q-135 0 -217 71.5t-82 208.5zM410 144q102 0 204 67v202h-177q-75 0 -116.5 -36t-41.5 -104q0 -64 39 -96.5t92 -32.5zM149 1126l213 340h204l213 -340l-198 -16l-117 209l-117 -209z" />
    <glyph glyph-name="atilde" unicode="&#xe3;" horiz-adv-x="1005" 
d="M67 260q0 90 42 154t120.5 102t187.5 38h197v90q0 87 -42.5 132.5t-150.5 45.5q-123 0 -276 -46l-27 184q62 20 153 38t180 18q205 0 293 -93.5t88 -295.5v-377q0 -38 17 -59.5t47 -21.5q32 0 64 8l4 -172q-56 -25 -135 -25q-61 0 -107.5 26.5t-71.5 74.5
q-59 -43 -133.5 -72t-150.5 -29q-135 0 -217 71.5t-82 208.5zM410 144q102 0 204 67v202h-177q-75 0 -116.5 -36t-41.5 -104q0 -64 39 -96.5t92 -32.5zM323 1406q44 0 122 -30.5t112 -30.5q58 0 115 69l109 -78q-12 -29 -39.5 -70.5t-75 -74t-105.5 -32.5q-44 0 -121.5 30.5
t-111.5 30.5q-60 0 -115 -68l-109 77q33 81 92.5 129t126.5 48z" />
    <glyph glyph-name="adieresis" unicode="&#xe4;" horiz-adv-x="1005" 
d="M67 260q0 90 42 154t120.5 102t187.5 38h197v90q0 87 -42.5 132.5t-150.5 45.5q-123 0 -276 -46l-27 184q62 20 153 38t180 18q205 0 293 -93.5t88 -295.5v-377q0 -38 17 -59.5t47 -21.5q32 0 64 8l4 -172q-56 -25 -135 -25q-61 0 -107.5 26.5t-71.5 74.5
q-59 -43 -133.5 -72t-150.5 -29q-135 0 -217 71.5t-82 208.5zM410 144q102 0 204 67v202h-177q-75 0 -116.5 -36t-41.5 -104q0 -64 39 -96.5t92 -32.5zM127 1287q0 60 33 92t94 32q62 0 95 -32t33 -92t-33.5 -92.5t-94.5 -32.5t-94 32.5t-33 92.5zM526 1287q0 60 33 92
t95 32q61 0 94.5 -32t33.5 -92t-33.5 -92.5t-94.5 -32.5t-94.5 32.5t-33.5 92.5z" />
    <glyph glyph-name="aring" unicode="&#xe5;" horiz-adv-x="1005" 
d="M67 260q0 90 42 154t120.5 102t187.5 38h197v90q0 87 -42.5 132.5t-150.5 45.5q-123 0 -276 -46l-27 184q62 20 153 38t180 18q205 0 293 -93.5t88 -295.5v-377q0 -38 17 -59.5t47 -21.5q32 0 64 8l4 -172q-56 -25 -135 -25q-61 0 -107.5 26.5t-71.5 74.5
q-59 -43 -133.5 -72t-150.5 -29q-135 0 -217 71.5t-82 208.5zM210 1303q0 99 68 161.5t175 62.5q106 0 174.5 -62t68.5 -158q0 -99 -68.5 -161t-176.5 -62q-106 0 -173.5 61.5t-67.5 157.5zM410 144q102 0 204 67v202h-177q-75 0 -116.5 -36t-41.5 -104q0 -64 39 -96.5
t92 -32.5zM357 1307q0 -38 27.5 -64.5t67.5 -26.5q41 0 69 25t28 63q0 39 -27.5 65t-68.5 26t-68.5 -25t-27.5 -63z" />
    <glyph glyph-name="ae" unicode="&#xe6;" horiz-adv-x="1519" 
d="M67 263q0 89 42 153.5t120.5 103t187.5 38.5h197v86q0 87 -42.5 132.5t-150.5 45.5q-123 0 -276 -46l-27 184q62 20 153 38t180 18q203 0 282 -109q53 53 127.5 81t157.5 28q84 0 158.5 -27.5t129.5 -81t85.5 -131.5t30.5 -174v-80l-2 -99h-591v-36q0 -104 62.5 -160
t181.5 -56q144 0 311 40l19 -181q-167 -50 -351 -50q-106 0 -198 35.5t-152 105.5q-61 -55 -152 -98t-184 -43q-135 0 -217 72.5t-82 210.5zM829 615v-51h377v47q0 223 -188 223q-189 0 -189 -219zM614 382l-4 35h-173q-75 0 -116.5 -36.5t-41.5 -105.5q0 -64 39.5 -97
t97.5 -33q111 0 223 87q-25 67 -25 150z" />
    <glyph glyph-name="ccedilla" unicode="&#xe7;" horiz-adv-x="860" 
d="M327 583v-174q0 -113 61.5 -174.5t173.5 -61.5q41 0 103.5 7t107.5 18l17 -185q-42 -12 -112 -22.5t-139 -10.5l-17 1l-11 -85q86 -9 136.5 -54t50.5 -127q0 -45 -25 -84t-88 -69t-162 -30q-77 0 -133 14l18 141q33 -11 92 -11q52 0 84.5 17t32.5 51q0 32 -27 49.5
t-74 17.5h-61l44 185q-137 33 -215.5 134.5t-78.5 262.5v223q2 117 52 204.5t144.5 141.5t229.5 54q130 0 252 -35l-28 -188q-3 1 -35.5 9t-80.5 14.5t-86 6.5q-108 0 -167 -64.5t-59 -175.5z" />
    <glyph glyph-name="egrave" unicode="&#xe8;" horiz-adv-x="1007" 
d="M96 390v213q0 71 20.5 144.5t70.5 132.5t130 97.5t189 38.5q84 0 158.5 -27.5t129.5 -81t85.5 -131.5t30.5 -174l-2 -170h-591v-45q0 -104 62.5 -160t181.5 -56q144 0 311 40l19 -181q-167 -50 -351 -50q-95 0 -177 27t-141.5 79.5t-92.5 130t-33 173.5zM317 615v-43h377
v39q0 223 -188 223q-189 0 -189 -219zM654 1159l-124 -70l-322 300l184 109z" />
    <glyph glyph-name="eacute" unicode="&#xe9;" horiz-adv-x="1007" 
d="M96 390v213q0 71 20.5 144.5t70.5 132.5t130 97.5t189 38.5q84 0 158.5 -27.5t129.5 -81t85.5 -131.5t30.5 -174l-2 -170h-591v-45q0 -104 62.5 -160t181.5 -56q144 0 311 40l19 -181q-167 -50 -351 -50q-95 0 -177 27t-141.5 79.5t-92.5 130t-33 173.5zM317 615v-43h377
v39q0 223 -188 223q-189 0 -189 -219zM466 1089l-124 70l262 339l184 -109z" />
    <glyph glyph-name="ecircumflex" unicode="&#xea;" horiz-adv-x="1007" 
d="M96 390v213q0 71 20.5 144.5t70.5 132.5t130 97.5t189 38.5q84 0 158.5 -27.5t129.5 -81t85.5 -131.5t30.5 -174l-2 -170h-591v-45q0 -104 62.5 -160t181.5 -56q144 0 311 40l19 -181q-167 -50 -351 -50q-95 0 -177 27t-141.5 79.5t-92.5 130t-33 173.5zM317 615v-43h377
v39q0 223 -188 223q-189 0 -189 -219zM188 1126l213 340h205l212 -340l-197 -16l-118 209l-117 -209z" />
    <glyph glyph-name="edieresis" unicode="&#xeb;" horiz-adv-x="1007" 
d="M96 390v213q0 71 20.5 144.5t70.5 132.5t130 97.5t189 38.5q84 0 158.5 -27.5t129.5 -81t85.5 -131.5t30.5 -174l-2 -170h-591v-45q0 -104 62.5 -160t181.5 -56q144 0 311 40l19 -181q-167 -50 -351 -50q-95 0 -177 27t-141.5 79.5t-92.5 130t-33 173.5zM317 615v-43h377
v39q0 223 -188 223q-189 0 -189 -219zM176 1287q0 60 33 92t95 32q61 0 94.5 -32t33.5 -92t-33.5 -92.5t-94.5 -32.5t-94.5 32.5t-33.5 92.5zM575 1287q0 60 33 92t95 32q61 0 94.5 -32t33.5 -92t-33.5 -92.5t-94.5 -32.5t-94.5 32.5t-33.5 92.5z" />
    <glyph glyph-name="igrave" unicode="&#xec;" horiz-adv-x="494" 
d="M135 996h224v-996h-224v996zM393 1159l-124 -70l-322 300l184 109z" />
    <glyph glyph-name="iacute" unicode="&#xed;" horiz-adv-x="527" 
d="M151 996h225v-996h-225v996zM242 1089l-124 70l262 339l184 -109z" />
    <glyph glyph-name="icircumflex" unicode="&#xee;" horiz-adv-x="494" 
d="M135 996h224v-996h-224v996zM-68 1126l213 340h204l213 -340l-198 -16l-117 209l-118 -209z" />
    <glyph glyph-name="idieresis" unicode="&#xef;" horiz-adv-x="494" 
d="M135 996h224v-996h-224v996zM-72 1287q0 60 33 92t95 32q61 0 94 -32t33 -92t-33 -92.5t-94 -32.5t-94.5 32.5t-33.5 92.5zM310 1287q0 60 33.5 92t94.5 32q62 0 95 -32t33 -92t-33.5 -92.5t-94.5 -32.5t-94.5 32.5t-33.5 92.5z" />
    <glyph glyph-name="eth" unicode="&#xf0;" horiz-adv-x="1140" 
d="M607 1049l-127 77l87 149q-38 6 -81 3q-138 -3 -244 -48l-38 177q153 57 309 57q85 0 161 -19l96 160l127 -77l-84 -140q189 -124 189 -428v-570q0 -195 -123.5 -302.5t-329.5 -107.5q-217 0 -335 111.5t-118 300.5v185q0 115 48.5 198.5t143.5 133.5t234 50
q156 0 259 -98v80q0 188 -81 268zM322 564v-194q0 -95 60.5 -150t166.5 -55q107 0 169.5 58t62.5 159v265q-39 59 -96.5 92t-128.5 33q-115 0 -174.5 -54t-59.5 -154z" />
    <glyph glyph-name="ntilde" unicode="&#xf1;" horiz-adv-x="1126" 
d="M151 996h190l14 -114q186 134 351 134q132 0 205.5 -73.5t73.5 -209.5v-733h-225v665q0 143 -137 143q-53 0 -120 -24.5t-127 -67.5v-716h-225v996zM443 1406q44 0 122 -30.5t112 -30.5q58 0 115 69l109 -78q-12 -29 -39.5 -70.5t-75 -74t-105.5 -32.5q-44 0 -121.5 30.5
t-111.5 30.5q-60 0 -115 -68l-109 77q33 81 92.5 129t126.5 48z" />
    <glyph glyph-name="ograve" unicode="&#xf2;" horiz-adv-x="1088" 
d="M105 385v226q0 72 22.5 144.5t76 130t139 94t201.5 36.5q92 0 172.5 -26t140 -77.5t93 -128t33.5 -173.5v-226q0 -72 -22.5 -144.5t-76 -130t-139 -94t-201.5 -36.5q-92 0 -172.5 26t-140 77.5t-93 128t-33.5 173.5zM329 609v-215q0 -106 55.5 -166.5t159.5 -60.5
q103 0 159 61t56 166v208q0 105 -56 166t-159 61q-102 0 -158.5 -59t-56.5 -161zM712 1159l-124 -70l-322 300l184 109z" />
    <glyph glyph-name="oacute" unicode="&#xf3;" horiz-adv-x="1088" 
d="M105 385v226q0 72 22.5 144.5t76 130t139 94t201.5 36.5q92 0 172.5 -26t140 -77.5t93 -128t33.5 -173.5v-226q0 -72 -22.5 -144.5t-76 -130t-139 -94t-201.5 -36.5q-92 0 -172.5 26t-140 77.5t-93 128t-33.5 173.5zM329 609v-215q0 -106 55.5 -166.5t159.5 -60.5
q103 0 159 61t56 166v208q0 105 -56 166t-159 61q-102 0 -158.5 -59t-56.5 -161zM517 1089l-124 70l262 339l184 -109z" />
    <glyph glyph-name="ocircumflex" unicode="&#xf4;" horiz-adv-x="1088" 
d="M105 385v226q0 72 22.5 144.5t76 130t139 94t201.5 36.5q92 0 172.5 -26t140 -77.5t93 -128t33.5 -173.5v-226q0 -72 -22.5 -144.5t-76 -130t-139 -94t-201.5 -36.5q-92 0 -172.5 26t-140 77.5t-93 128t-33.5 173.5zM329 609v-215q0 -106 55.5 -166.5t159.5 -60.5
q103 0 159 61t56 166v208q0 105 -56 166t-159 61q-102 0 -158.5 -59t-56.5 -161zM229 1126l213 340h204l213 -340l-198 -16l-117 209l-117 -209z" />
    <glyph glyph-name="otilde" unicode="&#xf5;" horiz-adv-x="1088" 
d="M105 385v226q0 72 22.5 144.5t76 130t139 94t201.5 36.5q92 0 172.5 -26t140 -77.5t93 -128t33.5 -173.5v-226q0 -72 -22.5 -144.5t-76 -130t-139 -94t-201.5 -36.5q-92 0 -172.5 26t-140 77.5t-93 128t-33.5 173.5zM329 609v-215q0 -106 55.5 -166.5t159.5 -60.5
q103 0 159 61t56 166v208q0 105 -56 166t-159 61q-102 0 -158.5 -59t-56.5 -161zM425 1406q44 0 121.5 -30.5t111.5 -30.5q60 0 115 69l109 -78q-12 -29 -39 -70.5t-74.5 -74t-106.5 -32.5q-44 0 -121.5 30.5t-111.5 30.5q-58 0 -115 -68l-109 77q12 29 39 70.5t74.5 74
t106.5 32.5z" />
    <glyph glyph-name="odieresis" unicode="&#xf6;" horiz-adv-x="1088" 
d="M105 385v226q0 72 22.5 144.5t76 130t139 94t201.5 36.5q92 0 172.5 -26t140 -77.5t93 -128t33.5 -173.5v-226q0 -72 -22.5 -144.5t-76 -130t-139 -94t-201.5 -36.5q-92 0 -172.5 26t-140 77.5t-93 128t-33.5 173.5zM329 609v-215q0 -106 55.5 -166.5t159.5 -60.5
q103 0 159 61t56 166v208q0 105 -56 166t-159 61q-102 0 -158.5 -59t-56.5 -161zM216 1287q0 60 33.5 92t94.5 32q62 0 95 -32t33 -92t-33.5 -92.5t-94.5 -32.5t-94.5 32.5t-33.5 92.5zM616 1287q0 60 33 92t95 32q61 0 94.5 -32t33.5 -92t-33.5 -92.5t-94.5 -32.5
t-94.5 32.5t-33.5 92.5z" />
    <glyph glyph-name="divide" unicode="&#xf7;" horiz-adv-x="1038" 
d="M395 999q0 60 33 92t95 32q61 0 94.5 -32t33.5 -92t-33.5 -92.5t-94.5 -32.5t-94.5 32.5t-33.5 92.5zM141 761h764v-158h-764v158zM395 365q0 60 33.5 92.5t94.5 32.5t94.5 -32.5t33.5 -92.5t-33.5 -92t-94.5 -32t-94.5 32t-33.5 92z" />
    <glyph glyph-name="oslash" unicode="&#xf8;" horiz-adv-x="1088" 
d="M933 1234l-123 -288q82 -51 127.5 -136t45.5 -199v-226q0 -72 -22.5 -144.5t-76 -130t-139 -94t-201.5 -36.5q-73 0 -138 18l-99 -236h-151l122 288q-82 50 -127.5 135t-45.5 200v226q0 120 51 208.5t149 142.5t239 54q76 0 137 -17l100 235h152zM329 609v-215
q0 -106 55.5 -166.5t159.5 -60.5q103 0 159 61t56 166v208q0 105 -56 166t-159 61q-102 0 -158.5 -59t-56.5 -161z" />
    <glyph glyph-name="ugrave" unicode="&#xf9;" horiz-adv-x="1118" 
d="M967 0h-190l-14 114q-182 -134 -347 -134q-131 0 -203 73t-72 210v733h225v-665q0 -143 133 -143q52 0 118 24t125 67v717h225v-996zM676 1159l-124 -70l-321 300l183 109z" />
    <glyph glyph-name="uacute" unicode="&#xfa;" horiz-adv-x="1118" 
d="M967 0h-190l-14 114q-182 -134 -347 -134q-131 0 -203 73t-72 210v733h225v-665q0 -143 133 -143q52 0 118 24t125 67v717h225v-996zM533 1089l-124 70l262 339l184 -109z" />
    <glyph glyph-name="ucircumflex" unicode="&#xfb;" horiz-adv-x="1118" 
d="M967 0h-190l-14 114q-182 -134 -347 -134q-131 0 -203 73t-72 210v733h225v-665q0 -143 133 -143q52 0 118 24t125 67v717h225v-996zM243 1126l213 340h205l213 -340l-198 -16l-118 209l-117 -209z" />
    <glyph glyph-name="udieresis" unicode="&#xfc;" horiz-adv-x="1118" 
d="M967 0h-190l-14 114q-182 -134 -347 -134q-131 0 -203 73t-72 210v733h225v-665q0 -143 133 -143q52 0 118 24t125 67v717h225v-996zM630 1287q0 60 33.5 92t94.5 32q62 0 95 -32t33 -92t-33.5 -92.5t-94.5 -32.5t-94.5 32.5t-33.5 92.5zM231 1287q0 60 33 92t95 32
q61 0 94.5 -32t33.5 -92t-33.5 -92.5t-94.5 -32.5t-94.5 32.5t-33.5 92.5z" />
    <glyph glyph-name="yacute" unicode="&#xfd;" horiz-adv-x="1024" 
d="M486 -448h-228l165 448h-68l-334 996h237l245 -791l256 791h240l-350 -996zM513 1089l-124 70l262 339l184 -109z" />
    <glyph glyph-name="thorn" unicode="&#xfe;" horiz-adv-x="1109" 
d="M1005 622v-228q0 -97 -31 -175.5t-87.5 -131t-134.5 -80t-169 -27.5q-100 0 -213 33v-461h-219v1892h225v-533q139 105 286 105q104 0 182 -54t119.5 -140t41.5 -200zM595 821q-58 0 -115.5 -23.5t-103.5 -60.5v-534q98 -36 187 -36q98 0 157.5 53.5t59.5 174.5v201
q0 225 -185 225z" />
    <glyph glyph-name="ydieresis" unicode="&#xff;" horiz-adv-x="1024" 
d="M486 -448h-228l165 448h-68l-334 996h237l245 -791l256 791h240l-350 -996zM579 1287q0 60 33.5 92t94.5 32q62 0 95 -32t33 -92t-33.5 -92.5t-94.5 -32.5t-94.5 32.5t-33.5 92.5zM182 1287q0 60 33 92t95 32q61 0 94.5 -32t33.5 -92t-33.5 -92.5t-94.5 -32.5t-94.5 32.5
t-33.5 92.5z" />
    <glyph glyph-name="Amacron" unicode="&#x100;" horiz-adv-x="1209" 
d="M1180 0h-246l-90 315h-479l-90 -315h-246l409 1354h333zM604 1174l-190 -670h382zM313 1553v177h582v-177h-582z" />
    <glyph glyph-name="amacron" unicode="&#x101;" horiz-adv-x="1005" 
d="M67 260q0 90 42 154t120.5 102t187.5 38h197v90q0 87 -42.5 132.5t-150.5 45.5q-123 0 -276 -46l-27 184q62 20 153 38t180 18q205 0 293 -93.5t88 -295.5v-377q0 -38 17 -59.5t47 -21.5q32 0 64 8l4 -172q-56 -25 -135 -25q-61 0 -107.5 26.5t-71.5 74.5
q-59 -43 -133.5 -72t-150.5 -29q-135 0 -217 71.5t-82 208.5zM410 144q102 0 204 67v202h-177q-75 0 -116.5 -36t-41.5 -104q0 -64 39 -96.5t92 -32.5zM173 1195v177h582v-177h-582z" />
    <glyph glyph-name="Abreve" unicode="&#x102;" horiz-adv-x="1209" 
d="M1180 0h-246l-90 315h-479l-90 -315h-246l409 1354h333zM604 1174l-190 -670h382zM311 1793h181q2 -56 28.5 -93.5t83.5 -37.5q49 0 79 32t33 99h182q0 -136 -79.5 -217t-214.5 -81t-214 81t-79 217z" />
    <glyph glyph-name="abreve" unicode="&#x103;" horiz-adv-x="1005" 
d="M67 260q0 90 42 154t120.5 102t187.5 38h197v90q0 87 -42.5 132.5t-150.5 45.5q-123 0 -276 -46l-27 184q62 20 153 38t180 18q205 0 293 -93.5t88 -295.5v-377q0 -38 17 -59.5t47 -21.5q32 0 64 8l4 -172q-56 -25 -135 -25q-61 0 -107.5 26.5t-71.5 74.5
q-59 -43 -133.5 -72t-150.5 -29q-135 0 -217 71.5t-82 208.5zM410 144q102 0 204 67v202h-177q-75 0 -116.5 -36t-41.5 -104q0 -64 39 -96.5t92 -32.5zM159 1434h182q2 -56 28 -93.5t83 -37.5q49 0 79 32t33 99h182q0 -137 -79.5 -217.5t-214.5 -80.5q-134 0 -213.5 80.5
t-79.5 217.5z" />
    <glyph glyph-name="Aogonek" unicode="&#x104;" horiz-adv-x="1209" 
d="M1180 0q-177 -119 -177 -226q0 -38 24 -59t66 -21q57 0 97 14l16 -155q-60 -21 -137 -21q-110 0 -178 47.5t-68 144.5q0 68 51.5 140t152.5 136h-93l-90 315h-479l-90 -315h-246l409 1354h333zM604 1174l-190 -670h382z" />
    <glyph glyph-name="aogonek" unicode="&#x105;" horiz-adv-x="1005" 
d="M67 260q0 90 42 154t120.5 102t187.5 38h197v90q0 87 -42.5 132.5t-150.5 45.5q-123 0 -276 -46l-27 184q62 20 153 38t180 18q205 0 293 -93.5t88 -295.5v-377q0 -38 17 -59.5t47 -21.5q32 0 64 8l4 -172l-14 -5q-177 -117 -177 -226q0 -38 23.5 -59t65.5 -21
q58 0 97 14l17 -155q-61 -21 -138 -21q-110 0 -177.5 47.5t-67.5 144.5q0 64 45 131.5t136 130.5q-84 18 -124 95q-59 -43 -133.5 -72t-150.5 -29q-135 0 -217 71.5t-82 208.5zM410 144q102 0 204 67v202h-177q-75 0 -116.5 -36t-41.5 -104q0 -64 39 -96.5t92 -32.5z" />
    <glyph glyph-name="Cacute" unicode="&#x106;" horiz-adv-x="972" 
d="M900 226l25 -190q-141 -56 -333 -56q-94 0 -182.5 31t-157 89.5t-107.5 143t-39 184.5v481q0 124 54.5 228.5t172 170.5t267.5 66q86 0 172.5 -17t133.5 -38l-32 -194q-152 46 -262 46q-119 0 -197 -76t-78 -204v-445q0 -123 80 -193.5t210 -70.5q129 0 273 44zM515 1447
l-124 71l262 339l184 -109z" />
    <glyph glyph-name="cacute" unicode="&#x107;" horiz-adv-x="860" 
d="M327 583v-174q0 -113 62 -174.5t173 -61.5q41 0 103.5 7t107.5 18l17 -185q-119 -33 -250 -33q-140 0 -235.5 51.5t-145.5 138t-53 205.5l-1 81v84l1 80q3 116 52.5 202.5t144 140t228.5 53.5q130 0 252 -35l-28 -188q-3 1 -35.5 9t-80.5 14.5t-86 6.5q-108 0 -167 -64.5
t-59 -175.5zM461 1089l-124 70l262 339l183 -109z" />
    <glyph glyph-name="Ccircumflex" unicode="&#x108;" horiz-adv-x="972" 
d="M900 226l25 -190q-141 -56 -333 -56q-94 0 -182.5 31t-157 89.5t-107.5 143t-39 184.5v481q0 124 54.5 228.5t172 170.5t267.5 66q86 0 172.5 -17t133.5 -38l-32 -194q-152 46 -262 46q-119 0 -197 -76t-78 -204v-445q0 -123 80 -193.5t210 -70.5q129 0 273 44zM251 1484
l213 340h204l213 -340l-198 -16l-117 209l-117 -209z" />
    <glyph glyph-name="ccircumflex" unicode="&#x109;" horiz-adv-x="860" 
d="M327 583v-174q0 -113 62 -174.5t173 -61.5q41 0 103.5 7t107.5 18l17 -185q-119 -33 -250 -33q-140 0 -235.5 51.5t-145.5 138t-53 205.5l-1 81v84l1 80q3 116 52.5 202.5t144 140t228.5 53.5q130 0 252 -35l-28 -188q-3 1 -35.5 9t-80.5 14.5t-86 6.5q-108 0 -167 -64.5
t-59 -175.5zM178 1126l213 340h205l213 -340l-198 -16l-117 209l-118 -209z" />
    <glyph glyph-name="Cdotaccent" unicode="&#x10a;" horiz-adv-x="972" 
d="M900 226l25 -190q-141 -56 -333 -56q-94 0 -182.5 31t-157 89.5t-107.5 143t-39 184.5v481q0 124 54.5 228.5t172 170.5t267.5 66q86 0 172.5 -17t133.5 -38l-32 -194q-152 46 -262 46q-119 0 -197 -76t-78 -204v-445q0 -123 80 -193.5t210 -70.5q129 0 273 44zM448 1645
q0 60 33.5 92t94.5 32t94.5 -32t33.5 -92t-33.5 -92t-94.5 -32t-94.5 32t-33.5 92z" />
    <glyph glyph-name="cdotaccent" unicode="&#x10b;" horiz-adv-x="860" 
d="M327 583v-174q0 -113 62 -174.5t173 -61.5q41 0 103.5 7t107.5 18l17 -185q-119 -33 -250 -33q-140 0 -235.5 51.5t-145.5 138t-53 205.5l-1 81v84l1 80q3 116 52.5 202.5t144 140t228.5 53.5q130 0 252 -35l-28 -188q-3 1 -35.5 9t-80.5 14.5t-86 6.5q-108 0 -167 -64.5
t-59 -175.5zM376 1287q0 60 33 92t95 32q61 0 94.5 -32t33.5 -92t-33.5 -92.5t-94.5 -32.5t-94.5 32.5t-33.5 92.5z" />
    <glyph glyph-name="Ccaron" unicode="&#x10c;" horiz-adv-x="972" 
d="M900 226l25 -190q-141 -56 -333 -56q-94 0 -182.5 31t-157 89.5t-107.5 143t-39 184.5v481q0 124 54.5 228.5t172 170.5t267.5 66q86 0 172.5 -17t133.5 -38l-32 -194q-152 46 -262 46q-119 0 -197 -76t-78 -204v-445q0 -123 80 -193.5t210 -70.5q129 0 273 44zM888 1816
l-222 -340h-204l-221 340l197 16l126 -208l126 208z" />
    <glyph glyph-name="ccaron" unicode="&#x10d;" horiz-adv-x="860" 
d="M327 583v-174q0 -113 62 -174.5t173 -61.5q41 0 103.5 7t107.5 18l17 -185q-119 -33 -250 -33q-140 0 -235.5 51.5t-145.5 138t-53 205.5l-1 81v84l1 80q3 116 52.5 202.5t144 140t228.5 53.5q130 0 252 -35l-28 -188q-3 1 -35.5 9t-80.5 14.5t-86 6.5q-108 0 -167 -64.5
t-59 -175.5zM832 1458l-221 -340h-205l-221 340l198 16l125 -209l126 209z" />
    <glyph glyph-name="Dcaron" unicode="&#x10e;" horiz-adv-x="1211" 
d="M153 0v1354h454q102 0 193.5 -31t159.5 -88.5t106.5 -139.5t38.5 -179v-481q0 -123 -52 -221t-168.5 -156t-277.5 -58h-454zM874 445v440q0 87 -36 150t-98 96.5t-148 33.5h-208v-976h208q137 0 209.5 66.5t72.5 189.5zM861 1816l-221 -340h-205l-221 340l198 16
l126 -208l125 208z" />
    <glyph glyph-name="dcaron" unicode="&#x10f;" horiz-adv-x="1307" 
d="M105 374v233q0 122 46.5 211t140 143.5t234.5 54.5q104 0 213 -35v463h219v-1444h-190l-13 101q-66 -52 -133.5 -82.5t-148.5 -33.5q-57 -5 -111 9q-114 29 -185.5 129t-71.5 251zM514 175q116 0 219 83v534q-97 37 -186 37q-218 0 -218 -239v-185q0 -230 185 -230z
M1106 1444h201l-13 -522h-175z" />
    <glyph glyph-name="Dcroat" unicode="&#x110;" horiz-adv-x="1228" 
d="M41 603v148h129v603h454q102 0 193 -31t159 -88.5t106.5 -139.5t38.5 -179v-481q0 -123 -52 -221t-168.5 -156t-276.5 -58h-454v603h-129zM891 445v445q0 71 -30 137t-97.5 102t-154.5 36h-208v-414h272v-148h-272v-414h208q137 0 209.5 67t72.5 189z" />
    <glyph glyph-name="dcroat" unicode="&#x111;" horiz-adv-x="1129" 
d="M105 374v233q0 173 90 276.5t246 125.5q48 8 102 6q45 -1 99.5 -10.5t96.5 -23.5v175h-299v148h299v140h219v-140h130v-148h-130v-1156h-190l-13 101q-148 -115 -290 -118q-43 -3 -79 4q-123 23 -202 125t-79 262zM514 175q116 0 219 83v534q-97 37 -186 37
q-218 0 -218 -239v-185q0 -230 185 -230z" />
    <glyph glyph-name="Emacron" unicode="&#x112;" horiz-adv-x="1028" 
d="M153 0v1354h798v-201h-566v-374h545v-194h-545v-384h586v-201h-818zM257 1553v177h582v-177h-582z" />
    <glyph glyph-name="emacron" unicode="&#x113;" horiz-adv-x="1007" 
d="M96 390v213q0 71 20.5 144.5t70.5 132.5t130 97.5t189 38.5q84 0 158.5 -27.5t129.5 -81t85.5 -131.5t30.5 -174l-2 -170h-591v-45q0 -104 62.5 -160t181.5 -56q144 0 311 40l19 -181q-167 -50 -351 -50q-95 0 -177 27t-141.5 79.5t-92.5 130t-33 173.5zM317 615v-43h377
v39q0 223 -188 223q-189 0 -189 -219zM214 1195v177h582v-177h-582z" />
    <glyph glyph-name="Ebreve" unicode="&#x114;" horiz-adv-x="1028" 
d="M153 0v1354h798v-201h-566v-374h545v-194h-545v-384h586v-201h-818zM252 1793h182q2 -57 28 -94t84 -37q49 0 79 32t32 99h182q0 -136 -79.5 -217t-213.5 -81q-135 0 -214.5 81t-79.5 217z" />
    <glyph glyph-name="ebreve" unicode="&#x115;" horiz-adv-x="1007" 
d="M96 390v213q0 71 20.5 144.5t70.5 132.5t130 97.5t189 38.5q84 0 158.5 -27.5t129.5 -81t85.5 -131.5t30.5 -174l-2 -170h-591v-45q0 -104 62.5 -160t181.5 -56q144 0 311 40l19 -181q-167 -50 -351 -50q-95 0 -177 27t-141.5 79.5t-92.5 130t-33 173.5zM317 615v-43h377
v39q0 223 -188 223q-189 0 -189 -219zM210 1435h182q2 -56 28 -93.5t83 -37.5q49 0 79 32t33 99h182q0 -137 -79.5 -217.5t-214.5 -80.5t-214 80.5t-79 217.5z" />
    <glyph glyph-name="Edotaccent" unicode="&#x116;" horiz-adv-x="1028" 
d="M153 0v1354h798v-201h-566v-374h545v-194h-545v-384h586v-201h-818zM419 1645q0 60 33.5 92t94.5 32q62 0 95 -32t33 -92t-33 -92t-95 -32q-61 0 -94.5 32t-33.5 92z" />
    <glyph glyph-name="edotaccent" unicode="&#x117;" horiz-adv-x="1007" 
d="M96 390v213q0 71 20.5 144.5t70.5 132.5t130 97.5t189 38.5q84 0 158.5 -27.5t129.5 -81t85.5 -131.5t30.5 -174l-2 -170h-591v-45q0 -104 62.5 -160t181.5 -56q144 0 311 40l19 -181q-167 -50 -351 -50q-95 0 -177 27t-141.5 79.5t-92.5 130t-33 173.5zM317 615v-43h377
v39q0 223 -188 223q-189 0 -189 -219zM375 1287q0 60 33.5 92t94.5 32q62 0 95 -32t33 -92t-33.5 -92.5t-94.5 -32.5t-94.5 32.5t-33.5 92.5z" />
    <glyph glyph-name="Eogonek" unicode="&#x118;" horiz-adv-x="1028" 
d="M153 0v1354h798v-201h-566v-374h545v-194h-545v-384h586v-201q-177 -119 -177 -226q0 -38 24 -59t66 -21q57 0 97 14l17 -155q-61 -21 -138 -21q-110 0 -178 47.5t-68 144.5q0 68 51.5 140t152.5 136h-665z" />
    <glyph glyph-name="eogonek" unicode="&#x119;" horiz-adv-x="1007" 
d="M96 390v150l2 80q2 68 23.5 138.5t71.5 127t129 93.5t184 37q126 0 215.5 -54t137 -140.5t50.5 -201.5l1 -91l-2 -97h-591v-45q0 -105 62 -160.5t182 -55.5q157 0 311 40l19 -181q-77 -22 -126 -30q-177 -119 -177 -226q0 -38 24 -59t66 -21q57 0 97 14l17 -155
q-43 -13 -80 -17l-76 -3q-102 3 -165 50.5t-63 140.5q0 63 43.5 129t131.5 128l-43 -1q-95 0 -177 27t-141.5 79.5t-92.5 130t-33 173.5zM317 615v-43h377v39q0 223 -188 223q-189 0 -189 -219z" />
    <glyph glyph-name="Ecaron" unicode="&#x11a;" horiz-adv-x="1028" 
d="M153 0v1354h798v-201h-566v-374h545v-194h-545v-384h586v-201h-818zM887 1816l-221 -340h-204l-222 340l198 16l126 -208l126 208z" />
    <glyph glyph-name="ecaron" unicode="&#x11b;" horiz-adv-x="1007" 
d="M96 390v213q0 71 20.5 144.5t70.5 132.5t130 97.5t189 38.5q84 0 158.5 -27.5t129.5 -81t85.5 -131.5t30.5 -174l-2 -170h-591v-45q0 -104 62.5 -160t181.5 -56q144 0 311 40l19 -181q-167 -50 -351 -50q-95 0 -177 27t-141.5 79.5t-92.5 130t-33 173.5zM317 615v-43h377
v39q0 223 -188 223q-189 0 -189 -219zM827 1456l-221 -340h-205l-221 340l198 17l125 -209l126 209z" />
    <glyph glyph-name="Gcircumflex" unicode="&#x11c;" horiz-adv-x="1108" 
d="M1012 663v-605q-75 -34 -185.5 -56t-221.5 -22q-158 0 -275.5 65t-170.5 168.5t-53 226.5v456q0 129 55.5 236.5t182 174.5t299.5 67q193 0 352 -65l-40 -191q-56 20 -137 36.5t-152 16.5q-157 0 -243 -76.5t-86 -214.5v-429q0 -134 76.5 -202t219.5 -68q94 0 169 22v460
h210zM294 1484l213 340h204l213 -340l-198 -16l-117 209l-117 -209z" />
    <glyph glyph-name="gcircumflex" unicode="&#x11d;" horiz-adv-x="983" 
d="M79 619v71q0 50 19.5 105.5t66 104t120 82.5t168.5 34q129 0 196.5 -76.5t75.5 -201.5q9 146 -27 278l203 -20q36 -339 -70.5 -521t-351.5 -182q-59 0 -106 10q-63 -47 -63 -92q0 -27 19.5 -42.5t53.5 -15.5h239q111 0 190 -42.5t120 -112.5t41 -165q0 -88 -46.5 -154.5
t-136.5 -108t-217 -41.5h-158q-167 0 -261.5 67.5t-94.5 190.5q0 66 41.5 126t121.5 104q-43 21 -70.5 59.5t-27.5 83.5q0 54 34.5 103t86.5 85q-78 43 -122 114t-44 157zM291 685v-51q0 -77 48.5 -128t140.5 -51q91 0 139.5 51.5t48.5 127.5v41q0 76 -48 129.5t-140 53.5
q-90 0 -139.5 -50.5t-49.5 -122.5zM591 -20h-225q-46 -23 -79.5 -64t-33.5 -92q0 -57 45.5 -91t142.5 -34h110q116 0 165 31.5t49 104.5q0 145 -174 145zM165 1126l213 340h204l213 -340l-198 -16l-117 209l-117 -209z" />
    <glyph glyph-name="Gbreve" unicode="&#x11e;" horiz-adv-x="1108" 
d="M1012 663v-605q-75 -34 -185.5 -56t-221.5 -22q-158 0 -275.5 65t-170.5 168.5t-53 226.5v456q0 129 55.5 236.5t182 174.5t299.5 67q193 0 352 -65l-40 -191q-56 20 -137 36.5t-152 16.5q-157 0 -243 -76.5t-86 -214.5v-429q0 -134 76.5 -202t219.5 -68q94 0 169 22v460
h210zM308 1793h182q2 -57 28 -94t84 -37q49 0 78.5 32t32.5 99h182q0 -136 -79.5 -217t-213.5 -81q-135 0 -214.5 81t-79.5 217z" />
    <glyph glyph-name="gbreve" unicode="&#x11f;" horiz-adv-x="983" 
d="M79 619v71q0 50 19.5 105.5t66 104t120 82.5t168.5 34q129 0 196.5 -76.5t75.5 -201.5q9 146 -27 278l203 -20q36 -339 -70.5 -521t-351.5 -182q-59 0 -106 10q-63 -47 -63 -92q0 -27 19.5 -42.5t53.5 -15.5h239q111 0 190 -42.5t120 -112.5t41 -165q0 -88 -46.5 -154.5
t-136.5 -108t-217 -41.5h-158q-167 0 -261.5 67.5t-94.5 190.5q0 66 41.5 126t121.5 104q-43 21 -70.5 59.5t-27.5 83.5q0 54 34.5 103t86.5 85q-78 43 -122 114t-44 157zM291 685v-51q0 -77 48.5 -128t140.5 -51q91 0 139.5 51.5t48.5 127.5v41q0 76 -48 129.5t-140 53.5
q-90 0 -139.5 -50.5t-49.5 -122.5zM591 -20h-225q-46 -23 -79.5 -64t-33.5 -92q0 -57 45.5 -91t142.5 -34h110q116 0 165 31.5t49 104.5q0 145 -174 145zM181 1435h182q2 -57 28 -94t84 -37q49 0 79 32t33 99h181q0 -137 -79 -217.5t-214 -80.5t-214.5 80.5t-79.5 217.5z
" />
    <glyph glyph-name="Gdotaccent" unicode="&#x120;" horiz-adv-x="1108" 
d="M1012 663v-605q-75 -34 -185.5 -56t-221.5 -22q-158 0 -275.5 65t-170.5 168.5t-53 226.5v456q0 129 55.5 236.5t182 174.5t299.5 67q193 0 352 -65l-40 -191q-56 20 -137 36.5t-152 16.5q-157 0 -243 -76.5t-86 -214.5v-429q0 -134 76.5 -202t219.5 -68q94 0 169 22v460
h210zM477 1645q0 60 33 92t95 32q61 0 94.5 -32t33.5 -92t-33.5 -92t-94.5 -32t-94.5 32t-33.5 92z" />
    <glyph glyph-name="gdotaccent" unicode="&#x121;" horiz-adv-x="983" 
d="M79 619v71q0 50 19.5 105.5t66 104t120 82.5t168.5 34q129 0 196.5 -76.5t75.5 -201.5q9 146 -27 278l203 -20q36 -339 -70.5 -521t-351.5 -182q-59 0 -106 10q-63 -47 -63 -92q0 -27 19.5 -42.5t53.5 -15.5h239q111 0 190 -42.5t120 -112.5t41 -165q0 -88 -46.5 -154.5
t-136.5 -108t-217 -41.5h-158q-167 0 -261.5 67.5t-94.5 190.5q0 66 41.5 126t121.5 104q-43 21 -70.5 59.5t-27.5 83.5q0 54 34.5 103t86.5 85q-78 43 -122 114t-44 157zM291 685v-51q0 -77 48.5 -128t140.5 -51q91 0 139.5 51.5t48.5 127.5v41q0 76 -48 129.5t-140 53.5
q-90 0 -139.5 -50.5t-49.5 -122.5zM591 -20h-225q-46 -23 -79.5 -64t-33.5 -92q0 -57 45.5 -91t142.5 -34h110q116 0 165 31.5t49 104.5q0 145 -174 145zM350 1287q0 60 33 92t95 32q61 0 94.5 -32t33.5 -92t-33.5 -92.5t-94.5 -32.5t-94.5 32.5t-33.5 92.5z" />
    <glyph glyph-name="Gcommaaccent" unicode="&#x122;" horiz-adv-x="1108" 
d="M1012 663v-605q-75 -34 -185.5 -56t-221.5 -22q-158 0 -275.5 65t-170.5 168.5t-53 226.5v456q0 129 55.5 236.5t182 174.5t299.5 67q193 0 352 -65l-40 -191q-56 20 -137 36.5t-152 16.5q-157 0 -243 -76.5t-86 -214.5v-429q0 -134 76.5 -202t219.5 -68q94 0 169 22v460
h210zM506 -98h209l-3 -60q-2 -100 -40 -202t-97 -165h-156q35 70 61 163t26 182v82z" />
    <glyph glyph-name="gcommaaccent" unicode="&#x123;" horiz-adv-x="983" 
d="M79 619v71q0 50 19.5 105.5t66 104t120 82.5t168.5 34q129 0 196.5 -76.5t75.5 -201.5q9 146 -27 278l203 -20q36 -339 -70.5 -521t-351.5 -182q-59 0 -106 10q-63 -47 -63 -92q0 -27 19.5 -42.5t53.5 -15.5h239q111 0 190 -42.5t120 -112.5t41 -165q0 -88 -46.5 -154.5
t-136.5 -108t-217 -41.5h-158q-167 0 -261.5 67.5t-94.5 190.5q0 66 41.5 126t121.5 104q-43 21 -70.5 59.5t-27.5 83.5q0 54 34.5 103t86.5 85q-78 43 -122 114t-44 157zM291 685v-51q0 -77 48.5 -128t140.5 -51q91 0 139.5 51.5t48.5 127.5v41q0 76 -48 129.5t-140 53.5
q-90 0 -139.5 -50.5t-49.5 -122.5zM591 -20h-225q-46 -23 -79.5 -64t-33.5 -92q0 -57 45.5 -91t142.5 -34h110q116 0 165 31.5t49 104.5q0 145 -174 145zM567 1140h-209l2 60q2 100 40.5 202.5t97.5 164.5h155q-34 -70 -60 -163t-26 -182v-82z" />
    <glyph glyph-name="Hcircumflex" unicode="&#x124;" horiz-adv-x="1313" 
d="M1160 0h-231v578h-545v-578h-231v1354h231v-571h545v571h231v-1354zM341 1484l213 340h205l213 -340l-198 -16l-117 209l-118 -209z" />
    <glyph glyph-name="hcircumflex" unicode="&#x125;" horiz-adv-x="1126" 
d="M151 1444h219v-553q175 125 336 125q132 0 205.5 -73.5t73.5 -209.5v-733h-225v665q0 143 -137 143q-53 0 -120 -24.5t-127 -67.5v-716h-225v1444zM-51 1500l213 339h204l213 -339l-197 -17l-118 209l-117 -209z" />
    <glyph glyph-name="Hbar" unicode="&#x126;" horiz-adv-x="1353" 
d="M39 983v149h134v222h231v-222h545v222h231v-222h134v-149h-134v-983h-231v578h-545v-578h-231v983h-134zM404 783h545v200h-545v-200z" />
    <glyph glyph-name="hbar" unicode="&#x127;" horiz-adv-x="1146" 
d="M171 1444h219v-140h299v-148h-299v-265q175 125 336 125q132 0 205.5 -73.5t73.5 -209.5v-733h-225v665q0 143 -137 143q-53 0 -120 -24.5t-127 -67.5v-716h-225v1156h-130v148h130v140z" />
    <glyph glyph-name="Itilde" unicode="&#x128;" horiz-adv-x="537" 
d="M384 1354v-1354h-231v1354h231zM150 1764q44 0 122 -30.5t112 -30.5q59 0 114 69l110 -78q-12 -29 -39.5 -70.5t-75 -74t-105.5 -32.5q-44 0 -122 30.5t-112 30.5q-59 0 -114 -68l-110 77q33 81 92.5 129t127.5 48z" />
    <glyph glyph-name="itilde" unicode="&#x129;" horiz-adv-x="494" 
d="M135 996h224v-996h-224v996zM128 1406q44 0 122 -30.5t112 -30.5q58 0 115 69l109 -78q-12 -29 -39.5 -70.5t-75 -74t-105.5 -32.5q-44 0 -121.5 30.5t-111.5 30.5q-60 0 -115 -68l-109 77q33 81 92.5 129t126.5 48z" />
    <glyph glyph-name="Imacron" unicode="&#x12a;" horiz-adv-x="537" 
d="M384 1354v-1354h-231v1354h231zM-22 1553v177h582v-177h-582z" />
    <glyph glyph-name="imacron" unicode="&#x12b;" horiz-adv-x="494" 
d="M135 996h224v-996h-224v996zM-44 1195v177h582v-177h-582z" />
    <glyph glyph-name="Ibreve" unicode="&#x12c;" horiz-adv-x="537" 
d="M384 1354v-1354h-231v1354h231zM-25 1793h182q2 -57 28 -94t84 -37q49 0 79 32t32 99h182q0 -136 -79 -217t-214 -81t-214.5 81t-79.5 217z" />
    <glyph glyph-name="ibreve" unicode="&#x12d;" horiz-adv-x="494" 
d="M135 996h224v-996h-224v996zM-47 1435h182q2 -57 28 -94t84 -37q49 0 79 32t32 99h182q0 -137 -79 -217.5t-214 -80.5t-214.5 80.5t-79.5 217.5z" />
    <glyph glyph-name="Iogonek" unicode="&#x12e;" horiz-adv-x="537" 
d="M384 1354v-1354q-177 -119 -177 -226q0 -38 24 -59t66 -21q57 0 97 14l17 -155q-43 -13 -80 -17q-34 -4 -80 -2q-99 3 -161.5 50.5t-62.5 139.5q0 68 51.5 140t152.5 136h-78v1354h231z" />
    <glyph glyph-name="iogonek" unicode="&#x12f;" horiz-adv-x="494" 
d="M135 996h224v-996q-177 -119 -177 -226q0 -38 24 -59t66 -21q57 0 97 14l16 -155q-60 -21 -137 -21q-110 0 -178 47.5t-68 144.5q0 68 51.5 140t152.5 136h-71v996zM119 1287q0 60 33 92t95 32q61 0 94.5 -32t33.5 -92t-33.5 -92.5t-94.5 -32.5t-94.5 32.5t-33.5 92.5z
" />
    <glyph glyph-name="Idotaccent" unicode="&#x130;" horiz-adv-x="537" 
d="M384 1354v-1354h-231v1354h231zM141 1645q0 60 33 92t95 32q61 0 94.5 -32t33.5 -92t-33.5 -92t-94.5 -32t-94.5 32t-33.5 92z" />
    <glyph glyph-name="dotlessi" unicode="&#x131;" horiz-adv-x="494" 
d="M135 996h224v-996h-224v996z" />
    <glyph glyph-name="IJ" unicode="&#x132;" horiz-adv-x="1075" 
d="M384 1354v-1354h-231v1354h231zM690 1354h232v-1360q0 -149 -71.5 -256.5t-257.5 -204.5l-101 149q112 74 155 147t43 179v1346z" />
    <glyph glyph-name="ij" unicode="&#x133;" horiz-adv-x="1054" 
d="M678 996h225v-1002q0 -150 -70.5 -258.5t-253.5 -203.5l-102 150q127 84 164 159t37 167v988zM151 996h225v-996h-225v996zM663 1288q0 60 33 91.5t94 31.5q62 0 95 -31.5t33 -91.5t-33.5 -92.5t-94.5 -32.5t-94 32.5t-33 92.5zM136 1288q0 60 33 91.5t94 31.5
q62 0 95 -31.5t33 -91.5t-33.5 -92.5t-94.5 -32.5t-94 32.5t-33 92.5z" />
    <glyph glyph-name="Jcircumflex" unicode="&#x134;" horiz-adv-x="538" 
d="M153 1354h232v-1360q0 -149 -71.5 -256.5t-257.5 -204.5l-101 149q112 74 155 147t43 179v1346zM-46 1484l213 340h205l213 -340l-198 -16l-118 209l-117 -209z" />
    <glyph glyph-name="jcircumflex" unicode="&#x135;" horiz-adv-x="510" 
d="M143 996h224v-1002q0 -150 -70.5 -258.5t-253.5 -203.5l-101 150q114 76 157.5 148t43.5 178v988zM-60 1126l213 340h205l213 -340l-198 -16l-118 209l-117 -209z" />
    <glyph glyph-name="Kcommaaccent" unicode="&#x136;" horiz-adv-x="1133" 
d="M838 1354h252l-344 -685l362 -669h-257l-303 582h-164v-582h-231v1354h231v-570h179zM496 -98h209l-3 -60q-2 -100 -40.5 -202t-97.5 -165h-155q35 70 61 163t26 182v82z" />
    <glyph glyph-name="kcommaaccent" unicode="&#x137;" horiz-adv-x="1030" 
d="M151 1444h225v-844h127l227 396h250l-300 -489l312 -507h-250l-240 420h-126v-420h-225v1444zM434 -98h209l-2 -57q-2 -101 -40.5 -204.5t-97.5 -165.5h-155q34 71 60 163.5t26 181.5v82z" />
    <glyph glyph-name="kgreenlandic" unicode="&#x138;" horiz-adv-x="1030" 
d="M151 996h225v-396h127l227 396h250l-300 -489l312 -507h-250l-240 419h-126v-419h-225v996z" />
    <glyph glyph-name="Lacute" unicode="&#x139;" horiz-adv-x="962" 
d="M384 1354v-1152h541v-202h-772v1354h231zM257 1447l-124 71l262 339l184 -109z" />
    <glyph glyph-name="lacute" unicode="&#x13a;" horiz-adv-x="527" 
d="M151 1444h225v-1444h-225v1444zM236 1545l-123 71l262 339l183 -109z" />
    <glyph glyph-name="Lcommaaccent" unicode="&#x13b;" horiz-adv-x="962" 
d="M384 1354v-1152h541v-202h-772v1354h231zM446 -98h209l-3 -60q-2 -100 -40 -202t-97 -165h-156q35 70 61 163t26 182v82z" />
    <glyph glyph-name="lcommaaccent" unicode="&#x13c;" horiz-adv-x="527" 
d="M151 1444h225v-1444h-225v1444zM160 -98h209l-3 -60q-2 -100 -40 -202t-97 -165h-156q35 70 61 163t26 182v82z" />
    <glyph glyph-name="Lcaron" unicode="&#x13d;" horiz-adv-x="962" 
d="M619 1444h201l-13 -522h-175zM384 1354v-1152h541v-202h-772v1354h231z" />
    <glyph glyph-name="lcaron" unicode="&#x13e;" horiz-adv-x="725" 
d="M525 1444h200l-12 -522h-176zM151 1444h225v-1444h-225v1444z" />
    <glyph glyph-name="Ldot" unicode="&#x13f;" horiz-adv-x="973" 
d="M384 1354v-1152h541v-202h-772v1354h231zM602 722q0 60 33 92t95 32q61 0 94.5 -32t33.5 -92t-33.5 -92t-94.5 -32t-94.5 32t-33.5 92z" />
    <glyph glyph-name="ldot" unicode="&#x140;" horiz-adv-x="780" 
d="M151 1444h225v-1444h-225v1444zM509 721q0 60 33.5 92.5t94.5 32.5t94.5 -32.5t33.5 -92.5t-33.5 -92t-94.5 -32t-94.5 32t-33.5 92z" />
    <glyph glyph-name="Lslash" unicode="&#x141;" horiz-adv-x="995" 
d="M406 1354v-502l269 128l64 -134l-333 -158v-486h541v-202h-772v578l-126 -59l-64 134l190 90v611h231z" />
    <glyph glyph-name="lslash" unicode="&#x142;" horiz-adv-x="578" 
d="M177 1444h224v-549l141 82l74 -129l-215 -124v-724h-224v595l-140 -81l-75 128l215 124v678z" />
    <glyph glyph-name="Nacute" unicode="&#x143;" horiz-adv-x="1317" 
d="M928 0l-547 962v-962h-228v1354h236l547 -962v962h228v-1354h-236zM650 1447l-124 71l262 339l184 -109z" />
    <glyph glyph-name="nacute" unicode="&#x144;" horiz-adv-x="1126" 
d="M151 996h190l14 -114q186 134 351 134q132 0 205.5 -73.5t73.5 -209.5v-733h-225v665q0 143 -137 143q-53 0 -120 -24.5t-127 -67.5v-716h-225v996zM521 1089l-124 70l262 339l183 -109z" />
    <glyph glyph-name="Ncommaaccent" unicode="&#x145;" horiz-adv-x="1317" 
d="M928 0l-547 962v-962h-228v1354h236l547 -962v962h228v-1354h-236zM595 -98h209l-2 -60q-3 -100 -41 -202t-97 -165h-155q34 71 60 163.5t26 181.5v82z" />
    <glyph glyph-name="ncommaaccent" unicode="&#x146;" horiz-adv-x="1126" 
d="M151 996h190l14 -114q186 134 351 134q132 0 205.5 -73.5t73.5 -209.5v-733h-225v665q0 143 -137 143q-53 0 -120 -24.5t-127 -67.5v-716h-225v996zM463 -98h209l-2 -60q-3 -100 -41 -202t-97 -165h-155q34 71 60 163.5t26 181.5v82z" />
    <glyph glyph-name="Ncaron" unicode="&#x147;" horiz-adv-x="1317" 
d="M928 0l-547 962v-962h-228v1354h236l547 -962v962h228v-1354h-236zM980 1816l-221 -340h-205l-221 340l198 16l125 -208l126 208z" />
    <glyph glyph-name="ncaron" unicode="&#x148;" horiz-adv-x="1126" 
d="M151 996h190l14 -114q186 134 351 134q132 0 205.5 -73.5t73.5 -209.5v-733h-225v665q0 143 -137 143q-53 0 -120 -24.5t-127 -67.5v-716h-225v996zM878 1458l-221 -340h-205l-221 340l198 16l125 -209l126 209z" />
    <glyph glyph-name="napostrophe" unicode="&#x149;" horiz-adv-x="1126" 
d="M151 996h190l14 -114q186 134 351 134q132 0 205.5 -73.5t73.5 -209.5v-733h-225v665q0 143 -137 143q-53 0 -120 -24.5t-127 -67.5v-716h-225v996zM84 1583h205v-55q0 -219 -118 -394h-151q26 66 45 165t19 196v88z" />
    <glyph glyph-name="Eng" unicode="&#x14a;" horiz-adv-x="1313" 
d="M388 1354l546 -964v964h226v-1360q0 -149 -70 -256.5t-253 -204.5l-101 149q124 82 160.5 157.5t37.5 166.5l-13 36l-542 929v-971h-226v1354h235z" />
    <glyph glyph-name="eng" unicode="&#x14b;" horiz-adv-x="1126" 
d="M151 996h190l14 -114q186 134 351 134q132 0 205.5 -73.5t73.5 -209.5v-739q0 -150 -70.5 -258.5t-253.5 -203.5l-101 150q126 85 163 159.5t37 166.5v657q0 143 -137 143q-53 0 -120 -24.5t-127 -67.5v-716h-225v996z" />
    <glyph glyph-name="Omacron" unicode="&#x14c;" horiz-adv-x="1216" 
d="M106 435v484q0 123 52.5 225.5t170.5 166t279 63.5t279 -63.5t170.5 -166t52.5 -225.5v-484q0 -123 -52.5 -225.5t-170.5 -166t-279 -63.5t-279 63.5t-170.5 166t-52.5 225.5zM337 914v-447q0 -136 69 -216.5t202 -80.5t202 80.5t69 216.5v420q0 135 -69 215.5t-202 80.5
q-129 0 -200 -71.5t-71 -197.5zM317 1553v177h582v-177h-582z" />
    <glyph glyph-name="omacron" unicode="&#x14d;" horiz-adv-x="1088" 
d="M105 385v226q0 72 22.5 144.5t76 130t139 94t201.5 36.5q92 0 172.5 -26t140 -77.5t93 -128t33.5 -173.5v-226q0 -72 -22.5 -144.5t-76 -130t-139 -94t-201.5 -36.5q-92 0 -172.5 26t-140 77.5t-93 128t-33.5 173.5zM329 609v-215q0 -106 55.5 -166.5t159.5 -60.5
q103 0 159 61t56 166v208q0 105 -56 166t-159 61q-102 0 -158.5 -59t-56.5 -161zM253 1195v177h582v-177h-582z" />
    <glyph glyph-name="Obreve" unicode="&#x14e;" horiz-adv-x="1216" 
d="M106 435v484q0 123 52.5 225.5t170.5 166t279 63.5t279 -63.5t170.5 -166t52.5 -225.5v-484q0 -123 -52.5 -225.5t-170.5 -166t-279 -63.5t-279 63.5t-170.5 166t-52.5 225.5zM337 914v-447q0 -136 69 -216.5t202 -80.5t202 80.5t69 216.5v420q0 135 -69 215.5t-202 80.5
q-129 0 -200 -71.5t-71 -197.5zM315 1793h182q2 -56 28 -93.5t83 -37.5q49 0 79 32t33 99h182q0 -136 -79.5 -217t-214.5 -81t-214 81t-79 217z" />
    <glyph glyph-name="obreve" unicode="&#x14f;" horiz-adv-x="1088" 
d="M105 385v226q0 72 22.5 144.5t76 130t139 94t201.5 36.5q92 0 172.5 -26t140 -77.5t93 -128t33.5 -173.5v-226q0 -72 -22.5 -144.5t-76 -130t-139 -94t-201.5 -36.5q-92 0 -172.5 26t-140 77.5t-93 128t-33.5 173.5zM329 609v-222q0 -103 56.5 -161.5t158.5 -58.5
t158.5 58.5t56.5 161.5v222q0 102 -56.5 161t-158.5 59t-158.5 -59t-56.5 -161zM244 1435h182q2 -56 28 -93.5t83 -37.5q49 0 79 32t33 99h182q0 -137 -79.5 -217.5t-214.5 -80.5q-134 0 -213.5 80.5t-79.5 217.5z" />
    <glyph glyph-name="Ohungarumlaut" unicode="&#x150;" horiz-adv-x="1216" 
d="M106 435v484q0 123 52.5 225.5t170.5 166t279 63.5t279 -63.5t170.5 -166t52.5 -225.5v-484q0 -123 -52.5 -225.5t-170.5 -166t-279 -63.5t-279 63.5t-170.5 166t-52.5 225.5zM337 914v-447q0 -136 69 -216.5t202 -80.5t202 80.5t69 216.5v420q0 135 -69 215.5t-202 80.5
q-129 0 -200 -71.5t-71 -197.5zM488 1455l-138 35l124 390l202 -57zM808 1455l-138 39l156 382l207 -65z" />
    <glyph glyph-name="ohungarumlaut" unicode="&#x151;" horiz-adv-x="1088" 
d="M105 385v226q0 72 22.5 144.5t76 130t139 94t201.5 36.5q92 0 172.5 -26t140 -77.5t93 -128t33.5 -173.5v-226q0 -72 -22.5 -144.5t-76 -130t-139 -94t-201.5 -36.5q-92 0 -172.5 26t-140 77.5t-93 128t-33.5 173.5zM329 609v-222q0 -103 56.5 -161.5t158.5 -58.5
t158.5 58.5t56.5 161.5v222q0 102 -56.5 161t-158.5 59t-158.5 -59t-56.5 -161zM415 1097l-139 35l124 390l203 -58zM734 1097l-137 38l155 383l207 -65z" />
    <glyph glyph-name="OE" unicode="&#x152;" horiz-adv-x="1659" 
d="M825 0v59q-103 -79 -234 -79q-155 0 -269 63.5t-165 166t-51 225.5v484q0 123 51 225.5t165 166t269 63.5q141 0 234 -77v57h757v-201h-542v-374h522v-194h-522v-384h563v-201h-778zM598 170q71 0 126.5 26t88.5 73v815q-71 99 -215 99q-130 0 -196 -79t-66 -213v-428
q0 -135 66 -214t196 -79z" />
    <glyph glyph-name="oe" unicode="&#x153;" horiz-adv-x="1569" 
d="M542 1016q158 0 273 -90q109 90 259 90q83 0 156.5 -27.5t128 -81t84.5 -131.5t30 -174v-76l-2 -94h-581v-45q0 -104 61.5 -160t178.5 -56q141 0 304 40l19 -181q-160 -50 -345 -50q-83 0 -158.5 24t-129.5 68q-54 -44 -127 -68t-151 -24q-135 0 -231.5 51t-148.5 135
t-56 199l-1 89v88l1 89q4 115 56 199t148.5 135t231.5 51zM674 385v215q0 86 29 162q-56 67 -161 67q-103 0 -159 -62.5t-56 -167.5v-202q0 -107 55.5 -168.5t159.5 -61.5q107 0 162 67q-30 68 -30 151zM890 615v-43h369v39q0 223 -185 223q-184 0 -184 -219z" />
    <glyph glyph-name="Racute" unicode="&#x154;" horiz-adv-x="1157" 
d="M153 1354h462q92 0 175 -26t146 -77.5t98.5 -128.5t35.5 -174v-69q0 -140 -69 -236t-184 -140l265 -503h-253l-233 466h-212v-466h-231v1354zM603 1165h-219v-515h219q111 0 174 60.5t63 173.5v50q0 111 -62.5 171t-174.5 60zM511 1447l-124 71l262 339l184 -109z" />
    <glyph glyph-name="racute" unicode="&#x155;" horiz-adv-x="724" 
d="M151 996h187l17 -146q64 64 156.5 114.5t174.5 51.5l3 -220q-77 -5 -164.5 -44t-148.5 -93v-659h-225v996zM318 1089l-124 70l262 339l183 -109z" />
    <glyph glyph-name="Rcommaaccent" unicode="&#x156;" horiz-adv-x="1157" 
d="M153 1354h462q92 0 175 -26t146 -77.5t98.5 -128.5t35.5 -174v-69q0 -140 -69 -236t-184 -140l265 -503h-253l-233 466h-212v-466h-231v1354zM603 1165h-219v-515h219q111 0 174 60.5t63 173.5v50q0 111 -62.5 171t-174.5 60zM489 -98h209l-3 -60q-2 -100 -40 -202
t-97 -165h-156q35 70 61 163t26 182v82z" />
    <glyph glyph-name="rcommaaccent" unicode="&#x157;" horiz-adv-x="724" 
d="M151 996h187l17 -146q64 64 156.5 114.5t174.5 51.5l3 -220q-77 -5 -164.5 -44t-148.5 -93v-659h-225v996zM161 -98h209l-3 -60q-2 -100 -40 -202t-97 -165h-156q35 70 61 163t26 182v82z" />
    <glyph glyph-name="Rcaron" unicode="&#x158;" horiz-adv-x="1157" 
d="M153 1354h462q92 0 175 -26t146 -77.5t98.5 -128.5t35.5 -174v-69q0 -140 -69 -236t-184 -140l265 -503h-253l-233 466h-212v-466h-231v1354zM603 1165h-219v-515h219q111 0 174 60.5t63 173.5v50q0 111 -62.5 171t-174.5 60zM865 1816l-221 -340h-205l-221 340l198 16
l126 -208l125 208z" />
    <glyph glyph-name="rcaron" unicode="&#x159;" horiz-adv-x="724" 
d="M151 996h187l17 -146q64 64 156.5 114.5t174.5 51.5l3 -220q-77 -5 -164.5 -44t-148.5 -93v-659h-225v996zM747 1458l-221 -340h-205l-221 340l198 16l126 -209l125 209z" />
    <glyph glyph-name="Sacute" unicode="&#x15a;" horiz-adv-x="1001" 
d="M932 366q0 -189 -117 -287.5t-345 -98.5q-226 0 -397 63l33 198q173 -56 330 -56q149 0 208.5 44.5t59.5 133.5q0 85 -52.5 130t-191 91t-145.5 48q-229 77 -229 352q0 60 19.5 125.5t76.5 131.5t148.5 99.5t190.5 33.5q186 0 356 -52l-29 -200q-151 48 -301 48
q-111 0 -174 -46t-63 -130q0 -70 30.5 -114t133.5 -78l160 -52q153 -50 225.5 -138.5t72.5 -245.5zM469 1447l-124 71l262 339l184 -109z" />
    <glyph glyph-name="sacute" unicode="&#x15b;" horiz-adv-x="838" 
d="M770 272q0 -147 -94 -219.5t-271 -72.5q-75 0 -169 12.5t-159 38.5l30 171q45 -16 121 -30.5t146 -14.5q98 0 142.5 22t44.5 84q0 67 -46.5 99t-183.5 66q-148 37 -199.5 106.5t-51.5 190.5q0 128 96 209.5t264 81.5q157 0 291 -36l-24 -174q-125 33 -243 33
q-87 0 -132 -26.5t-45 -88.5q0 -53 34.5 -82.5t174.5 -64.5q153 -38 213.5 -104.5t60.5 -200.5zM345 1089l-123 70l262 339l183 -109z" />
    <glyph glyph-name="Scircumflex" unicode="&#x15c;" horiz-adv-x="1001" 
d="M932 366q0 -189 -117 -287.5t-345 -98.5q-226 0 -397 63l33 198q173 -56 330 -56q149 0 208.5 44.5t59.5 133.5q0 85 -52.5 130t-191 91t-145.5 48q-229 77 -229 352q0 60 19.5 125.5t76.5 131.5t148.5 99.5t190.5 33.5q186 0 356 -52l-29 -200q-151 48 -301 48
q-111 0 -174 -46t-63 -130q0 -70 30.5 -114t133.5 -78l160 -52q153 -50 225.5 -138.5t72.5 -245.5zM207 1484l212 340h205l213 -340l-198 -16l-117 209l-118 -209z" />
    <glyph glyph-name="scircumflex" unicode="&#x15d;" horiz-adv-x="838" 
d="M770 272q0 -147 -94 -219.5t-271 -72.5q-75 0 -169 12.5t-159 38.5l30 171q45 -16 121 -30.5t146 -14.5q98 0 142.5 22t44.5 84q0 67 -46.5 99t-183.5 66q-148 37 -199.5 106.5t-51.5 190.5q0 128 96 209.5t264 81.5q157 0 291 -36l-24 -174q-125 33 -243 33
q-87 0 -132 -26.5t-45 -88.5q0 -53 34.5 -82.5t174.5 -64.5q153 -38 213.5 -104.5t60.5 -200.5zM105 1126l213 340h205l213 -340l-198 -16l-117 209l-118 -209z" />
    <glyph glyph-name="Scedilla" unicode="&#x15e;" horiz-adv-x="1001" 
d="M932 366q0 -177 -104 -275.5t-308 -108.5l-11 -86q86 -9 136 -54t50 -127q0 -45 -25 -84t-88 -69t-162 -30q-76 0 -132 14l18 141q33 -11 91 -11q53 0 85.5 17t32.5 51q0 32 -27.5 49.5t-74.5 17.5h-60l40 172q-188 9 -320 60l33 198q173 -56 330 -56q149 0 208.5 44
t59.5 134q0 28 -10 64.5t-47 67.5t-90.5 53.5t-133 48t-105.5 34.5q-122 41 -177.5 134t-55.5 239q2 77 34 145t89.5 118.5t138 78.5t174.5 28q186 0 356 -52l-29 -200q-151 48 -301 48q-110 0 -173.5 -46.5t-63.5 -129.5q0 -70 30.5 -114t133.5 -78l160 -52
q153 -50 225.5 -138.5t72.5 -245.5z" />
    <glyph glyph-name="scedilla" unicode="&#x15f;" horiz-adv-x="838" 
d="M770 272q0 -277 -330 -291l-11 -85q86 -9 136.5 -54t50.5 -127q0 -45 -25 -84t-88 -69t-162 -30q-77 0 -133 14l18 141q35 -11 92 -11q53 0 85 17t32 51q0 32 -27 49.5t-74 17.5h-60l40 173q-55 4 -122.5 16t-114.5 31l30 171q45 -16 121 -30.5t146 -14.5q98 0 142.5 22
t44.5 84q0 67 -46.5 99.5t-183.5 65.5q-152 39 -202.5 108t-50.5 192q0 127 98.5 207.5t263.5 80.5q157 0 291 -36l-24 -174q-125 33 -243 33q-87 0 -132 -26.5t-45 -88.5q0 -53 34.5 -82.5t174.5 -64.5q153 -38 213.5 -104.5t60.5 -200.5z" />
    <glyph glyph-name="Scaron" unicode="&#x160;" horiz-adv-x="1001" 
d="M932 366q0 -189 -117 -287.5t-345 -98.5q-226 0 -397 63l33 198q173 -56 330 -56q149 0 208.5 44.5t59.5 133.5q0 85 -52.5 130t-191 91t-145.5 48q-229 77 -229 352q0 60 19.5 125.5t76.5 131.5t148.5 99.5t190.5 33.5q186 0 356 -52l-29 -200q-151 48 -301 48
q-111 0 -174 -46t-63 -130q0 -70 30.5 -114t133.5 -78l160 -52q153 -50 225.5 -138.5t72.5 -245.5zM829 1816l-222 -340h-204l-221 340l197 16l126 -208l126 208z" />
    <glyph glyph-name="scaron" unicode="&#x161;" horiz-adv-x="838" 
d="M770 272q0 -147 -94 -219.5t-271 -72.5q-75 0 -169 12.5t-159 38.5l30 171q45 -16 121 -30.5t146 -14.5q98 0 142.5 22t44.5 84q0 67 -46.5 99t-183.5 66q-148 37 -199.5 106.5t-51.5 190.5q0 128 96 209.5t264 81.5q157 0 291 -36l-24 -174q-125 33 -243 33
q-87 0 -132 -26.5t-45 -88.5q0 -53 34.5 -82.5t174.5 -64.5q153 -38 213.5 -104.5t60.5 -200.5zM742 1458l-221 -340h-204l-222 340l198 16l126 -209l126 209z" />
    <glyph glyph-name="Tcommaaccent" unicode="&#x162;" horiz-adv-x="1031" 
d="M399 0v1155h-371v199h975v-199h-371v-1155h-69l-13 -104q86 -9 136.5 -54t50.5 -127q0 -45 -25 -84t-88 -69t-162 -30q-77 0 -133 14l18 141q33 -11 91 -11q54 0 86 17t32 51q0 32 -27 49.5t-74 17.5h-61l45 189h-40z" />
    <glyph glyph-name="tcommaaccent" unicode="&#x163;" horiz-adv-x="684" 
d="M24 819v177h149l14 278h201v-278h232v-177h-227v-525q0 -62 27 -93.5t92 -31.5q55 0 128 14l15 -179q-92 -24 -207 -24l-11 -84q86 -9 136.5 -54t50.5 -127q0 -45 -25 -84t-88 -69t-162 -30q-76 0 -132 14l18 141q33 -11 91 -11q52 0 84.5 17t32.5 51q0 32 -27 49.5
t-74 17.5h-60l44 190q-142 52 -150 222q-8 150 -8 596h-144z" />
    <glyph glyph-name="Tcaron" unicode="&#x164;" horiz-adv-x="1031" 
d="M399 0v1155h-371v199h975v-199h-371v-1155h-233zM839 1816l-222 -340h-204l-221 340l197 16l126 -208l126 208z" />
    <glyph glyph-name="tcaron" unicode="&#x165;" horiz-adv-x="722" 
d="M24 819v177h149l14 278h201v-278h232v-177h-227v-525q0 -62 27 -93.5t92 -31.5q55 0 128 14l15 -179q-85 -24 -195 -24q-128 0 -204.5 62t-82.5 188q-5 157 -5 589h-144zM501 1671h201l-13 -522h-175z" />
    <glyph glyph-name="Tbar" unicode="&#x166;" horiz-adv-x="1031" 
d="M213 673v149h186v333h-371v199h975v-199h-371v-333h185v-149h-185v-673h-233v673h-186z" />
    <glyph glyph-name="tbar" unicode="&#x167;" horiz-adv-x="684" 
d="M388 996h232v-177h-227v-194h214v-148h-214v-185q0 -61 27 -92t92 -31q55 0 128 14l15 -179q-85 -24 -195 -24q-132 0 -208.5 64.5t-80.5 195.5l-3 124v113h-137v148h137v194h-144v177h149l14 278h201v-278z" />
    <glyph glyph-name="Utilde" unicode="&#x168;" horiz-adv-x="1260" 
d="M886 1354h231v-943q0 -98 -35 -178.5t-99.5 -137t-155 -86t-197.5 -29.5t-197.5 29.5t-155 86t-99.5 137t-35 178.5v943h231v-943q0 -106 70.5 -171t185.5 -65t185.5 65t70.5 171v943zM511 1764q44 0 122 -30.5t112 -30.5q59 0 114 69l110 -78q-12 -29 -39.5 -70.5
t-75 -74t-105.5 -32.5q-44 0 -122 30.5t-112 30.5q-59 0 -114 -68l-110 77q33 81 92.5 129t127.5 48z" />
    <glyph glyph-name="utilde" unicode="&#x169;" horiz-adv-x="1118" 
d="M967 0h-190l-14 114q-182 -134 -347 -134q-131 0 -203 73t-72 210v733h225v-665q0 -143 133 -143q52 0 118 24t125 67v717h225v-996zM432 1406q44 0 121.5 -30.5t111.5 -30.5q60 0 115 69l109 -78q-33 -81 -92.5 -129t-126.5 -48q-44 0 -122 30.5t-112 30.5
q-58 0 -115 -68l-109 77q12 29 39 70.5t74.5 74t106.5 32.5z" />
    <glyph glyph-name="Umacron" unicode="&#x16a;" horiz-adv-x="1260" 
d="M886 1354h231v-943q0 -98 -35 -178.5t-99.5 -137t-155 -86t-197.5 -29.5t-197.5 29.5t-155 86t-99.5 137t-35 178.5v943h231v-943q0 -106 70.5 -171t185.5 -65t185.5 65t70.5 171v943zM339 1553v177h582v-177h-582z" />
    <glyph glyph-name="umacron" unicode="&#x16b;" horiz-adv-x="1118" 
d="M967 0h-190l-14 114q-182 -134 -347 -134q-131 0 -203 73t-72 210v733h225v-665q0 -143 133 -143q52 0 118 24t125 67v717h225v-996zM267 1195v177h583v-177h-583z" />
    <glyph glyph-name="Ubreve" unicode="&#x16c;" horiz-adv-x="1260" 
d="M886 1354h231v-943q0 -98 -35 -178.5t-99.5 -137t-155 -86t-197.5 -29.5t-197.5 29.5t-155 86t-99.5 137t-35 178.5v943h231v-943q0 -106 70.5 -171t185.5 -65t185.5 65t70.5 171v943zM337 1793h182q2 -56 28 -93.5t83 -37.5q49 0 79 32t33 99h182q0 -136 -79.5 -217
t-214.5 -81t-214 81t-79 217z" />
    <glyph glyph-name="ubreve" unicode="&#x16d;" horiz-adv-x="1118" 
d="M967 0h-190l-14 114q-182 -134 -347 -134q-131 0 -203 73t-72 210v733h225v-665q0 -143 133 -143q52 0 118 24t125 67v717h225v-996zM265 1435h182q2 -56 28 -93.5t83 -37.5q49 0 79 32t33 99h182q0 -137 -79.5 -217.5t-214.5 -80.5q-134 0 -213.5 80.5t-79.5 217.5z" />
    <glyph glyph-name="Uring" unicode="&#x16e;" horiz-adv-x="1260" 
d="M886 1354h231v-943q0 -98 -35 -178.5t-99.5 -137t-155 -86t-197.5 -29.5t-197.5 29.5t-155 86t-99.5 137t-35 178.5v943h231v-943q0 -106 70.5 -171t185.5 -65t185.5 65t70.5 171v943zM387 1661q0 99 68 161.5t175 62.5q106 0 174.5 -62t68.5 -158q0 -98 -68.5 -160.5
t-176.5 -62.5q-105 0 -173 61.5t-68 157.5zM534 1665q0 -38 27 -64t68 -26t68.5 24.5t27.5 62.5q0 39 -27.5 65.5t-68.5 26.5t-68 -25.5t-27 -63.5z" />
    <glyph glyph-name="uring" unicode="&#x16f;" horiz-adv-x="1118" 
d="M967 0h-190l-14 114q-182 -134 -347 -134q-131 0 -203 73t-72 210v733h225v-665q0 -143 133 -143q52 0 118 24t125 67v717h225v-996zM326 1303q0 99 68 161.5t175 62.5q106 0 174.5 -62t68.5 -158q0 -99 -68.5 -161t-176.5 -62q-106 0 -173.5 61.5t-67.5 157.5zM473 1307
q0 -39 27.5 -65t67.5 -26q41 0 69 25t28 63q0 39 -27.5 65t-68.5 26t-68.5 -25t-27.5 -63z" />
    <glyph glyph-name="Uhungarumlaut" unicode="&#x170;" horiz-adv-x="1260" 
d="M886 1354h231v-943q0 -98 -35 -178.5t-99.5 -137t-155 -86t-197.5 -29.5t-197.5 29.5t-155 86t-99.5 137t-35 178.5v943h231v-943q0 -106 70.5 -171t185.5 -65t185.5 65t70.5 171v943zM507 1455l-138 35l123 390l203 -57zM827 1455l-138 39l156 382l206 -65z" />
    <glyph glyph-name="uhungarumlaut" unicode="&#x171;" horiz-adv-x="1118" 
d="M778 1518l207 -65l-224 -356l-139 38zM141 263v733h225v-665q0 -143 133 -143q52 0 118 24t125 67v717h225v-996h-190l-14 114q-182 -134 -347 -134q-131 0 -203 73t-72 210zM426 1522l203 -58l-188 -367l-139 35z" />
    <glyph glyph-name="Uogonek" unicode="&#x172;" horiz-adv-x="1260" 
d="M886 1354h231v-943q0 -158 -86 -265t-236 -146q-176 -118 -176 -226q0 -38 23.5 -59t65.5 -21q57 0 97 14l17 -155q-61 -21 -138 -21q-110 0 -177.5 47.5t-67.5 144.5q0 63 43 129t131 128q-104 2 -191 32.5t-149.5 86.5t-96 135.5t-33.5 175.5v943h231v-943
q0 -106 70.5 -171t185.5 -65t185.5 65t70.5 171v943z" />
    <glyph glyph-name="uogonek" unicode="&#x173;" horiz-adv-x="1118" 
d="M967 0q-177 -117 -177 -226q0 -38 23.5 -59t65.5 -21q58 0 98 14l16 -155q-61 -21 -138 -21q-110 0 -177.5 47.5t-67.5 144.5q0 68 51.5 140t151.5 136h-36l-14 114q-182 -134 -347 -134q-131 0 -203 73t-72 210v733h225v-665q0 -143 133 -143q52 0 118 24t125 67v717
h225v-996z" />
    <glyph glyph-name="Wcircumflex" unicode="&#x174;" horiz-adv-x="1789" 
d="M1511 1354h246l-331 -1354h-309l-223 981l-222 -981h-309l-331 1354h246l255 -1109l244 1089h235l245 -1089zM579 1484l213 340h204l213 -340l-198 -16l-117 209l-117 -209z" />
    <glyph glyph-name="wcircumflex" unicode="&#x175;" horiz-adv-x="1507" 
d="M1247 996h233l-278 -996h-266l-183 654l-181 -654h-266l-279 996h233l196 -771l205 753h186l204 -753zM438 1126l213 340h205l212 -340l-197 -16l-118 209l-117 -209z" />
    <glyph glyph-name="Ycircumflex" unicode="&#x176;" horiz-adv-x="1133" 
d="M855 1354h241l-414 -864v-490h-231v490l-414 864h241l289 -638zM251 1484l213 340h205l213 -340l-198 -16l-117 209l-118 -209z" />
    <glyph glyph-name="ycircumflex" unicode="&#x177;" horiz-adv-x="1024" 
d="M486 -448h-228l165 448h-68l-334 996h237l245 -791l256 791h240l-350 -996zM193 1126l213 340h205l213 -340l-198 -16l-118 209l-117 -209z" />
    <glyph glyph-name="Ydieresis" unicode="&#x178;" horiz-adv-x="1133" 
d="M855 1354h241l-414 -864v-490h-231v490l-414 864h241l289 -638zM638 1645q0 60 33.5 92t94.5 32q62 0 95 -32t33 -92t-33 -92t-95 -32q-61 0 -94.5 32t-33.5 92zM239 1645q0 60 33.5 92t94.5 32t94.5 -32t33.5 -92t-33.5 -92t-94.5 -32t-94.5 32t-33.5 92z" />
    <glyph glyph-name="Zacute" unicode="&#x179;" horiz-adv-x="1041" 
d="M95 1155v199h845v-177l-608 -978h639v-199h-906v177l607 978h-577zM488 1447l-124 71l262 339l184 -109z" />
    <glyph glyph-name="zacute" unicode="&#x17a;" horiz-adv-x="841" 
d="M83 822v174h690v-163l-462 -658h477v-175h-719v158l458 664h-444zM415 1089l-124 70l262 339l184 -109z" />
    <glyph glyph-name="Zdotaccent" unicode="&#x17b;" horiz-adv-x="1041" 
d="M95 1155v199h845v-177l-608 -978h639v-199h-906v177l607 978h-577zM391 1645q0 60 33 92t95 32q61 0 94.5 -32t33.5 -92t-33.5 -92t-94.5 -32q-62 0 -95 32t-33 92z" />
    <glyph glyph-name="zdotaccent" unicode="&#x17c;" horiz-adv-x="841" 
d="M83 822v174h690v-163l-462 -658h477v-175h-719v158l458 664h-444zM289 1287q0 60 33.5 92t94.5 32q62 0 95 -32t33 -92t-33.5 -92.5t-94.5 -32.5t-94.5 32.5t-33.5 92.5z" />
    <glyph glyph-name="Zcaron" unicode="&#x17d;" horiz-adv-x="1041" 
d="M95 1155v199h845v-177l-608 -978h639v-199h-906v177l607 978h-577zM844 1816l-221 -340h-205l-221 340l198 16l125 -208l126 208z" />
    <glyph glyph-name="zcaron" unicode="&#x17e;" horiz-adv-x="841" 
d="M88 822v174h690v-163l-461 -658h476v-175h-719v158l458 664h-444zM744 1458l-221 -340h-204l-222 340l198 16l126 -209l125 209z" />
    <glyph glyph-name="uni018F" unicode="&#x18f;" horiz-adv-x="1145" 
d="M1038 918v-482q0 -96 -27.5 -173.5t-82.5 -138.5t-149 -102.5t-225 -41.5q-99 0 -173 26t-133 71.5t-105.5 138t-46.5 234.5q0 69 6.5 161t15.5 144h692v142q0 129 -79 202.5t-223 73.5q-47 0 -104.5 -4t-111 -13t-138.5 -29l-39 188q76 24 184.5 41.5t222.5 17.5
q243 0 379.5 -117.5t136.5 -338.5zM552 172q120 0 189 74.5t69 202.5v127h-494l-4 -135q0 -123 62 -196t178 -73z" />
    <glyph glyph-name="florin" unicode="&#x192;" horiz-adv-x="1050" 
d="M187 589v178h200l49 274q59 332 400 332q83 0 164 -21l-41 -180q-88 13 -128 13q-78 0 -119 -39t-59 -143l-41 -236h242v-178h-274l-130 -733q-31 -171 -127.5 -247t-264.5 -76q-80 0 -155 21l43 180q81 -13 120 -13q73 0 112 37.5t56 136.5l122 694h-169z" />
    <glyph glyph-name="uni019D" unicode="&#x19d;" horiz-adv-x="1313" 
d="M926 0l-547 962v-748q0 -128 -6 -251q-7 -137 -76 -237.5t-241 -192.5l-101 149q112 74 155 147t43 179v1346h235l546 -962v962h226v-1354h-234z" />
    <glyph glyph-name="Gcaron" unicode="&#x1e6;" horiz-adv-x="1108" 
d="M1012 663v-605q-75 -34 -185.5 -56t-221.5 -22q-158 0 -275.5 65t-170.5 168.5t-53 226.5v456q0 129 55.5 236.5t182 174.5t299.5 67q193 0 352 -65l-40 -191q-56 20 -137 36.5t-152 16.5q-157 0 -243 -76.5t-86 -214.5v-429q0 -134 76.5 -202t219.5 -68q94 0 169 22v460
h210zM933 1816l-222 -340h-204l-222 340l198 16l126 -208l126 208z" />
    <glyph glyph-name="gcaron" unicode="&#x1e7;" horiz-adv-x="983" 
d="M79 619v71q0 50 19.5 105.5t66 104t120 82.5t168.5 34q129 0 196.5 -76.5t75.5 -201.5q9 146 -27 278l203 -20q36 -339 -70.5 -521t-351.5 -182q-59 0 -106 10q-63 -47 -63 -92q0 -27 19.5 -42.5t53.5 -15.5h239q111 0 190 -42.5t120 -112.5t41 -165q0 -88 -46.5 -154.5
t-136.5 -108t-217 -41.5h-158q-167 0 -261.5 67.5t-94.5 190.5q0 66 41.5 126t121.5 104q-43 21 -70.5 59.5t-27.5 83.5q0 54 34.5 103t86.5 85q-78 43 -122 114t-44 157zM291 685v-51q0 -77 48.5 -128t140.5 -51q91 0 139.5 51.5t48.5 127.5v41q0 76 -48 129.5t-140 53.5
q-90 0 -139.5 -50.5t-49.5 -122.5zM591 -20h-225q-46 -23 -79.5 -64t-33.5 -92q0 -57 45.5 -91t142.5 -34h110q116 0 165 31.5t49 104.5q0 145 -174 145zM797 1458l-221 -340h-204l-222 340l198 16l126 -209l126 209z" />
    <glyph glyph-name="uni01EA" unicode="&#x1ea;" horiz-adv-x="1216" 
d="M106 435v484q0 123 52.5 225.5t170.5 166t279 63.5t279 -63.5t170.5 -166t52.5 -225.5v-484q0 -172 -91.5 -283.5t-244.5 -151.5q-177 -119 -177 -226q0 -38 24 -59t66 -21q57 0 97 14l17 -155q-61 -21 -138 -21q-110 0 -178 47.5t-68 144.5q0 63 43.5 129t131.5 128
q-75 2 -157.5 22t-154.5 70.5t-123 139.5t-51 222zM337 914v-447q0 -136 69 -216.5t202 -80.5t202 80.5t69 216.5v420q0 135 -69 215.5t-202 80.5q-129 0 -200 -71.5t-71 -197.5z" />
    <glyph glyph-name="uni01EB" unicode="&#x1eb;" horiz-adv-x="1088" 
d="M105 385v157l2 89q3 115 55 199t149 135t233 51t233 -51t149 -135t56 -199l1 -89v-157q0 -150 -77 -249t-208 -136h1q-177 -117 -177 -226q0 -38 23.5 -59t65.5 -21q58 0 98 14l16 -155q-61 -21 -138 -21q-110 0 -177.5 47.5t-67.5 144.5q0 63 43 129t131 128
q-133 6 -224.5 60.5t-139 141t-47.5 202.5zM329 609v-215q0 -106 55.5 -166.5t159.5 -60.5q103 0 159 61t56 166v208q0 105 -56 166t-159 61q-102 0 -158.5 -59t-56.5 -161z" />
    <glyph glyph-name="Aringacute" unicode="&#x1fa;" horiz-adv-x="1209" 
d="M1180 0h-246l-90 315h-479l-90 -315h-246l409 1354h333zM604 1174l-190 -670h382zM378 1636q0 94 63 154.5t168 60.5q97 0 159 -59t62 -145q0 -94 -63 -154.5t-169 -60.5q-95 0 -157.5 59t-62.5 145zM516 1639q0 -36 24 -60t61 -24q43 0 67.5 25t24.5 65q0 35 -24 59
t-62 24q-42 0 -66.5 -25t-24.5 -64zM610 1898l-131 50l170 271l199 -83z" />
    <glyph glyph-name="aringacute" unicode="&#x1fb;" horiz-adv-x="1005" 
d="M67 260q0 90 42 154t120.5 102t187.5 38h197v90q0 87 -42.5 132.5t-150.5 45.5q-123 0 -276 -46l-27 184q62 20 153 38t180 18q205 0 293 -93.5t88 -295.5v-377q0 -38 17 -59.5t47 -21.5q32 0 64 8l4 -172q-56 -25 -135 -25q-61 0 -107.5 26.5t-71.5 74.5
q-59 -43 -133.5 -72t-150.5 -29q-135 0 -217 71.5t-82 208.5zM410 144q102 0 204 67v202h-177q-75 0 -116.5 -36t-41.5 -104q0 -64 39 -96.5t92 -32.5zM231 1281q0 94 63 154.5t168 60.5q96 0 158 -58.5t62 -145.5q0 -94 -63 -154t-169 -60q-94 0 -156.5 58.5t-62.5 144.5z
M369 1284q0 -36 23.5 -60t60.5 -24q43 0 67.5 25t24.5 65q0 35 -24 59t-62 24q-41 0 -65.5 -24.5t-24.5 -64.5zM463 1543l-132 50l170 271l200 -82z" />
    <glyph glyph-name="AEacute" unicode="&#x1fc;" horiz-adv-x="1634" 
d="M945 0l-53 306h-485l-132 -306h-246l603 1354h925v-201h-581l70 -374h491v-194h-462l72 -384h431v-201h-633zM756 1127l-274 -631h383zM976 1447l-124 71l262 339l184 -109z" />
    <glyph glyph-name="aeacute" unicode="&#x1fd;" horiz-adv-x="1519" 
d="M67 263q0 89 42 153.5t120.5 103t187.5 38.5h197v86q0 87 -42.5 132.5t-150.5 45.5q-123 0 -276 -46l-27 184q62 20 153 38t180 18q203 0 282 -109q53 53 127.5 81t157.5 28q84 0 158.5 -27.5t129.5 -81t85.5 -131.5t30.5 -174v-80l-2 -99h-591v-36q0 -104 62.5 -160
t181.5 -56q144 0 311 40l19 -181q-167 -50 -351 -50q-106 0 -198 35.5t-152 105.5q-61 -55 -152 -98t-184 -43q-135 0 -217 72.5t-82 210.5zM829 615v-51h377v47q0 223 -188 223q-189 0 -189 -219zM614 382l-4 35h-173q-75 0 -116.5 -36.5t-41.5 -105.5q0 -64 39.5 -97
t97.5 -33q111 0 223 87q-25 67 -25 150zM731 1089l-124 70l262 339l184 -109z" />
    <glyph glyph-name="Oslashacute" unicode="&#x1fe;" horiz-adv-x="1216" 
d="M595 1450l-129 71l254 339l181 -109zM106 435v484q0 123 52.5 225.5t170.5 166t279 63.5q103 0 196 -32l108 251h160l-136 -316q83 -56 128.5 -147.5t45.5 -210.5v-484q0 -123 -52.5 -225.5t-170.5 -166t-279 -63.5q-108 0 -199 32l-107 -250h-160l135 315
q-171 120 -171 358zM337 914v-447q0 -136 69 -216.5t202 -80.5t202 80.5t69 216.5v420q0 135 -69 215.5t-202 80.5q-129 0 -200 -71.5t-71 -197.5z" />
    <glyph glyph-name="oslashacute" unicode="&#x1ff;" horiz-adv-x="1088" 
d="M525 1092l-128 71l253 339l182 -109zM935 1234l-125 -288q82 -51 127.5 -136t45.5 -199v-226q0 -72 -22.5 -144.5t-76 -130t-139 -94t-201.5 -36.5q-73 0 -138 18l-99 -236h-151l122 288q-82 50 -127.5 135t-45.5 200v226q0 120 51 208.5t149 142.5t239 54q76 0 137 -17
l102 235h152zM329 609v-215q0 -106 55.5 -166.5t159.5 -60.5q103 0 159 61t56 166v208q0 105 -56 166t-159 61q-102 0 -158.5 -59t-56.5 -161z" />
    <glyph glyph-name="Scommaaccent" unicode="&#x218;" horiz-adv-x="1001" 
d="M932 366q0 -189 -117 -287.5t-345 -98.5q-226 0 -397 63l33 198q173 -56 330 -56q149 0 208.5 44.5t59.5 133.5q0 85 -52.5 130t-191 91t-145.5 48q-229 77 -229 352q0 60 19.5 125.5t76.5 131.5t148.5 99.5t190.5 33.5q186 0 356 -52l-29 -200q-151 48 -301 48
q-111 0 -174 -46t-63 -130q0 -70 30.5 -114t133.5 -78l160 -52q153 -50 225.5 -138.5t72.5 -245.5zM420 -98h209l-3 -60q-3 -100 -40.5 -202t-96.5 -165h-156q35 70 61 163t26 182v82z" />
    <glyph glyph-name="scommaaccent" unicode="&#x219;" horiz-adv-x="838" 
d="M770 272q0 -147 -94 -219.5t-271 -72.5q-75 0 -169 12.5t-159 38.5l30 171q45 -16 121 -30.5t146 -14.5q98 0 142.5 22t44.5 84q0 67 -46.5 99t-183.5 66q-148 37 -199.5 106.5t-51.5 190.5q0 128 96 209.5t264 81.5q157 0 291 -36l-24 -174q-125 33 -243 33
q-87 0 -132 -26.5t-45 -88.5q0 -53 34.5 -82.5t174.5 -64.5q153 -38 213.5 -104.5t60.5 -200.5zM328 -98h209l-3 -60q-3 -100 -41 -202t-97 -165h-155q35 70 61 163t26 182v82z" />
    <glyph glyph-name="uni021A" unicode="&#x21a;" horiz-adv-x="1031" 
d="M399 0v1155h-371v199h975v-199h-371v-1155h-233zM413 -98h208l-2 -57q-2 -101 -40.5 -204.5t-97.5 -165.5h-155q35 72 61 164t26 181v82z" />
    <glyph glyph-name="uni021B" unicode="&#x21b;" horiz-adv-x="684" 
d="M24 819v177h149l14 278h201v-278h232v-177h-227v-525q0 -62 27 -93.5t92 -31.5q55 0 128 14l15 -179q-85 -24 -195 -24q-128 0 -204.5 62t-82.5 188q-5 157 -5 589h-144zM323 -98h208l-2 -60q-2 -100 -40.5 -202t-97.5 -165h-155q35 70 61 163t26 182v82z" />
    <glyph glyph-name="uni0237" unicode="&#x237;" horiz-adv-x="510" 
d="M143 996h224v-1002q0 -150 -70.5 -258.5t-253.5 -203.5l-101 150q114 76 157.5 148t43.5 178v988z" />
    <glyph glyph-name="uni0259" unicode="&#x259;" horiz-adv-x="1007" 
d="M911 606v-213q0 -71 -20.5 -144.5t-70.5 -132.5t-130 -97.5t-188 -38.5q-85 0 -159.5 27.5t-129.5 81t-85.5 131.5t-30.5 174l2 170h591v45q0 104 -62 160t-182 56q-143 0 -310 -40l-19 181q167 50 351 50q95 0 176.5 -27t141 -79.5t92.5 -130t33 -173.5zM502 162
q188 0 188 223v39h-377v-39q0 -223 189 -223z" />
    <glyph glyph-name="uni0272" unicode="&#x272;" horiz-adv-x="1126" 
d="M151 996h190l14 -114q186 134 351 134q132 0 205.5 -73.5t73.5 -209.5v-733h-225v665q0 143 -137 143q-53 0 -120 -24.5t-127 -67.5v-722q0 -150 -70.5 -258.5t-253.5 -203.5l-101 150q126 85 163 159.5t37 166.5v988z" />
    <glyph glyph-name="circumflex" unicode="&#x2c6;" horiz-adv-x="807" 
d="M88 1126l213 340h205l213 -340l-198 -16l-118 209l-117 -209z" />
    <glyph glyph-name="caron" unicode="&#x2c7;" horiz-adv-x="823" 
d="M735 1458l-221 -340h-205l-221 340l198 16l126 -209l125 209z" />
    <glyph glyph-name="breve" unicode="&#x2d8;" horiz-adv-x="763" 
d="M88 1435h182q2 -57 28 -94t84 -37q49 0 79 32t32 99h182q0 -137 -79.5 -217.5t-213.5 -80.5q-135 0 -214.5 80.5t-79.5 217.5z" />
    <glyph glyph-name="dotaccent" unicode="&#x2d9;" horiz-adv-x="432" 
d="M88 1287q0 60 33.5 92t94.5 32q62 0 95 -32t33 -92t-33.5 -92.5t-94.5 -32.5t-94.5 32.5t-33.5 92.5z" />
    <glyph glyph-name="ring" unicode="&#x2da;" horiz-adv-x="662" 
d="M88 1303q0 99 68 161.5t176 62.5q106 0 174 -62t68 -158q0 -99 -68.5 -161t-176.5 -62q-106 0 -173.5 61.5t-67.5 157.5zM235 1307q0 -38 27.5 -64.5t67.5 -26.5q42 0 69.5 25t27.5 63q0 39 -27.5 65t-68.5 26t-68.5 -25t-27.5 -63z" />
    <glyph glyph-name="ogonek" unicode="&#x2db;" horiz-adv-x="572" 
d="M402 59l40 -59q-177 -119 -177 -226q0 -38 23.5 -59t65.5 -21q58 0 98 14l16 -155q-61 -21 -137 -21q-110 0 -178 47.5t-68 144.5q0 91 88 182.5t229 152.5z" />
    <glyph glyph-name="tilde" unicode="&#x2dc;" horiz-adv-x="854" 
d="M308 1406q44 0 122 -30.5t112 -30.5q59 0 114 69l110 -78q-12 -29 -39.5 -70.5t-75 -74t-105.5 -32.5q-44 0 -122 30.5t-112 30.5q-59 0 -114 -68l-110 77q12 29 39 70.5t74.5 74t106.5 32.5z" />
    <glyph glyph-name="hungarumlaut" unicode="&#x2dd;" horiz-adv-x="859" 
d="M227 1097l-139 35l124 390l203 -58zM546 1097l-138 38l156 383l207 -65z" />
    <glyph glyph-name="acutecomb" unicode="&#x301;" horiz-adv-x="545" 
d="M228 1042l-132 50l170 271l200 -82z" />
    <glyph glyph-name="dotbelowcomb" unicode="&#x323;" horiz-adv-x="432" 
d="M88 -288q0 60 33.5 92t94.5 32q62 0 95 -32t33 -92t-33.5 -92.5t-94.5 -32.5t-94.5 32.5t-33.5 92.5z" />
    <glyph glyph-name="uni0E3F" unicode="&#xe3f;" horiz-adv-x="1134" 
d="M430 1517h215l-11 -273q166 -7 251 -86t85 -217q0 -86 -45.5 -148.5t-127.5 -95.5q94 -31 154.5 -102.5t60.5 -166.5q0 -151 -99.5 -232.5t-275.5 -86.5l11 -272h-216l11 271h-277v1137h275zM780 443q0 79 -52.5 120.5t-143.5 41.5h-203v-327h207q91 0 141.5 42t50.5 123
zM595 780q64 0 106.5 35.5t42.5 113.5q0 68 -39 106t-116 40h-208v-295h214z" />
    <glyph glyph-name="Wgrave" unicode="&#x1e80;" horiz-adv-x="1789" 
d="M1511 1354h246l-331 -1354h-309l-223 981l-222 -981h-309l-331 1354h246l255 -1109l244 1089h235l245 -1089zM1014 1518l-124 -71l-322 301l184 109z" />
    <glyph glyph-name="wgrave" unicode="&#x1e81;" horiz-adv-x="1507" 
d="M1247 996h233l-278 -996h-266l-183 654l-181 -654h-266l-279 996h233l196 -771l205 753h186l204 -753zM873 1159l-124 -70l-322 300l184 109z" />
    <glyph glyph-name="Wacute" unicode="&#x1e82;" horiz-adv-x="1789" 
d="M1511 1354h246l-331 -1354h-309l-223 981l-222 -981h-309l-331 1354h246l255 -1109l244 1089h235l245 -1089zM885 1447l-123 71l262 339l183 -109z" />
    <glyph glyph-name="wacute" unicode="&#x1e83;" horiz-adv-x="1507" 
d="M1247 996h233l-278 -996h-266l-183 654l-181 -654h-266l-279 996h233l196 -771l205 753h186l204 -753zM743 1089l-124 70l262 339l184 -109z" />
    <glyph glyph-name="Wdieresis" unicode="&#x1e84;" horiz-adv-x="1789" 
d="M1511 1354h246l-331 -1354h-309l-223 981l-222 -981h-309l-331 1354h246l255 -1109l244 1089h235l245 -1089zM570 1645q0 60 33 92t95 32q61 0 94.5 -32t33.5 -92t-33.5 -92t-94.5 -32t-94.5 32t-33.5 92zM969 1645q0 60 33.5 92t94.5 32q62 0 95 -32t33 -92t-33 -92
t-95 -32q-61 0 -94.5 32t-33.5 92z" />
    <glyph glyph-name="wdieresis" unicode="&#x1e85;" horiz-adv-x="1507" 
d="M1247 996h233l-278 -996h-266l-183 654l-181 -654h-266l-279 996h233l196 -771l205 753h186l204 -753zM426 1287q0 60 33 92t95 32q61 0 94.5 -32t33.5 -92t-33.5 -92.5t-94.5 -32.5t-94.5 32.5t-33.5 92.5zM825 1287q0 60 33 92t95 32q61 0 94.5 -32t33.5 -92
t-33.5 -92.5t-94.5 -32.5t-94.5 32.5t-33.5 92.5z" />
    <glyph glyph-name="uni1E9E" unicode="&#x1e9e;" horiz-adv-x="1266" 
d="M1216 360q0 -181 -112.5 -280.5t-318.5 -99.5q-161 0 -301 42l27 195q127 -36 252 -36q101 0 163 44t62 136q0 72 -52.5 130t-190.5 99l-165 49l289 486q-104 51 -227 51q-128 0 -201.5 -64t-73.5 -176v-936h-224v966q0 89 34 165t98 130t154 83.5t197 29.5
q132 0 272 -43t246 -128l-276 -453l24 -8q162 -54 243 -145.5t81 -236.5z" />
    <glyph glyph-name="uni1EA0" unicode="&#x1ea0;" horiz-adv-x="1209" 
d="M1180 0h-246l-90 315h-479l-90 -315h-246l409 1354h333zM604 1174l-190 -670h382zM476 -288q0 60 33.5 92t94.5 32q62 0 95 -32t33 -92t-33.5 -92.5t-94.5 -32.5t-94.5 32.5t-33.5 92.5z" />
    <glyph glyph-name="uni1EA1" unicode="&#x1ea1;" horiz-adv-x="1005" 
d="M67 260q0 90 42 154t120.5 102t187.5 38h197v90q0 87 -42.5 132.5t-150.5 45.5q-123 0 -276 -46l-27 184q62 20 153 38t180 18q205 0 293 -93.5t88 -295.5v-377q0 -38 17 -59.5t47 -21.5q32 0 64 8l4 -172q-56 -25 -135 -25q-61 0 -107.5 26.5t-71.5 74.5
q-59 -43 -133.5 -72t-150.5 -29q-135 0 -217 71.5t-82 208.5zM410 144q102 0 204 67v202h-177q-75 0 -116.5 -36t-41.5 -104q0 -64 39 -96.5t92 -32.5zM370 -288q0 60 33 92t94 32q62 0 95 -32t33 -92t-33.5 -92.5t-94.5 -32.5t-94 32.5t-33 92.5z" />
    <glyph glyph-name="uni1EB8" unicode="&#x1eb8;" horiz-adv-x="1028" 
d="M153 0v1354h798v-201h-566v-374h545v-194h-545v-384h586v-201h-818zM454 -288q0 60 33.5 92t94.5 32q62 0 95 -32t33 -92t-33.5 -92.5t-94.5 -32.5t-94.5 32.5t-33.5 92.5z" />
    <glyph glyph-name="uni1EB9" unicode="&#x1eb9;" horiz-adv-x="1007" 
d="M96 390v213q0 71 20.5 144.5t70.5 132.5t130 97.5t189 38.5q84 0 158.5 -27.5t129.5 -81t85.5 -131.5t30.5 -174l-2 -170h-591v-45q0 -104 62.5 -160t181.5 -56q144 0 311 40l19 -181q-167 -50 -351 -50q-95 0 -177 27t-141.5 79.5t-92.5 130t-33 173.5zM317 615v-43h377
v39q0 223 -188 223q-189 0 -189 -219zM379 -288q0 60 33 92t95 32q61 0 94.5 -32t33.5 -92t-33.5 -92.5t-94.5 -32.5t-94.5 32.5t-33.5 92.5z" />
    <glyph glyph-name="uni1EBC" unicode="&#x1ebc;" horiz-adv-x="1028" 
d="M153 0v1354h798v-201h-566v-374h545v-194h-545v-384h586v-201h-818zM439 1764q44 0 121.5 -30.5t111.5 -30.5q60 0 115 69l109 -78q-33 -81 -92.5 -129t-126.5 -48q-44 0 -122 30.5t-112 30.5q-58 0 -115 -68l-109 77q33 81 92.5 129t127.5 48z" />
    <glyph glyph-name="uni1EBD" unicode="&#x1ebd;" horiz-adv-x="1007" 
d="M96 390v213q0 71 20.5 144.5t70.5 132.5t130 97.5t189 38.5q84 0 158.5 -27.5t129.5 -81t85.5 -131.5t30.5 -174l-2 -170h-591v-45q0 -104 62.5 -160t181.5 -56q144 0 311 40l19 -181q-167 -50 -351 -50q-95 0 -177 27t-141.5 79.5t-92.5 130t-33 173.5zM317 615v-43h377
v39q0 223 -188 223q-189 0 -189 -219zM384 1406q44 0 122 -30.5t112 -30.5q59 0 114 69l110 -78q-12 -29 -39.5 -70.5t-75 -74t-105.5 -32.5q-44 0 -122 30.5t-112 30.5q-59 0 -114 -68l-110 77q12 29 39 70.5t74.5 74t106.5 32.5z" />
    <glyph glyph-name="uni1ECA" unicode="&#x1eca;" horiz-adv-x="537" 
d="M384 1354v-1354h-231v1354h231zM141 -288q0 60 33 92t95 32q61 0 94.5 -32t33.5 -92t-33.5 -92.5t-94.5 -32.5t-94.5 32.5t-33.5 92.5z" />
    <glyph glyph-name="uni1ECB" unicode="&#x1ecb;" horiz-adv-x="494" 
d="M135 996h224v-996h-224v996zM119 -288q0 60 33 92t95 32q61 0 94.5 -32t33.5 -92t-33.5 -92.5t-94.5 -32.5t-94.5 32.5t-33.5 92.5zM119 1287q0 60 33 92t95 32q61 0 94.5 -32t33.5 -92t-33.5 -92.5t-94.5 -32.5t-94.5 32.5t-33.5 92.5z" />
    <glyph glyph-name="uni1ECC" unicode="&#x1ecc;" horiz-adv-x="1216" 
d="M106 435v484q0 123 52.5 225.5t170.5 166t279 63.5t279 -63.5t170.5 -166t52.5 -225.5v-484q0 -123 -52.5 -225.5t-170.5 -166t-279 -63.5t-279 63.5t-170.5 166t-52.5 225.5zM337 914v-447q0 -136 69 -216.5t202 -80.5t202 80.5t69 216.5v420q0 135 -69 215.5t-202 80.5
q-129 0 -200 -71.5t-71 -197.5zM480 -288q0 60 33.5 92t94.5 32q62 0 95 -32t33 -92t-33.5 -92.5t-94.5 -32.5t-94.5 32.5t-33.5 92.5z" />
    <glyph glyph-name="uni1ECD" unicode="&#x1ecd;" horiz-adv-x="1088" 
d="M105 385v226q0 72 22.5 144.5t76 130t139 94t201.5 36.5q92 0 172.5 -26t140 -77.5t93 -128t33.5 -173.5v-226q0 -72 -22.5 -144.5t-76 -130t-139 -94t-201.5 -36.5q-92 0 -172.5 26t-140 77.5t-93 128t-33.5 173.5zM329 609v-215q0 -106 55.5 -166.5t159.5 -60.5
q103 0 159 61t56 166v208q0 105 -56 166t-159 61q-102 0 -158.5 -59t-56.5 -161zM416 -288q0 60 33.5 92t94.5 32q62 0 95 -32t33 -92t-33.5 -92.5t-94.5 -32.5t-94.5 32.5t-33.5 92.5z" />
    <glyph glyph-name="uni1EE4" unicode="&#x1ee4;" horiz-adv-x="1260" 
d="M886 1354h231v-943q0 -98 -35 -178.5t-99.5 -137t-155 -86t-197.5 -29.5t-197.5 29.5t-155 86t-99.5 137t-35 178.5v943h231v-943q0 -106 70.5 -171t185.5 -65t185.5 65t70.5 171v943zM502 -288q0 60 33.5 92t94.5 32t94.5 -32t33.5 -92t-33.5 -92.5t-94.5 -32.5
t-94.5 32.5t-33.5 92.5z" />
    <glyph glyph-name="uni1EE5" unicode="&#x1ee5;" horiz-adv-x="1118" 
d="M967 0h-190l-14 114q-182 -134 -347 -134q-131 0 -203 73t-72 210v733h225v-665q0 -143 133 -143q52 0 118 24t125 67v717h225v-996zM438 -288q0 60 33 92t95 32q61 0 94.5 -32t33.5 -92t-33.5 -92.5t-94.5 -32.5t-94.5 32.5t-33.5 92.5z" />
    <glyph glyph-name="Ygrave" unicode="&#x1ef2;" horiz-adv-x="1133" 
d="M855 1354h241l-414 -864v-490h-231v490l-414 864h241l289 -638zM686 1518l-124 -71l-322 301l184 109z" />
    <glyph glyph-name="ygrave" unicode="&#x1ef3;" horiz-adv-x="1024" 
d="M486 -448h-228l165 448h-68l-334 996h237l245 -791l256 791h240l-350 -996zM635 1159l-124 -70l-322 300l184 109z" />
    <glyph glyph-name="uni1EF8" unicode="&#x1ef8;" horiz-adv-x="1133" 
d="M855 1354h241l-414 -864v-490h-231v490l-414 864h241l289 -638zM448 1764q44 0 121.5 -30.5t111.5 -30.5q60 0 115 69l109 -78q-33 -81 -92.5 -129t-126.5 -48q-44 0 -122 30.5t-112 30.5q-58 0 -115 -68l-109 77q33 81 92.5 129t127.5 48z" />
    <glyph glyph-name="uni1EF9" unicode="&#x1ef9;" horiz-adv-x="1024" 
d="M486 -448h-228l165 448h-68l-334 996h237l245 -791l256 791h240l-350 -996zM389 1406q44 0 121.5 -30.5t111.5 -30.5q58 0 115 69l109 -78q-12 -29 -39.5 -70.5t-75 -74t-105.5 -32.5q-44 0 -121.5 30.5t-111.5 30.5q-60 0 -115 -68l-109 77q12 29 39 70.5t74.5 74
t106.5 32.5z" />
    <glyph glyph-name="endash" unicode="&#x2013;" horiz-adv-x="1111" 
d="M91 408v179h929v-179h-929z" />
    <glyph glyph-name="emdash" unicode="&#x2014;" horiz-adv-x="1561" 
d="M91 408v179h1379v-179h-1379z" />
    <glyph glyph-name="quoteleft" unicode="&#x2018;" horiz-adv-x="390" 
d="M287 946h-205v124q0 231 126 411h151q-30 -67 -51 -168.5t-21 -201.5v-165z" />
    <glyph glyph-name="quoteright" unicode="&#x2019;" horiz-adv-x="432" 
d="M136 1452h205v-124q0 -234 -125 -410h-152q30 67 51 168t21 201v165z" />
    <glyph glyph-name="quotesinglbase" unicode="&#x201a;" horiz-adv-x="405" 
d="M97 210h204v-124q0 -234 -125 -410h-152q30 67 51.5 168.5t21.5 200.5v165z" />
    <glyph glyph-name="quotedblleft" unicode="&#x201c;" horiz-adv-x="750" 
d="M287 946h-205v124q0 231 126 411h151q-30 -67 -51 -168.5t-21 -201.5v-165zM647 946h-204v124q0 233 125 411h152q-30 -68 -51.5 -169.5t-21.5 -200.5v-165z" />
    <glyph glyph-name="quotedblright" unicode="&#x201d;" horiz-adv-x="792" 
d="M136 1452h205v-124q0 -234 -125 -410h-152q30 67 51 168t21 201v165zM497 1452h204v-124q0 -234 -125 -410h-152q30 67 51.5 168.5t21.5 200.5v165z" />
    <glyph glyph-name="quotedblbase" unicode="&#x201e;" horiz-adv-x="766" 
d="M97 210h204v-124q0 -234 -125 -410h-152q30 67 51.5 168.5t21.5 200.5v165zM457 210h205v-124q0 -232 -126 -410h-152q30 66 51.5 167.5t21.5 201.5v165z" />
    <glyph glyph-name="dagger" unicode="&#x2020;" horiz-adv-x="1087" 
d="M435 1579h216l-3 -451l400 10v-204l-401 9l-6 -1167h-196l-7 1167l-399 -9v204l398 -10z" />
    <glyph glyph-name="daggerdbl" unicode="&#x2021;" horiz-adv-x="1104" 
d="M41 955v204l405 -11v431h211v-431l406 11v-204l-406 9v-575l406 11v-204l-406 10v-430h-211v430l-405 -10v204l405 -11v575z" />
    <glyph glyph-name="bullet" unicode="&#x2022;" horiz-adv-x="646" 
d="M88 676q0 110 61.5 169.5t174.5 59.5q112 0 173 -59.5t61 -169.5t-61 -169.5t-173 -59.5q-113 0 -174.5 59.5t-61.5 169.5z" />
    <glyph glyph-name="ellipsis" unicode="&#x2026;" horiz-adv-x="1296" 
d="M91 104q0 60 33.5 92.5t94.5 32.5t94.5 -32.5t33.5 -92.5t-33.5 -92t-94.5 -32t-94.5 32t-33.5 92zM520 104q0 60 33.5 92.5t94.5 32.5t94.5 -32.5t33.5 -92.5t-33.5 -92t-94.5 -32t-94.5 32t-33.5 92zM949 104q0 60 33.5 92.5t94.5 32.5t94.5 -32.5t33.5 -92.5t-33 -92
t-95 -32q-61 0 -94.5 32t-33.5 92z" />
    <glyph glyph-name="guilsinglleft" unicode="&#x2039;" horiz-adv-x="580" 
d="M322 498l199 -369l-174 -77l-254 446l254 446l174 -77z" />
    <glyph glyph-name="guilsinglright" unicode="&#x203a;" horiz-adv-x="580" 
d="M258 498l-200 369l174 77l255 -446l-255 -446l-174 77z" />
    <glyph glyph-name="fraction" unicode="&#x2044;" horiz-adv-x="936" 
d="M50 749h836v-143h-836v143z" />
    <glyph glyph-name="uni2070" unicode="&#x2070;" horiz-adv-x="775" 
d="M72 924v157q0 84 38 146t109 99.5t168 37.5q79 0 155 -31.5t118 -99.5t42 -152v-157q0 -84 -38 -146t-109 -99.5t-168 -37.5q-79 0 -155 31.5t-118 99.5t-42 152zM259 1071v-137q0 -60 35.5 -95t92.5 -35t92.5 35t35.5 95v137q0 60 -35.5 95t-92.5 35t-92.5 -35
t-35.5 -95z" />
    <glyph glyph-name="uni2074" unicode="&#x2074;" horiz-adv-x="640" 
d="M30 782v138l300 432v2h180v-426h108v-146h-108v-131h-185v131h-295zM215 923h121v179z" />
    <glyph glyph-name="franc" unicode="&#x20a3;" horiz-adv-x="1171" 
d="M261 0v216h-163v150h163v988h793v-199h-561v-374h541v-198h-541v-217h278v-150h-278v-216h-232z" />
    <glyph glyph-name="lira" unicode="&#x20a4;" horiz-adv-x="1188" 
d="M145 174q90 0 133.5 42t43.5 138v118h-157v148h755v-148h-369v-130q0 -102 -61 -168h560v-194h-905v194zM165 880h157v72q0 80 23.5 155t78 134t140.5 96t202 37q136 0 272 -35l-23 -198q-117 28 -234 28q-112 0 -171 -61t-59 -177v-51h369v-148h-755v148z" />
    <glyph glyph-name="uni20A9" unicode="&#x20a9;" horiz-adv-x="2063" 
d="M1374 254l235 1100h242l-94 -413h226v-115h-252l-26 -111h201v-115h-226l-137 -600h-308l-204 959l-202 -959h-308l-137 600h-227v115h201l-25 111h-253v115h227l-94 413h242l235 -1100l224 1080h236z" />
    <glyph glyph-name="Euro" unicode="&#x20ac;" horiz-adv-x="1258" 
d="M133 620h770v-148h-393v-29q0 -122 84.5 -191t223.5 -69q59 0 137.5 11.5t142.5 32.5l22 -190q-144 -57 -336 -57q-97 0 -188 30t-161 87t-112 139.5t-42 187.5v48h-148v148zM133 880h148v30q0 127 56 231.5t176 168.5t273 64q72 0 162 -15.5t150 -40.5l-28 -197
q-154 50 -269 50q-134 0 -212.5 -77.5t-78.5 -213.5h393v-148h-770v148z" />
    <glyph glyph-name="uni20B1" unicode="&#x20b1;" horiz-adv-x="1374" 
d="M98 943v114h138v297h451q120 0 211.5 -39t149.5 -104t80 -154h141v-114h-127v-89h127v-115h-140q-36 -141 -152.5 -219t-272.5 -78h-236v-442h-232v739h-138v115h138v89h-138zM468 1165v-535h207q111 0 174 60t63 173v78q0 109 -64 166.5t-173 57.5h-207z" />
    <glyph glyph-name="uni20B9" unicode="&#x20b9;" horiz-adv-x="1071" 
d="M141 860v139h422q-12 87 -76.5 130.5t-169.5 43.5h-176v181h879v-139h-312q85 -88 94 -216h189v-139h-189q-8 -83 -56 -149t-132.5 -114t-201.5 -67l401 -530h-258l-408 541h-1v143h104q134 0 216.5 44t96.5 132h-422z" />
    <glyph glyph-name="uni20BA" unicode="&#x20ba;" horiz-adv-x="1079" 
d="M507 1354v-314l238 160l73 -107l-311 -210v-99l239 160l73 -107l-312 -210v-437q130 0 203.5 80.5t66.5 230.5l201 10q6 -140 -42.5 -255t-167.5 -185.5t-288 -70.5h-204v471l-144 -97l-72 108l216 146v100l-145 -98l-73 108l218 147v469h231z" />
    <glyph glyph-name="afii61352" unicode="&#x2116;" horiz-adv-x="1930" 
d="M928 0l-547 962v-962h-228v1354h236l547 -962v962h228v-1354h-236zM1317 1076v48q0 113 80 181.5t202 68.5t202.5 -68.5t80.5 -181.5v-48q0 -113 -80.5 -181t-202.5 -68t-202 68t-80 181zM1320 733h559v-144h-559v144zM1495 1113q0 -128 104 -128q48 0 76.5 29.5
t28.5 73.5q0 128 -105 128q-48 0 -76 -29.5t-28 -73.5z" />
    <glyph glyph-name="trademark" unicode="&#x2122;" horiz-adv-x="1112" 
d="M171 817v406h-147v131h441v-131h-147v-406h-147zM949 817v321l-102 -254h-92l-100 251v-318h-139v537h160l124 -297l127 297h161v-537h-139z" />
    <glyph glyph-name="estimated" unicode="&#x212e;" horiz-adv-x="1832" 
d="M1690 643h-1255q-10 0 -10 -10v-357q0 -23 17 -45q75 -77 194.5 -127.5t279.5 -50.5q151 0 279.5 51t220.5 148h112q-106 -125 -265.5 -198.5t-348.5 -73.5q-200 0 -377.5 86.5t-286.5 250t-109 359.5q0 177 97 338t279 260.5t397 99.5q196 0 375 -89.5t290 -256.5
t111 -362v-23zM1405 724v356q0 26 -20 45q-85 86 -207.5 131t-261.5 45q-142 0 -263.5 -44.5t-208.5 -131.5q-19 -20 -19 -49v-352q0 -12 10 -12h962q8 0 8 12z" />
    <glyph glyph-name="minus" unicode="&#x2212;" horiz-adv-x="997" 
d="M141 774h715v-194h-715v194z" />
    <glyph glyph-name="uni2215" unicode="&#x2215;" horiz-adv-x="936" 
d="M50 749h836v-143h-836v143z" />
    <glyph glyph-name="uni2219" unicode="&#x2219;" horiz-adv-x="432" 
d="M88 677q0 60 33.5 92t94.5 32q62 0 95 -32t33 -92t-33 -92t-95 -32q-61 0 -94.5 32t-33.5 92z" />
    <glyph glyph-name="approxequal" unicode="&#x2248;" horiz-adv-x="1126" 
d="M236 721l-95 100q37 66 102.5 116.5t149.5 50.5q62 0 158.5 -37t140.5 -37q76 0 156 78l94 -104q-36 -64 -102 -113.5t-149 -49.5q-62 0 -158.5 37t-140.5 37q-76 0 -156 -78zM256 366l-95 101q36 64 100.5 113.5t146.5 49.5q62 0 159.5 -37t144.5 -37q86 0 178 78
l94 -103q-38 -62 -104.5 -110t-153.5 -52q-34 -1 -72 5q-39 7 -121.5 37t-125.5 30q-76 0 -151 -75z" />
    <glyph glyph-name="notequal" unicode="&#x2260;" horiz-adv-x="1014" 
d="M141 753v190h419l149 299l127 -58l-121 -241h158v-190h-251l-76 -152h327v-190h-420l-148 -299l-127 57l120 242h-157v190h250l77 152h-327z" />
    <glyph glyph-name="lessequal" unicode="&#x2264;" horiz-adv-x="991" 
d="M173 196h676v-158h-676v158zM700 1308l149 -137l-411 -352l411 -352l-149 -136l-559 488z" />
    <glyph glyph-name="greaterequal" unicode="&#x2265;" horiz-adv-x="991" 
d="M141 196h676v-158h-676v158zM290 331l-149 136l411 352l-411 352l149 137l559 -489z" />
    <glyph glyph-name="uniF6C3" unicode="&#xf6c3;" horiz-adv-x="472" 
d="M175 -98h208l-2 -60q-2 -100 -40.5 -202t-97.5 -165h-155q35 70 61 163t26 182v82z" />
    <glyph glyph-name="uniF730" unicode="&#xf730;" horiz-adv-x="1177" 
d="M106 437v322q0 140 63 248t177.5 158.5t241.5 50.5q155 0 268.5 -63.5t164 -166.5t50.5 -227v-322q0 -124 -50.5 -227t-164 -166.5t-268.5 -63.5q-127 0 -241.5 50.5t-177.5 158.5t-63 248zM338 754v-291q0 -135 63.5 -214t186.5 -79t187 75t64 207v281q0 136 -63.5 214
t-187.5 78q-120 0 -185 -71.5t-65 -199.5z" />
    <glyph glyph-name="uniF731" unicode="&#xf731;" horiz-adv-x="718" 
d="M75 877l-25 194l341 125h174v-1196h-229v965z" />
    <glyph glyph-name="uniF732" unicode="&#xf732;" horiz-adv-x="976" 
d="M882 201v-201h-810v182q286 263 376 357.5t128.5 164.5t38.5 126q0 91 -58 136.5t-160 45.5q-55 0 -131.5 -13.5t-150.5 -44.5l-29 191q68 32 156 51.5t171 19.5q132 0 227.5 -47t147.5 -129t52 -198q0 -123 -93.5 -257t-376.5 -384h512z" />
    <glyph glyph-name="uniF733" unicode="&#xf733;" horiz-adv-x="911" 
d="M181 433v185h178q94 0 162.5 54t68.5 145q0 99 -63.5 150t-179.5 51q-136 0 -267 -38l-23 182q146 54 318 54q95 0 175.5 -24.5t138 -72.5t88.5 -118.5t31 -159.5q0 -94 -45.5 -175t-148.5 -133q100 -43 158 -128.5t58 -203.5q0 -116 -52.5 -198.5t-157 -131.5
t-263.5 -49q-163 0 -315 42l23 191q133 -35 280 -35q83 0 143 27t92 73t32 110q0 50 -26 97.5t-90 76.5t-140 29h-175z" />
    <glyph glyph-name="uniF734" unicode="&#xf734;" horiz-adv-x="1119" 
d="M676 1213h205v-870h168v-186h-168v-298h-215v298h-576v176zM326 343h345v520z" />
    <glyph glyph-name="uniF735" unicode="&#xf735;" horiz-adv-x="977" 
d="M909 251q0 -208 -127.5 -310t-359.5 -102q-197 0 -344 40l30 196q148 -32 294 -32q278 0 278 211q0 117 -82.5 171t-226.5 54q-61 0 -115 -1t-94 -3t-44 -2l30 740h689v-201h-502l-15 -350l130 -2q156 -7 257 -60.5t151.5 -140t50.5 -208.5z" />
    <glyph glyph-name="uniF736" unicode="&#xf736;" horiz-adv-x="1087" 
d="M106 394v385l3 133q7 221 142.5 341.5t381.5 120.5q143 0 294 -40l-32 -196q-132 35 -260 35q-165 0 -237.5 -77t-74.5 -227v-117q137 57 261 57q139 0 233.5 -53.5t143 -145t48.5 -222.5q0 -188 -119 -298t-332 -110q-97 0 -180.5 26.5t-144 78.5t-94 131t-33.5 178z
M551 621q-47 0 -110 -11t-118 -38v-183q0 -101 63.5 -158t171.5 -57q106 0 168 54t62 148q0 245 -237 245z" />
    <glyph glyph-name="uniF737" unicode="&#xf737;" horiz-adv-x="912" 
d="M35 1013v200h807v-191l-447 -1163h-240l460 1154h-580z" />
    <glyph glyph-name="uniF738" unicode="&#xf738;" horiz-adv-x="1094" 
d="M1006 319q0 -151 -124.5 -245t-335.5 -94q-214 0 -335 95t-121 253q0 113 65.5 199t200.5 157q-120 66 -178 144t-58 186q0 77 29.5 143.5t85 115t135 75t176.5 26.5q196 0 312 -100t116 -260q0 -89 -50.5 -168t-186.5 -155q139 -74 204 -162.5t65 -209.5zM546 159
q99 0 164.5 50t65.5 136q0 65 -48.5 127.5t-184.5 130.5q-115 -50 -170 -108.5t-55 -149.5q0 -86 64.5 -136t163.5 -50zM758 1005q0 89 -60 134.5t-152 45.5t-151.5 -45.5t-59.5 -134.5q0 -58 46 -112.5t169 -119.5q104 46 156 98.5t52 133.5z" />
    <glyph glyph-name="uniF739" unicode="&#xf739;" horiz-adv-x="1087" 
d="M981 802v-399l-2 -136q-6 -213 -138.5 -329t-370.5 -116q-75 0 -170 13t-154 35l32 196q102 -27 151.5 -34t105.5 -7q74 0 133.5 11.5t101.5 40.5t68 91.5t26 266.5q-137 -57 -260 -57q-139 0 -233.5 54t-143.5 147t-49 224q0 190 119.5 301.5t331.5 111.5
q97 0 180.5 -26.5t144 -78.5t94 -131t33.5 -178zM536 566q47 0 109.5 11.5t118.5 38.5v191q0 101 -63.5 158t-171.5 57q-106 0 -168 -55.5t-62 -150.5q0 -250 237 -250z" />
    <glyph glyph-name="uniFB00" unicode="&#xfb00;" horiz-adv-x="1218" 
d="M27 819v177h144v132q0 143 87.5 229.5t237.5 86.5q92 0 176 -21l-26 -180q-78 12 -112 12q-74 0 -108 -34.5t-34 -112.5v-112h353v129q0 157 87 248t239 91q102 0 184 -22l-23 -180q-84 13 -122 13q-71 0 -106.5 -39t-35.5 -130v-110h246v-177h-244v-819h-225v819h-350
v-819h-224v819h-144z" />
    <glyph glyph-name="uniFB02" unicode="&#xfb02;" horiz-adv-x="1141" 
d="M392 1075v-79h217v-177h-214v-819h-224v819h-144v177h144v90q0 144 80 240.5t232 123.5q76 13 164 8q53 1 120 -6.5t143 -23.5t80 -16v-1412h-225v1255q-96 18 -163 18q-210 0 -210 -198z" />
    <glyph glyph-name="uniFB04" unicode="&#xfb04;" horiz-adv-x="1716" 
d="M27 819v177h144v132q0 143 87.5 229.5t237.5 86.5q92 0 176 -21l-26 -180q-78 12 -112 12q-73 0 -107.5 -34.5t-34.5 -112.5v-112h353v90q0 144 80.5 240.5t232.5 123.5q76 13 164 8q53 1 119.5 -6.5t142.5 -23.5t81 -16v-1412h-225v1255q-96 18 -163 18
q-210 0 -210 -198v-79h217v-177h-214v-819h-225v819h-350v-819h-224v819h-144z" />
    <glyph glyph-name="uniFB06" unicode="&#xfb06;" horiz-adv-x="1522" 
d="M859 819v177h148v319h-275q-91 0 -140 -38t-49 -106q0 -120 188 -191l-24 -174q-125 33 -243 33q-87 0 -132 -26.5t-45 -88.5q0 -53 35 -83t174 -64q97 -24 154.5 -57.5t88.5 -89.5t31 -158q0 -147 -94 -219.5t-271 -72.5q-75 0 -169 12.5t-159 38.5l30 171
q45 -16 121 -30.5t146 -14.5q98 0 142.5 22t44.5 84q0 67 -46.5 99.5t-183.5 65.5q-152 39 -202.5 108t-50.5 192q0 127 96 206t262 82q-92 76 -92 182q0 120 92.5 202t265.5 86l101 1h420v-491h232v-177h-228v-525q0 -62 27 -93.5t93 -31.5q54 0 127 14l16 -179
q-85 -24 -196 -24q-132 0 -209 65t-81 199l-1 575h-144z" />
    <glyph glyph-name="Euro.tnum" 
d="M124 620h770v-148h-393v-29q0 -122 84.5 -191t224.5 -69q58 0 136.5 11.5t142.5 32.5l22 -190q-144 -57 -336 -57q-71 0 -154 20t-168.5 77t-132.5 149.5t-47 197.5v48h-149v148zM124 880h149v30q0 127 55.5 231.5t175.5 168.5t273 64q72 0 162 -15.5t150 -40.5l-28 -197
q-154 50 -269 50q-133 0 -212 -77.5t-79 -213.5h393v-148h-770v148z" />
    <glyph glyph-name="Euro.aalt" horiz-adv-x="1150" 
d="M121 555h705v-146h-353q0 -112 71 -172.5t202 -60.5q53 0 125 10t131 29l23 -183q-59 -23 -142 -37.5t-170 -14.5q-89 0 -172.5 27t-148 78t-102 126t-37.5 166v32h-132v146zM121 785h132v17q0 125 56.5 215.5t161 144.5t244.5 54q66 0 149.5 -13.5t141.5 -36.5l-29 -188
q-144 42 -246 42q-114 0 -185.5 -62t-72.5 -170v-3h353v-145h-705v145z" />
    <glyph glyph-name="Euro.aalt.tnum" 
d="M163 555h705v-146h-353q0 -112 71 -172.5t202 -60.5q53 0 126 10t130 29l23 -183q-59 -23 -142 -37.5t-170 -14.5q-89 0 -172.5 27t-148 78t-102 126t-37.5 166v32h-132v146zM163 785h132v17q0 125 56.5 215.5t161 144.5t244.5 54q66 0 149.5 -13.5t141.5 -36.5l-29 -188
q-144 42 -246 42q-114 0 -185.5 -62t-72.5 -170v-3h353v-145h-705v145z" />
    <glyph glyph-name="glyph55" horiz-adv-x="1076" 
d="M690 1354h233v-1360q0 -149 -72 -256.5t-258 -204.5l-101 149q112 74 155 147t43 179v1346zM384 1354v-1354h-231v1354h231zM248 1447l-124 71l262 339l184 -109zM786 1447l-124 71l262 339l183 -109z" />
    <glyph glyph-name="glyph138" horiz-adv-x="1133" 
d="M855 1354h241l-414 -864v-490h-231v490l-414 864h241l289 -638zM276 1553v177h582v-177h-582z" />
    <glyph glyph-name="a.salt" horiz-adv-x="965" 
d="M67 260q0 90 42 154t120.5 102t187.5 38h197v90q0 87 -42.5 132.5t-150.5 45.5q-123 0 -276 -46l-27 184q62 20 153 38t180 18q205 0 293 -93.5t88 -295.5v-627h-177l-15 74q-57 -40 -129 -67t-145 -27q-135 0 -217 71.5t-82 208.5zM410 144q102 0 204 67v202h-177
q-75 0 -116.5 -36t-41.5 -104q0 -64 39 -96.5t92 -32.5z" />
    <glyph glyph-name="a.sc" horiz-adv-x="1067" 
d="M1034 0h-234l-73 226h-387l-73 -226h-234l339 1036h323zM534 871l-153 -478h306z" />
    <glyph glyph-name="aacute.salt" horiz-adv-x="965" 
d="M425 1089l-124 70l262 339l184 -109zM67 260q0 90 42 154t120.5 102t187.5 38h197v90q0 87 -42.5 132.5t-150.5 45.5q-123 0 -276 -46l-27 184q62 20 153 38t180 18q205 0 293 -93.5t88 -295.5v-627h-177l-15 74q-57 -40 -129 -67t-145 -27q-135 0 -217 71.5t-82 208.5z
M410 144q102 0 204 67v202h-177q-75 0 -116.5 -36t-41.5 -104q0 -64 39 -96.5t92 -32.5z" />
    <glyph glyph-name="aacute.sc" horiz-adv-x="1067" 
d="M1034 0h-234l-73 226h-387l-73 -226h-234l339 1036h323zM534 871l-153 -478h306zM501 1112l-127 71l243 315l185 -110z" />
    <glyph glyph-name="abreve.salt" horiz-adv-x="965" 
d="M67 260q0 90 42 154t120.5 102t187.5 38h197v90q0 87 -42.5 132.5t-150.5 45.5q-123 0 -276 -46l-27 184q62 20 153 38t180 18q205 0 293 -93.5t88 -295.5v-627h-177l-15 74q-57 -40 -129 -67t-145 -27q-135 0 -217 71.5t-82 208.5zM410 144q102 0 204 67v202h-177
q-75 0 -116.5 -36t-41.5 -104q0 -64 39 -96.5t92 -32.5zM159 1434h182q2 -56 28 -93.5t83 -37.5q49 0 79 32t33 99h182q0 -137 -79.5 -217.5t-214.5 -80.5q-134 0 -213.5 80.5t-79.5 217.5z" />
    <glyph glyph-name="abreve.sc" horiz-adv-x="1067" 
d="M1034 0h-234l-73 226h-387l-73 -226h-234l339 1036h323zM534 871l-153 -478h306zM242 1435h182q2 -54 28.5 -87.5t80.5 -33.5q55 0 81.5 33.5t28.5 87.5h182q0 -132 -79 -209t-213 -77t-212.5 77.5t-78.5 208.5z" />
    <glyph glyph-name="acircumflex.salt" horiz-adv-x="965" 
d="M67 260q0 90 42 154t120.5 102t187.5 38h197v90q0 87 -42.5 132.5t-150.5 45.5q-123 0 -276 -46l-27 184q62 20 153 38t180 18q205 0 293 -93.5t88 -295.5v-627h-177l-15 74q-57 -40 -129 -67t-145 -27q-135 0 -217 71.5t-82 208.5zM410 144q102 0 204 67v202h-177
q-75 0 -116.5 -36t-41.5 -104q0 -64 39 -96.5t92 -32.5zM149 1126l213 340h204l213 -340l-198 -16l-117 209l-117 -209z" />
    <glyph glyph-name="acircumflex.sc" horiz-adv-x="1067" 
d="M1034 0h-234l-73 226h-387l-73 -226h-234l339 1036h323zM534 871l-153 -478h306zM231 1150l200 316h205l200 -316l-195 -17l-108 186l-107 -186z" />
    <glyph glyph-name="glyph157" horiz-adv-x="607" 
d="M217 1112l-127 71l243 315l186 -110z" />
    <glyph glyph-name="glyph159" horiz-adv-x="545" 
d="M223 1046l-133 50l168 267l199 -82z" />
    <glyph glyph-name="adieresis.salt" horiz-adv-x="965" 
d="M67 260q0 90 42 154t120.5 102t187.5 38h197v90q0 87 -42.5 132.5t-150.5 45.5q-123 0 -276 -46l-27 184q62 20 153 38t180 18q205 0 293 -93.5t88 -295.5v-627h-177l-15 74q-57 -40 -129 -67t-145 -27q-135 0 -217 71.5t-82 208.5zM410 144q102 0 204 67v202h-177
q-75 0 -116.5 -36t-41.5 -104q0 -64 39 -96.5t92 -32.5zM127 1287q0 60 33 92t94 32q62 0 95 -32t33 -92t-33.5 -92.5t-94.5 -32.5t-94 32.5t-33 92.5zM526 1287q0 60 33 92t95 32q61 0 94.5 -32t33.5 -92t-33.5 -92.5t-94.5 -32.5t-94.5 32.5t-33.5 92.5z" />
    <glyph glyph-name="adieresis.sc" horiz-adv-x="1067" 
d="M1034 0h-234l-73 226h-387l-73 -226h-234l339 1036h323zM534 871l-153 -478h306zM212 1290q0 58 33.5 89.5t92.5 31.5t92.5 -31.5t33.5 -89.5q0 -57 -33.5 -89t-92.5 -32t-92.5 32t-33.5 89zM603 1290q0 58 33.5 89.5t92.5 31.5t92.5 -31.5t33.5 -89.5q0 -57 -33.5 -89
t-92.5 -32t-92.5 32t-33.5 89z" />
    <glyph glyph-name="uni1EA1.salt" horiz-adv-x="965" 
d="M361 -288q0 60 33.5 92t94.5 32q62 0 95 -32t33 -92t-33.5 -92.5t-94.5 -32.5t-94.5 32.5t-33.5 92.5zM67 260q0 90 42 154t120.5 102t187.5 38h197v90q0 87 -42.5 132.5t-150.5 45.5q-123 0 -276 -46l-27 184q62 20 153 38t180 18q205 0 293 -93.5t88 -295.5v-627h-177
l-15 74q-57 -40 -129 -67t-145 -27q-135 0 -217 71.5t-82 208.5zM410 144q102 0 204 67v202h-177q-75 0 -116.5 -36t-41.5 -104q0 -64 39 -96.5t92 -32.5z" />
    <glyph glyph-name="uni1EA1.sc" horiz-adv-x="1067" 
d="M1034 0h-234l-73 226h-387l-73 -226h-234l339 1036h323zM534 871l-153 -478h306zM406 -288q0 60 33 92t94 32q62 0 95 -32t33 -92t-33.5 -92.5t-94.5 -32.5t-94 32.5t-33 92.5z" />
    <glyph glyph-name="ae.sc" horiz-adv-x="1396" 
d="M782 0l-40 226h-374l-101 -226h-234l466 1036h819v-180h-470l48 -250h405v-170h-376l48 -256h362v-180h-553zM636 864l-208 -471h290z" />
    <glyph glyph-name="aeacute.sc" horiz-adv-x="1396" 
d="M782 0l-40 226h-374l-101 -226h-234l466 1036h819v-180h-470l48 -250h405v-170h-376l48 -256h362v-180h-553zM636 864l-208 -471h290zM841 1112l-127 71l243 315l186 -110z" />
    <glyph glyph-name="agrave.salt" horiz-adv-x="965" 
d="M67 260q0 90 42 154t120.5 102t187.5 38h197v90q0 87 -42.5 132.5t-150.5 45.5q-123 0 -276 -46l-27 184q62 20 153 38t180 18q205 0 293 -93.5t88 -295.5v-627h-177l-15 74q-57 -40 -129 -67t-145 -27q-135 0 -217 71.5t-82 208.5zM410 144q102 0 204 67v202h-177
q-75 0 -116.5 -36t-41.5 -104q0 -64 39 -96.5t92 -32.5zM632 1159l-124 -70l-322 300l184 109z" />
    <glyph glyph-name="agrave.sc" horiz-adv-x="1067" 
d="M1034 0h-234l-73 226h-387l-73 -226h-234l339 1036h323zM534 871l-153 -478h306zM685 1183l-125 -71l-303 276l185 110z" />
    <glyph glyph-name="amacron.salt" horiz-adv-x="965" 
d="M67 260q0 90 42 154t120.5 102t187.5 38h197v90q0 87 -42.5 132.5t-150.5 45.5q-123 0 -276 -46l-27 184q62 20 153 38t180 18q205 0 293 -93.5t88 -295.5v-627h-177l-15 74q-57 -40 -129 -67t-145 -27q-135 0 -217 71.5t-82 208.5zM410 144q102 0 204 67v202h-177
q-75 0 -116.5 -36t-41.5 -104q0 -64 39 -96.5t92 -32.5zM173 1195v177h582v-177h-582z" />
    <glyph glyph-name="amacron.sc" horiz-adv-x="1067" 
d="M1034 0h-234l-73 226h-387l-73 -226h-234l339 1036h323zM534 871l-153 -478h306zM244 1195v177h579v-177h-579z" />
    <glyph glyph-name="ampersand.sc" horiz-adv-x="1034" 
d="M62 302q0 70 36.5 135.5t149.5 133.5q-54 68 -78.5 115t-24.5 106q0 81 43 139t125.5 91.5t202.5 33.5q140 0 292 -52l-32 -172q-137 41 -250 41q-184 0 -184 -96q0 -20 11.5 -47t60 -84t53.5 -63l269 -323q14 24 14 57q0 40 -15 81.5t-47.5 84t-87 99t-68.5 71.5v102
h435v-163h-170q95 -117 113.5 -172.5t18.5 -95.5q0 -119 -77 -205l126 -149l-141 -107l-132 157q-87 -39 -208 -39q-194 0 -314.5 87.5t-120.5 233.5zM493 150q51 1 92 19l-240 286q-89 -60 -89 -145q0 -72 63 -116t174 -44z" />
    <glyph glyph-name="aogonek.salt" horiz-adv-x="965" 
d="M475 -276q0 68 51.5 140t151.5 136h-23l-15 74q-54 -38 -123 -64.5t-138 -28.5q-40 -1 -80 5q-107 16 -169.5 85.5t-62.5 188.5q0 90 42 154t120.5 102t187.5 38h197v90q0 87 -42.5 132.5t-150.5 45.5q-123 0 -276 -46l-27 184q62 20 153 38t180 18q205 0 293 -93.5
t88 -295.5v-627q-177 -117 -177 -226q0 -38 23.5 -59t65.5 -21q58 0 98 14l16 -155q-61 -21 -138 -21q-110 0 -177.5 47.5t-67.5 144.5zM410 144q102 0 204 67v202h-177q-75 0 -116.5 -36t-41.5 -104q0 -64 39 -96.5t92 -32.5z" />
    <glyph glyph-name="aogonek.sc" horiz-adv-x="1067" 
d="M1034 0q-177 -119 -177 -226q0 -38 24 -59t66 -21q57 0 97 14l16 -155q-61 -21 -137 -21q-110 0 -178 47.5t-68 144.5q0 68 51.5 140t151.5 136h-80l-73 226h-387l-73 -226h-234l339 1036h323zM534 871l-153 -478h306z" />
    <glyph glyph-name="approxequal.tnum" 
d="M272 721l-94 100q37 66 102 116.5t150 50.5q62 0 158 -37t141 -37q76 0 156 78l94 -104q-36 -64 -102 -113.5t-149 -49.5q-62 0 -158.5 37t-141.5 37q-74 0 -156 -78zM292 366l-94 101q36 64 100.5 113.5t146.5 49.5q62 0 159.5 -37t144.5 -37q86 0 178 78l94 -103
q-38 -62 -104.5 -110t-153.5 -52q-34 -1 -72 5q-39 7 -121.5 37t-126.5 30q-74 0 -151 -75z" />
    <glyph glyph-name="approxequal.aalt" horiz-adv-x="1126" 
d="M141 743q17 30 50 69t86.5 68t115.5 29t158.5 -36.5t140.5 -36.5q78 0 156 78l94 -104q-36 -64 -101.5 -113.5t-149.5 -49.5q-62 0 -158.5 36.5t-140.5 36.5q-78 0 -156 -78zM161 388q36 64 100.5 113.5t146.5 49.5q62 0 159.5 -36.5t144.5 -36.5q86 0 178 78l94 -104
q-40 -64 -111 -113.5t-162 -49.5q-63 0 -161.5 36.5t-142.5 36.5q-77 0 -151 -74z" />
    <glyph glyph-name="approxequal.aalt.tnum" 
d="M272 642l-94 101q45 79 112 122.5t140 43.5q62 0 158 -36.5t141 -36.5q78 0 156 78l94 -104q-36 -64 -101.5 -113.5t-149.5 -49.5q-62 0 -158.5 36.5t-141.5 36.5q-76 0 -156 -78zM292 288l-94 100q36 64 100.5 113.5t146.5 49.5q62 0 159.5 -36.5t144.5 -36.5
q86 0 178 78l94 -104q-38 -62 -105 -110t-153 -51q-34 -1 -72 5q-38 7 -121 36.5t-127 29.5q-75 0 -151 -74z" />
    <glyph glyph-name="aring.salt" horiz-adv-x="965" 
d="M210 1303q0 99 68 161.5t175 62.5q106 0 174.5 -62t68.5 -158q0 -99 -68.5 -161t-176.5 -62q-106 0 -173.5 61.5t-67.5 157.5zM357 1307q0 -38 27.5 -64.5t67.5 -26.5q41 0 69 25t28 63q0 39 -27.5 65t-68.5 26t-68.5 -25t-27.5 -63zM67 260q0 90 42 154t120.5 102
t187.5 38h197v90q0 87 -42.5 132.5t-150.5 45.5q-123 0 -276 -46l-27 184q62 20 153 38t180 18q205 0 293 -93.5t88 -295.5v-627h-177l-15 74q-57 -40 -129 -67t-145 -27q-135 0 -217 71.5t-82 208.5zM410 144q102 0 204 67v202h-177q-75 0 -116.5 -36t-41.5 -104
q0 -64 39 -96.5t92 -32.5z" />
    <glyph glyph-name="aring.sc" horiz-adv-x="1067" 
d="M1034 0h-234l-73 226h-387l-73 -226h-234l339 1036h323zM534 871l-153 -478h306zM294 1313q0 94 66.5 154t173.5 60q105 0 171.5 -59t66.5 -151q0 -95 -66.5 -154t-174.5 -59q-105 0 -171 58.5t-66 150.5zM443 1317q0 -36 25 -60.5t64 -24.5q40 0 65.5 23.5t25.5 58.5
q0 37 -25.5 61.5t-64.5 24.5t-64.5 -24t-25.5 -59z" />
    <glyph glyph-name="aringacute.salt" horiz-adv-x="965" 
d="M67 260q0 90 42 154t120.5 102t187.5 38h197v90q0 87 -42.5 132.5t-150.5 45.5q-123 0 -276 -46l-27 184q62 20 153 38t180 18q205 0 293 -93.5t88 -295.5v-627h-177l-15 74q-57 -40 -129 -67t-145 -27q-135 0 -217 71.5t-82 208.5zM231 1281q0 94 63 154.5t168 60.5
q96 0 158 -58.5t62 -145.5q0 -94 -63 -154t-169 -60q-94 0 -156.5 58.5t-62.5 144.5zM410 144q102 0 204 67v202h-177q-75 0 -116.5 -36t-41.5 -104q0 -64 39 -96.5t92 -32.5zM463 1543l-132 50l170 271l200 -82zM369 1284q0 -36 23.5 -60t60.5 -24q43 0 67.5 25t24.5 65
q0 35 -24 59t-62 24q-41 0 -65.5 -24.5t-24.5 -64.5z" />
    <glyph glyph-name="aringacute.sc" horiz-adv-x="1067" 
d="M1034 0h-234l-73 226h-387l-73 -226h-234l339 1036h323zM534 871l-153 -478h306zM307 1294q0 88 65.5 146t162.5 58q95 0 160.5 -57t65.5 -143q0 -88 -65.5 -145t-163.5 -57q-95 0 -160 56t-65 142zM451 1298q0 -33 23.5 -56t58.5 -23q36 0 60 22t24 54q0 34 -23.5 57
t-59.5 23t-59.5 -22.5t-23.5 -54.5zM542 1545l-134 50l169 267l199 -82z" />
    <glyph glyph-name="atilde.salt" horiz-adv-x="965" 
d="M67 260q0 90 42 154t120.5 102t187.5 38h197v90q0 87 -42.5 132.5t-150.5 45.5q-123 0 -276 -46l-27 184q62 20 153 38t180 18q205 0 293 -93.5t88 -295.5v-627h-177l-15 74q-57 -40 -129 -67t-145 -27q-135 0 -217 71.5t-82 208.5zM410 144q102 0 204 67v202h-177
q-75 0 -116.5 -36t-41.5 -104q0 -64 39 -96.5t92 -32.5zM323 1406q44 0 122 -30.5t112 -30.5q58 0 115 69l109 -78q-12 -29 -39.5 -70.5t-75 -74t-105.5 -32.5q-44 0 -121.5 30.5t-111.5 30.5q-60 0 -115 -68l-109 77q33 81 92.5 129t126.5 48z" />
    <glyph glyph-name="atilde.sc" horiz-adv-x="1067" 
d="M1034 0h-234l-73 226h-387l-73 -226h-234l339 1036h323zM534 871l-153 -478h306zM419 1406q43 0 119 -29t112 -29q57 0 112 66l105 -80q-12 -28 -39.5 -67t-75 -70t-105.5 -31q-43 0 -119 29t-111 29q-56 0 -113 -66l-105 80q12 28 39 67t74.5 70t106.5 31z" />
    <glyph glyph-name="b.sc" horiz-adv-x="1017" 
d="M555 0h-416v1036h405q183 0 276 -74t93 -210q0 -66 -37.5 -124.5t-124.5 -92.5q90 -30 147.5 -93t57.5 -147q0 -143 -105.5 -219t-295.5 -76zM735 312q0 62 -49.5 104t-157.5 42h-171v-293h176q96 0 149 37t53 110zM540 602q78 0 119 36.5t41 99.5q0 64 -42 98.5
t-127 34.5h-174v-269h183z" />
    <glyph glyph-name="braceleft.sc" horiz-adv-x="709" 
d="M466 1203v-402q0 -125 -38.5 -191t-130.5 -91q91 -23 130 -86.5t39 -178.5v-403q0 -70 30.5 -107.5t82.5 -37.5h97v-189h-127q-138 0 -217 79.5t-79 205.5v453q0 28 -10.5 68t-42.5 71t-82 31h-45v188h45q65 0 100 48t35 106v452q0 136 79 219t217 83h127v-190h-97
q-50 0 -81.5 -35t-31.5 -93z" />
    <glyph glyph-name="braceright.sc" horiz-adv-x="709" 
d="M243 -165v402q0 126 38.5 191.5t130.5 91.5q-80 20 -124.5 77.5t-44.5 187.5v402q0 70 -30.5 107.5t-82.5 37.5h-97v190h127q137 0 216.5 -80t79.5 -206v-452q0 -29 10.5 -69t42.5 -71t82 -31h45v-188h-45q-65 0 -100 -48t-35 -106v-451q0 -137 -79 -219.5t-217 -82.5
h-127v189h97q50 0 81.5 35t31.5 93z" />
    <glyph glyph-name="bracketleft.sc" horiz-adv-x="620" 
d="M581 -303v-181h-427v2004h427v-181h-209v-1642h209z" />
    <glyph glyph-name="bracketright.sc" horiz-adv-x="620" 
d="M39 1340v181h428v-2004h-428v181h210v1642h-210z" />
    <glyph glyph-name="glyph211" horiz-adv-x="763" 
d="M90 1435h182q2 -54 28.5 -87.5t81.5 -33.5q54 0 80.5 33.5t28.5 87.5h182q0 -131 -78.5 -208.5t-212.5 -77.5t-213 77t-79 209z" />
    <glyph glyph-name="c.sc" horiz-adv-x="854" 
d="M784 199l19 -178q-121 -41 -278 -41q-129 0 -225 47.5t-147.5 122t-54.5 170.5l-2 95v195l2 95q3 103 54.5 180t147.5 124t227 47q60 0 135.5 -11t126.5 -30l-26 -181q-115 33 -215 33q-97 0 -161 -53t-64 -141v-321q0 -86 65 -135t172 -49q106 0 224 31z" />
    <glyph glyph-name="glyph216" horiz-adv-x="1970" 
d="M1865 622v-228q0 -197 -121.5 -305.5t-328.5 -108.5q-235 0 -403 76v1259h-228q-91 0 -140.5 -37.5t-49.5 -105.5q0 -63 51.5 -112.5t137.5 -78.5l-28 -188q-3 1 -35.5 9t-80.5 14.5t-86 6.5q-108 0 -167 -64.5t-59 -175.5v-174q0 -112 62 -174t173 -62q41 0 103.5 7
t107.5 18l17 -185q-119 -33 -250 -33q-144 0 -240.5 54t-145.5 144t-49 215v210q0 68 19 138t65 127.5t121 97.5t180 48q-94 78 -94 185q0 89 49 153.5t132 99.5t198 35h455v-580q144 109 293 109q67 0 129 -26t110 -76.5t75.5 -125.5t27.5 -166zM1455 821q-44 0 -102 -18.5
t-117 -66.5v-539q99 -28 185 -28q112 0 165.5 61t53.5 167v200q0 224 -185 224z" />
    <glyph glyph-name="glyph217" horiz-adv-x="1871" 
d="M784 199l19 -178q-121 -41 -278 -41q-129 0 -225 47.5t-147.5 122t-54.5 170.5l-2 95v195l2 95q3 103 54.5 180t147.5 124t227 47q60 0 135.5 -11t126.5 -30l-26 -181q-115 33 -215 33q-97 0 -161 -53t-64 -141v-321q0 -86 65 -135t172 -49q106 0 224 31zM1409 0h-416
v1036h405q183 0 276 -74t93 -210q0 -66 -37.5 -124.5t-124.5 -92.5q90 -30 147.5 -93t57.5 -147q0 -143 -105.5 -219t-295.5 -76zM1590 312q0 62 -49.5 104t-158.5 42h-170v-293h175q96 0 149.5 37t53.5 110zM1394 602q78 0 119 36.5t41 99.5q0 64 -42 98.5t-127 34.5h-173
v-269h182z" />
    <glyph glyph-name="glyph218" horiz-adv-x="1986" 
d="M327 583v-174q0 -112 62 -174t173 -62q41 0 103.5 7t107.5 18l17 -185q-119 -33 -250 -33q-144 0 -240.5 54t-145.5 144t-49 215v210q0 68 19 138t65 127.5t121 97.5t180 48q-94 78 -94 185q0 89 49 153.5t132 99.5t198 35h455v-596q175 125 337 125q132 0 205 -73.5
t73 -209.5v-733h-224v665q0 143 -138 143q-53 0 -120 -24.5t-127 -67.5v-716h-224v1315h-228q-91 0 -140.5 -37.5t-49.5 -105.5q0 -63 51.5 -112.5t137.5 -78.5l-28 -188q-3 1 -35.5 9t-80.5 14.5t-86 6.5q-108 0 -167 -64.5t-59 -175.5z" />
    <glyph glyph-name="glyph219" horiz-adv-x="2015" 
d="M784 199l19 -178q-121 -41 -278 -41q-129 0 -225 47.5t-147.5 122t-54.5 170.5l-2 95v195l2 95q3 103 54.5 180t147.5 124t227 47q60 0 135.5 -11t126.5 -30l-26 -181q-115 33 -215 33q-97 0 -161 -53t-64 -141v-321q0 -86 65 -135t172 -49q106 0 224 31zM1876 0h-226
v427h-431v-427h-226v1036h226v-422h431v422h226v-1036z" />
    <glyph glyph-name="glyph220" horiz-adv-x="1890" 
d="M327 583v-174q0 -112 62 -174t173 -62q41 0 103.5 7t107.5 18l17 -185q-119 -33 -250 -33q-144 0 -240.5 54t-145.5 144t-49 215v210q0 68 19 138t65 127.5t121 97.5t180 48q-94 78 -94 185q0 89 49 153.5t132 99.5t198 35h461v-887h127l227 396h251l-301 -489l312 -507
h-250l-240 420h-126v-420h-224v1315h-228q-91 0 -140.5 -37.5t-49.5 -105.5q0 -63 51.5 -112.5t137.5 -78.5l-28 -188q-3 1 -35.5 9t-80.5 14.5t-86 6.5q-108 0 -167 -64.5t-59 -175.5z" />
    <glyph glyph-name="glyph221" horiz-adv-x="1882" 
d="M784 199l19 -178q-121 -41 -278 -41q-129 0 -225 47.5t-147.5 122t-54.5 170.5l-2 95v195l2 95q3 103 54.5 180t147.5 124t227 47q60 0 135.5 -11t126.5 -30l-26 -181q-115 33 -215 33q-97 0 -161 -53t-64 -141v-321q0 -86 65 -135t172 -49q106 0 224 31zM1586 1036h247
l-288 -523l303 -513h-251l-244 427h-133v-427h-227v1036h227v-421h143z" />
    <glyph glyph-name="glyph222" horiz-adv-x="1387" 
d="M327 583v-174q0 -112 62 -174t173 -62q41 0 103.5 7t107.5 18l17 -185q-119 -33 -250 -33q-144 0 -240.5 54t-145.5 144t-49 215v210q0 68 19 138t65 127.5t121 97.5t180 48q-94 78 -94 185q0 89 49 153.5t132 99.5t198 35h461v-1487h-224v1315h-228q-91 0 -140.5 -37.5
t-49.5 -105.5q0 -63 51.5 -112.5t137.5 -78.5l-28 -188q-3 1 -35.5 9t-80.5 14.5t-86 6.5q-108 0 -167 -64.5t-59 -175.5z" />
    <glyph glyph-name="glyph223" horiz-adv-x="1712" 
d="M784 199l19 -178q-121 -41 -278 -41q-129 0 -225 47.5t-147.5 122t-54.5 170.5l-2 95v195l2 95q3 103 54.5 180t147.5 124t227 47q60 0 135.5 -11t126.5 -30l-26 -181q-115 33 -215 33q-97 0 -161 -53t-64 -141v-321q0 -86 65 -135t172 -49q106 0 224 31zM1219 1036v-850
h449v-186h-675v1036h226z" />
    <glyph glyph-name="glyph224" horiz-adv-x="1549" 
d="M886 819v177h148v319h-251q-91 0 -140 -37.5t-49 -105.5q0 -61 50 -111t139 -80l-28 -188q-3 1 -35.5 9t-80.5 14.5t-86 6.5q-108 0 -167 -64.5t-59 -175.5v-174q0 -112 62 -174t173 -62q41 0 103.5 7t107.5 18l17 -185q-119 -33 -250 -33q-144 0 -240.5 54t-145.5 144
t-49 215v210q0 114 43.5 201t129 144t212.5 66q-95 78 -95 185q0 119 92.5 201t265.5 86l115 1h382v-491h232v-177h-227v-525q0 -62 27 -93.5t92 -31.5q55 0 128 14l15 -179q-85 -24 -195 -24q-133 0 -210 65t-80 199l-2 575h-144z" />
    <glyph glyph-name="glyph225" horiz-adv-x="1766" 
d="M784 199l19 -178q-121 -41 -278 -41q-129 0 -225 47.5t-147.5 122t-54.5 170.5l-2 95v195l2 95q3 103 54.5 180t147.5 124t227 47q60 0 135.5 -11t126.5 -30l-26 -181q-115 33 -215 33q-97 0 -161 -53t-64 -141v-321q0 -86 65 -135t172 -49q106 0 224 31zM1196 0v852
h-307v184h842v-184h-307v-852h-228z" />
    <glyph glyph-name="cacute.sc" horiz-adv-x="854" 
d="M784 199l19 -178q-121 -41 -278 -41q-129 0 -225 47.5t-147.5 122t-54.5 170.5l-2 95v195l2 95q3 103 54.5 180t147.5 124t227 47q60 0 135.5 -11t126.5 -30l-26 -181q-115 33 -215 33q-97 0 -161 -53t-64 -141v-321q0 -86 65 -135t172 -49q106 0 224 31zM456 1112
l-128 71l244 315l185 -110z" />
    <glyph glyph-name="glyph229" horiz-adv-x="823" 
d="M726 1458l-213 -317h-203l-212 317l197 16l117 -189l116 189z" />
    <glyph glyph-name="ccaron.sc" horiz-adv-x="854" 
d="M784 199l19 -178q-121 -41 -278 -41q-129 0 -225 47.5t-147.5 122t-54.5 170.5l-2 95v195l2 95q3 103 54.5 180t147.5 124t227 47q60 0 135.5 -11t126.5 -30l-26 -181q-115 33 -215 33q-97 0 -161 -53t-64 -141v-321q0 -86 65 -135t172 -49q106 0 224 31zM822 1458
l-212 -317h-204l-212 317l197 16l117 -189l117 189z" />
    <glyph glyph-name="ccedilla.sc" horiz-adv-x="854" 
d="M784 199l19 -178q-94 -32 -210 -39l-78 -2l-11 -84q86 -9 136.5 -54t50.5 -127q0 -45 -25 -84t-88 -69t-162 -30q-76 0 -132 14l18 141q33 -11 91 -11q52 0 84.5 17t32.5 51q0 32 -27 49.5t-74 17.5h-60l43 184q-128 30 -210.5 116.5t-84.5 212.5l-1 76v226l1 76
q2 104 54 181.5t148 125t228 47.5q60 0 135.5 -11t126.5 -30l-26 -181q-115 33 -215 33q-97 0 -161 -53t-64 -141v-321q0 -86 65 -135t172 -49q103 0 224 31z" />
    <glyph glyph-name="ccircumflex.sc" horiz-adv-x="854" 
d="M784 199l19 -178q-121 -41 -278 -41q-129 0 -225 47.5t-147.5 122t-54.5 170.5l-2 95v195l2 95q3 103 54.5 180t147.5 124t227 47q60 0 135.5 -11t126.5 -30l-26 -181q-115 33 -215 33q-97 0 -161 -53t-64 -141v-321q0 -86 65 -135t172 -49q106 0 224 31zM179 1150
l200 316h205l200 -316l-194 -17l-108 186l-108 -186z" />
    <glyph glyph-name="cdotaccent.sc" horiz-adv-x="854" 
d="M784 199l19 -178q-121 -41 -278 -41q-129 0 -225 47.5t-147.5 122t-54.5 170.5l-2 95v195l2 95q3 103 54.5 180t147.5 124t227 47q60 0 135.5 -11t126.5 -30l-26 -181q-115 33 -215 33q-97 0 -161 -53t-64 -141v-321q0 -86 65 -135t172 -49q106 0 224 31zM384 1290
q0 58 33 89.5t93 31.5q59 0 92.5 -31.5t33.5 -89.5q0 -57 -33.5 -89t-92.5 -32t-92.5 32t-33.5 89z" />
    <glyph glyph-name="cent.tnum" 
d="M583 1477h215l-11 -267q97 -9 174 -35l-26 -181q-115 33 -222 33q-100 0 -166 -55.5t-66 -147.5v-302q0 -90 67.5 -142t177.5 -52q109 0 230 31l20 -178q-86 -29 -202 -38l11 -266h-215l11 273q-86 17 -164.5 64.5t-120 126t-41.5 166.5v333q0 56 17 115t58.5 110
t107.5 89.5t156 53.5z" />
    <glyph glyph-name="cent.aalt" horiz-adv-x="1007" 
d="M484 1406h215l-11 -267q106 -12 171 -36l-26 -181q-115 33 -215 33q-97 0 -161 -53t-64 -141v-321q0 -86 65 -135t172 -49q106 0 224 31l19 -177q-86 -30 -198 -39l11 -266h-215l11 274q-138 27 -227 119t-89 227v352q0 92 38 164.5t111.5 124t179.5 69.5z" />
    <glyph glyph-name="cent.aalt.tnum" 
d="M583 1406h215l-11 -267q110 -12 174 -36l-26 -181q-115 33 -222 33q-100 0 -166 -55.5t-66 -146.5v-303q0 -89 67.5 -141.5t177.5 -52.5q109 0 230 31l20 -177q-90 -30 -202 -39l11 -266h-215l11 273q-105 20 -177.5 73t-110.5 124.5t-38 159.5v333q0 151 95 247.5
t244 120.5z" />
    <glyph glyph-name="glyph244" horiz-adv-x="807" 
d="M101 1150l200 316h205l200 -316l-195 -17l-108 186l-108 -186z" />
    <glyph glyph-name="currency.tnum" 
d="M210 132l-132 119l178 207q-54 86 -54 202v36q0 109 51 197l-176 202l132 119l196 -182q90 48 196 48q105 0 196 -48l195 182l132 -119l-176 -203q51 -86 51 -196v-36q0 -113 -55 -203l179 -206l-132 -119l-201 189q-84 -44 -189 -44q-106 0 -190 44zM408 686v-16
q0 -92 51.5 -150t141.5 -58t141 58t51 150v16q0 92 -51 150t-141 58t-141.5 -58t-51.5 -150z" />
    <glyph glyph-name="currency.aalt" horiz-adv-x="1310" 
d="M233 41l-132 118l184 214q-57 92 -57 208v45q0 112 54 201l-182 210l132 119l202 -189q98 54 221 54t221 -53l202 188l132 -119l-182 -210q54 -89 54 -201v-45q0 -119 -58 -208l185 -214l-132 -118l-207 195q-96 -51 -215 -51t-214 50zM438 616v-25q0 -98 58 -159.5
t159 -61.5q102 0 159.5 61t57.5 160v25q0 98 -57.5 159t-159.5 61q-101 0 -159 -61t-58 -159z" />
    <glyph glyph-name="currency.aalt.tnum" 
d="M210 57l-132 119l178 207q-54 86 -54 202v36q0 113 50 197l-175 202l132 120l195 -183q90 48 197 48q105 0 195 -48l196 183l132 -120l-176 -203q51 -86 51 -196v-36q0 -113 -55 -203l178 -206l-131 -119l-202 189q-85 -44 -188 -44q-104 0 -190 44zM408 611v-16
q0 -92 51.5 -150t141.5 -58t141 58t51 150v16q0 92 -51 150t-141 58t-141.5 -58t-51.5 -150z" />
    <glyph glyph-name="d.sc" horiz-adv-x="1075" 
d="M139 0v1036h401q69 0 143.5 -16.5t148 -63t110.5 -121t37 -153.5v-177l-3 -179q-4 -101 -55.5 -172t-146.5 -112.5t-234 -41.5h-401zM754 348v314q0 49 -22 92t-71.5 74.5t-132.5 31.5h-167v-684h167q109 0 167.5 44.5t58.5 127.5z" />
    <glyph glyph-name="dagger.sc" horiz-adv-x="1087" 
d="M435 1420h216l-3 -451l400 10v-204l-401 8l-6 -1166h-196l-7 1166l-399 -8v204l398 -10z" />
    <glyph glyph-name="daggerdbl.sc" horiz-adv-x="1104" 
d="M41 794v204l405 -10v431h211v-431l406 10v-204l-406 10v-575l406 11v-204l-406 10v-430h-211v430l-405 -10v204l405 -11v575z" />
    <glyph glyph-name="dcaron.sc" horiz-adv-x="1075" 
d="M139 0v1036h391q96 0 178.5 -24t143 -70t94 -112.5t33.5 -147.5v-329q0 -109 -50 -186t-147 -122t-242 -45h-401zM754 348v314q0 49 -22 92t-71.5 74.5t-132.5 31.5h-167v-684h167q109 0 167.5 44.5t58.5 127.5zM829 1458l-212 -317h-203l-213 317l198 16l117 -189
l116 189z" />
    <glyph glyph-name="dcroat.sc" horiz-adv-x="1094" 
d="M41 445v148h116v443h391q140 0 239 -46t151.5 -118.5t56.5 -167.5l2 -124v-125l-2 -125q-4 -102 -55 -174t-146.5 -114t-235.5 -42h-401v445h-116zM772 348v318q0 81 -58.5 137.5t-167.5 56.5h-167v-267h202v-148h-202v-269h167q110 0 168 44.5t58 127.5z" />
    <glyph glyph-name="degree.aalt" horiz-adv-x="780" 
d="M75 854v76q0 84 38 146t109 99.5t167 37.5q97 0 168.5 -37.5t109.5 -99.5t38 -146v-76q0 -84 -38 -146t-109.5 -99.5t-168.5 -37.5q-96 0 -167 37.5t-109 99.5t-38 146zM260 919v-53q0 -63 36.5 -97.5t92.5 -34.5t93.5 34.5t37.5 97.5v53q0 63 -37.5 97.5t-93.5 34.5
t-92.5 -34.5t-36.5 -97.5z" />
    <glyph glyph-name="glyph266" horiz-adv-x="830" 
d="M90 1290q0 58 33.5 89.5t92.5 31.5t92.5 -31.5t33.5 -89.5q0 -57 -33.5 -89t-92.5 -32t-92.5 32t-33.5 89zM487 1290q0 58 33.5 89.5t93.5 31.5q59 0 92.5 -31.5t33.5 -89.5q0 -57 -33.5 -89t-92.5 -32q-60 0 -93.5 32t-33.5 89z" />
    <glyph glyph-name="divide.tnum" 
d="M471 999q0 60 33.5 92t94.5 32t94.5 -32t33.5 -92t-33.5 -92.5t-94.5 -32.5t-94.5 32.5t-33.5 92.5zM218 761h763v-158h-763v158zM471 365q0 60 33.5 92.5t94.5 32.5t94.5 -32.5t33.5 -92.5t-33.5 -92t-94.5 -32t-94.5 32t-33.5 92z" />
    <glyph glyph-name="divide.aalt" horiz-adv-x="1038" 
d="M395 916q0 60 33 92t95 32q61 0 94.5 -32t33.5 -92t-33.5 -92.5t-94.5 -32.5t-94.5 32.5t-33.5 92.5zM141 678h764v-158h-764v158zM395 282q0 60 33.5 92.5t94.5 32.5t94.5 -32.5t33.5 -92.5t-33.5 -92t-94.5 -32t-94.5 32t-33.5 92z" />
    <glyph glyph-name="divide.aalt.tnum" 
d="M471 916q0 60 33.5 92t94.5 32t94.5 -32t33.5 -92t-33.5 -92.5t-94.5 -32.5t-94.5 32.5t-33.5 92.5zM218 678h763v-158h-763v158zM471 282q0 60 33.5 92.5t94.5 32.5t94.5 -32.5t33.5 -92.5t-33.5 -92t-94.5 -32t-94.5 32t-33.5 92z" />
    <glyph glyph-name="dollar.tnum" 
d="M491 1537h215l-11 -275q115 -8 243 -42l-31 -185q-139 38 -283 38q-99 0 -155 -35t-56 -100q0 -32 10 -56t32.5 -41t51 -28.5t60 -21t79 -22.5t60.5 -17q143 -40 211.5 -119.5t68.5 -215.5q0 -142 -82.5 -224t-241.5 -99l11 -277h-215l12 275q-148 11 -275 54l35 185
q53 -18 137 -33.5t158 -16.5q52 -1 99 5q143 20 143 132q0 21 -8.5 48.5t-40.5 51.5t-76.5 40.5t-214.5 63.5q-230 63 -230 316q0 121 82.5 208.5t223.5 110.5z" />
    <glyph glyph-name="dollar.aalt" horiz-adv-x="1062" 
d="M425 1466h215l-11 -276q122 -7 243 -42l-30 -185q-139 38 -284 38q-99 0 -154.5 -34.5t-55.5 -99.5q0 -32 10 -56.5t32 -41.5t51 -28.5t60.5 -21t79 -23t59.5 -16.5q143 -40 211.5 -119.5t68.5 -215.5q0 -141 -82.5 -223.5t-241.5 -99.5l11 -277h-215l12 275
q-157 13 -275 55l35 184q55 -17 138.5 -33t156.5 -17q64 0 99 5q67 10 105 40.5t38 92.5q0 21 -8.5 48.5t-37 49t-66.5 37t-228 68.5q-229 65 -229 317q0 121 82 208t223 110z" />
    <glyph glyph-name="dollar.aalt.tnum" 
d="M492 1466h216l-11 -276q122 -7 243 -42l-31 -185q-139 38 -283 38q-99 0 -155 -34.5t-56 -99.5q0 -32 10 -56.5t32.5 -41.5t51 -28.5t60 -21t79 -22.5t60.5 -17q142 -40 211 -119.5t69 -215.5q0 -141 -83 -223.5t-242 -99.5l12 -277h-216l12 275q-156 13 -274 55l35 184
q161 -50 295 -50q118 0 179.5 29t61.5 109q0 21 -8.5 48.5t-36.5 49t-66 37t-228 68.5q-230 65 -230 317q0 121 82.5 208t222.5 110z" />
    <glyph glyph-name="glyph276" horiz-adv-x="432" 
d="M90 1290q0 58 33.5 89.5t92.5 31.5t92.5 -31.5t33.5 -89.5q0 -57 -33.5 -89t-92.5 -32t-92.5 32t-33.5 89z" />
    <glyph glyph-name="e.sc" horiz-adv-x="918" 
d="M139 0v1036h700v-180h-475v-250h459v-170h-459v-256h493v-180h-718z" />
    <glyph glyph-name="eacute.sc" horiz-adv-x="918" 
d="M139 0v1036h700v-180h-475v-250h459v-170h-459v-256h493v-180h-718zM484 1112l-127 71l243 315l185 -110z" />
    <glyph glyph-name="ebreve.sc" horiz-adv-x="918" 
d="M139 0v1036h700v-180h-475v-250h459v-170h-459v-256h493v-180h-718zM192 1435h181q2 -54 29 -87.5t81 -33.5q55 0 81.5 33.5t28.5 87.5h182q0 -132 -79 -209t-213 -77t-212.5 77.5t-78.5 208.5z" />
    <glyph glyph-name="ecaron.sc" horiz-adv-x="918" 
d="M139 0v1036h700v-180h-475v-250h459v-170h-459v-256h493v-180h-718zM822 1458l-212 -317h-204l-212 317l197 16l117 -189l117 189z" />
    <glyph glyph-name="ecircumflex.sc" horiz-adv-x="918" 
d="M139 0v1036h700v-180h-475v-250h459v-170h-459v-256h493v-180h-718zM181 1150l200 316h205l200 -316l-195 -17l-108 186l-108 -186z" />
    <glyph glyph-name="edieresis.sc" horiz-adv-x="918" 
d="M139 0v1036h700v-180h-475v-250h459v-170h-459v-256h493v-180h-718zM157 1290q0 58 33.5 89.5t93.5 31.5q59 0 92.5 -31.5t33.5 -89.5q0 -57 -33.5 -89t-92.5 -32t-93 32t-34 89zM552 1290q0 58 33.5 89.5t92.5 31.5t92.5 -31.5t33.5 -89.5q0 -57 -33.5 -89t-92.5 -32
t-92.5 32t-33.5 89z" />
    <glyph glyph-name="edotaccent.sc" horiz-adv-x="918" 
d="M139 0v1036h700v-180h-475v-250h459v-170h-459v-256h493v-180h-718zM365 1290q0 58 33 89.5t93 31.5q59 0 92.5 -31.5t33.5 -89.5q0 -57 -33.5 -89t-92.5 -32t-92.5 32t-33.5 89z" />
    <glyph glyph-name="uni1EB9.sc" horiz-adv-x="918" 
d="M139 0v1036h700v-180h-475v-250h459v-170h-459v-256h493v-180h-718zM380 -288q0 60 33.5 92t94.5 32q62 0 95 -32t33 -92t-33.5 -92.5t-94.5 -32.5t-94.5 32.5t-33.5 92.5z" />
    <glyph glyph-name="egrave.sc" horiz-adv-x="918" 
d="M139 0v1036h700v-180h-475v-250h459v-170h-459v-256h493v-180h-718zM665 1183l-125 -71l-303 276l185 110z" />
    <glyph glyph-name="eight.tnum" 
d="M1061 319q0 -151 -125.5 -245t-336.5 -94q-212 0 -335 94t-123 248q0 117 64 203.5t202 158.5q-120 66 -178 144t-58 186q0 160 116 260t312 100t312 -100t116 -260q0 -89 -50.5 -168t-185.5 -155q140 -74 205 -162.5t65 -209.5zM599 159q99 0 165 50t66 136
q0 65 -48.5 127.5t-185.5 130.5q-117 -50 -172 -108.5t-55 -149.5q0 -86 65 -136t165 -50zM813 1005q0 89 -60.5 134.5t-153.5 45.5t-153 -45.5t-60 -134.5q0 -58 46.5 -112.5t170.5 -119.5q105 46 157.5 98.5t52.5 133.5z" />
    <glyph glyph-name="uniF738.tnum" 
d="M1061 319q0 -151 -125.5 -245t-336.5 -94q-212 0 -335 94t-123 248q0 117 64 203.5t202 158.5q-120 66 -178 144t-58 186q0 160 116 260t312 100t312 -100t116 -260q0 -89 -50.5 -168t-185.5 -155q140 -74 205 -162.5t65 -209.5zM599 159q99 0 165 50t66 136
q0 65 -48.5 127.5t-185.5 130.5q-117 -50 -172 -108.5t-55 -149.5q0 -86 65 -136t165 -50zM813 1005q0 89 -60.5 134.5t-153.5 45.5t-153 -45.5t-60 -134.5q0 -58 46.5 -112.5t170.5 -119.5q105 46 157.5 98.5t52.5 133.5z" />
    <glyph glyph-name="emacron.sc" horiz-adv-x="918" 
d="M139 0v1036h700v-180h-475v-250h459v-170h-459v-256h493v-180h-718zM185 1195v177h579v-177h-579z" />
    <glyph glyph-name="eng.sc" horiz-adv-x="1165" 
d="M606 -322q113 76 157.5 145t46.5 169l-448 712v-704h-223v1036h227l437 -715v715h223v-1049q-2 -147 -71.5 -253.5t-247.5 -201.5z" />
    <glyph glyph-name="eogonek.sc" horiz-adv-x="918" 
d="M139 0v1036h700v-180h-475v-250h459v-170h-459v-256h493v-180q-177 -119 -177 -226q0 -38 24 -59t66 -21q57 0 97 14l16 -155q-61 -21 -137 -21q-110 0 -178 47.5t-68 144.5q0 68 51.5 140t151.5 136h-564z" />
    <glyph glyph-name="equal.tnum" 
d="M234 943h731v-190h-731v190zM234 601h731v-190h-731v190z" />
    <glyph glyph-name="equal.aalt" horiz-adv-x="1014" 
d="M141 865h732v-190h-732v190zM141 523h732v-190h-732v190z" />
    <glyph glyph-name="equal.aalt.tnum" 
d="M234 865h731v-190h-731v190zM234 523h731v-190h-731v190z" />
    <glyph glyph-name="estimated.aalt" horiz-adv-x="1656" 
d="M1514 561h-1112q-10 0 -10 -10v-292q0 -22 17 -39q66 -69 172 -114t248 -45q126 0 236 41t191 119h115q-94 -111 -235.5 -176t-308.5 -65q-178 0 -335.5 77t-254 221.5t-96.5 318.5q0 157 86 299.5t247.5 231t352.5 88.5q174 0 332 -81t256.5 -230.5t98.5 -323.5v-20z
M1262 648v292q0 25 -18 40q-66 67 -171 112t-244 45q-126 0 -234 -39.5t-185 -117.5q-18 -18 -18 -43v-289q0 -10 10 -10h853q7 0 7 10z" />
    <glyph glyph-name="eth.sc" horiz-adv-x="1094" 
d="M41 445v148h116v443h391q140 0 239 -46t151.5 -118.5t56.5 -167.5l2 -124v-125l-2 -125q-4 -102 -55 -174t-146.5 -114t-235.5 -42h-401v445h-116zM772 348v318q0 81 -58.5 137.5t-167.5 56.5h-167v-267h202v-148h-202v-269h167q110 0 168 44.5t58 127.5z" />
    <glyph glyph-name="uni1EBD.sc" horiz-adv-x="918" 
d="M139 0v1036h700v-180h-475v-250h459v-170h-459v-256h493v-180h-718zM370 1406q43 0 119 -29t111 -29q56 0 113 66l104 -80q-12 -28 -39 -67t-74.5 -70t-106.5 -31q-43 0 -118.5 29t-111.5 29q-56 0 -113 -66l-104 80q12 28 39 67t74.5 70t106.5 31z" />
    <glyph glyph-name="exclam.sc" horiz-adv-x="482" 
d="M369 1196l-32 -814h-190l-32 814h254zM113 104q0 60 33.5 92.5t94.5 32.5t94.5 -32.5t33.5 -92.5t-33 -92t-95 -32q-61 0 -94.5 32t-33.5 92z" />
    <glyph glyph-name="exclamdown.sc" horiz-adv-x="482" 
d="M113 -160l33 814h189l33 -814h-255zM113 932q0 60 33.5 92t94.5 32q62 0 95 -32t33 -92t-33.5 -92.5t-94.5 -32.5t-94.5 32.5t-33.5 92.5z" />
    <glyph glyph-name="f.sc" horiz-adv-x="891" 
d="M139 0v1036h693v-184h-468v-250h451v-176h-451v-426h-225z" />
    <glyph glyph-name="glyph329" horiz-adv-x="1728" 
d="M392 1075v-79h217v-177h-214v-819h-224v819h-144v177h144v90q0 172 113 275t319 103q82 0 178 -17q57 -7 127.5 -21t79.5 -15v-504q144 109 293 109q67 0 129 -26t110 -76.5t75.5 -125.5t27.5 -166v-228q0 -197 -121.5 -305.5t-328.5 -108.5q-235 0 -403 76v1198
q-106 19 -168 19q-210 0 -210 -198zM1213 821q-44 0 -102 -18.5t-117 -66.5v-539q99 -28 185 -28q220 0 220 239v184q0 229 -186 229z" />
    <glyph glyph-name="glyph330" horiz-adv-x="1908" 
d="M139 0v1036h693v-184h-468v-250h451v-176h-451v-426h-225zM1445 0h-415v1036h405q183 0 276 -74t93 -210q0 -66 -37.5 -124.5t-124.5 -92.5q90 -30 147.5 -93t57.5 -147q0 -143 -105.5 -219t-296.5 -76zM1626 312q0 62 -49.5 104t-157.5 42h-171v-293h176q96 0 149 37
t53 110zM1430 602q69 0 115 32.5t46 103.5q0 64 -42 98.5t-127 34.5h-174v-269h182z" />
    <glyph glyph-name="uniFB00.sc" horiz-adv-x="1782" 
d="M139 0v1036h693v-184h-468v-250h451v-176h-451v-426h-225zM1030 0v1036h693v-184h-468v-250h451v-176h-451v-426h-225z" />
    <glyph glyph-name="glyph333" horiz-adv-x="2303" 
d="M27 819v177h144v132q0 143 87.5 229.5t237.5 86.5q92 0 176 -21l-26 -180q-78 12 -112 12q-74 0 -108 -34.5t-34 -112.5v-112h353v90q0 172 113.5 275t319.5 103q82 0 178 -17q57 -7 127.5 -21t79.5 -15v-504q144 109 293 109q67 0 129 -26t110 -76.5t75.5 -125.5
t27.5 -166v-228q0 -197 -121.5 -305.5t-329.5 -108.5q-233 0 -403 76v1198q-103 19 -167 19q-210 0 -210 -198v-79h217v-177h-214v-819h-225v819h-350v-819h-224v819h-144zM1788 821q-44 0 -102 -18.5t-117 -66.5v-539q99 -28 184 -28q220 0 220 239v184q0 229 -185 229z
" />
    <glyph glyph-name="glyph334" horiz-adv-x="2799" 
d="M139 0v1036h693v-184h-468v-250h451v-176h-451v-426h-225zM1030 0v1036h693v-184h-468v-250h451v-176h-451v-426h-225zM2336 0h-415v1036h404q183 0 276.5 -74t93.5 -210q0 -66 -37.5 -124.5t-124.5 -92.5q90 -30 147.5 -93t57.5 -147q0 -143 -105.5 -219t-296.5 -76z
M2517 312q0 62 -49.5 104t-157.5 42h-171v-293h176q96 0 149 37t53 110zM2321 602q69 0 114.5 32.5t45.5 103.5q0 64 -42 98.5t-126 34.5h-174v-269h182z" />
    <glyph glyph-name="glyph335" horiz-adv-x="2319" 
d="M27 819v177h144v132q0 143 87.5 229.5t237.5 86.5q92 0 176 -21l-26 -180q-78 12 -112 12q-73 0 -107.5 -34.5t-34.5 -112.5v-112h353v90q0 172 113.5 275t319.5 103q87 0 179 -18q56 -7 126 -20.5t80 -14.5v-520q175 125 337 125q132 0 205 -73.5t73 -209.5v-733h-225
v665q0 143 -137 143q-53 0 -120 -24.5t-127 -67.5v-716h-225v1254q-103 19 -167 19q-210 0 -210 -198v-79h217v-177h-214v-819h-225v819h-350v-819h-224v819h-144z" />
    <glyph glyph-name="glyph336" horiz-adv-x="2943" 
d="M139 0v1036h693v-184h-468v-250h451v-176h-451v-426h-225zM1030 0v1036h693v-184h-468v-250h451v-176h-451v-426h-225zM2804 0h-226v427h-431v-427h-226v1036h226v-422h431v422h226v-1036z" />
    <glyph glyph-name="glyph337" horiz-adv-x="2219" 
d="M27 819v177h144v132q0 143 87.5 229.5t237.5 86.5q92 0 176 -21l-26 -180q-78 12 -112 12q-74 0 -108 -34.5t-34 -112.5v-112h353v90q0 172 113.5 275t319.5 103q20 0 44 -6q53 1 119.5 -6.5t142.5 -23.5t81 -16v-812h127l227 396h250l-300 -489l312 -507h-250l-240 420
h-126v-420h-225v1255q-96 18 -163 18q-210 0 -210 -198v-79h217v-177h-214v-819h-225v819h-350v-819h-224v819h-144z" />
    <glyph glyph-name="glyph338" horiz-adv-x="2809" 
d="M139 0v1036h693v-184h-468v-250h451v-176h-451v-426h-225zM1030 0v1036h693v-184h-468v-250h451v-176h-451v-426h-225zM2513 1036h248l-289 -523l303 -513h-251l-244 427h-132v-427h-227v1036h227v-421h142z" />
    <glyph glyph-name="uniFB04.sc" horiz-adv-x="2640" 
d="M139 0v1036h693v-184h-468v-250h451v-176h-451v-426h-225zM1030 0v1036h693v-184h-468v-250h451v-176h-451v-426h-225zM2147 1036v-850h449v-186h-675v1036h226z" />
    <glyph glyph-name="glyph341" horiz-adv-x="1831" 
d="M27 819v177h144v132q0 143 87.5 229.5t237.5 86.5q92 0 176 -21l-26 -180q-78 12 -112 12q-74 0 -108 -34.5t-34 -112.5v-112h353v117q0 166 88.5 258.5t240.5 92.5q89 0 179 -21l-26 -180q-75 12 -118 12q-76 0 -109.5 -38.5t-33.5 -141.5v-99h348l19 278h198l1 -278
h232v-177h-228v-525q0 -62 27 -93.5t93 -31.5q54 0 127 14l15 -179q-85 -24 -195 -24q-132 0 -208.5 64.5t-80.5 196.5q-3 143 -3 578h-341v-819h-225v819h-350v-819h-224v819h-144z" />
    <glyph glyph-name="glyph342" horiz-adv-x="2694" 
d="M139 0v1036h693v-184h-468v-250h451v-176h-451v-426h-225zM1030 0v1036h693v-184h-468v-250h451v-176h-451v-426h-225zM2124 0v852h-307v184h842v-184h-307v-852h-228z" />
    <glyph glyph-name="glyph343" horiz-adv-x="1744" 
d="M27 819v177h144v90q0 172 113 275t319 103q87 0 179 -18q56 -7 126 -20.5t80 -14.5v-520q175 125 337 125q132 0 205 -73.5t73 -209.5v-733h-224v665q0 143 -138 143q-53 0 -120 -24.5t-127 -67.5v-716h-224v1254q-106 19 -168 19q-210 0 -210 -198v-79h217v-177h-214
v-819h-224v819h-144z" />
    <glyph glyph-name="glyph344" horiz-adv-x="2052" 
d="M139 0v1036h693v-184h-468v-250h451v-176h-451v-426h-225zM1913 0h-226v427h-431v-427h-226v1036h226v-422h431v422h226v-1036z" />
    <glyph glyph-name="glyph345" horiz-adv-x="1644" 
d="M392 1075v-79h217v-178h-214v-818h-224v818h-144v178h144v90q0 172 113 275t319 103q90 0 178 -17q55 -7 126 -20.5t83 -14.5v-812h127l227 396h251l-301 -489l312 -507h-250l-240 420h-126v-420h-225v1255q-96 18 -163 18q-210 0 -210 -198z" />
    <glyph glyph-name="glyph346" horiz-adv-x="1918" 
d="M139 0v1036h693v-184h-468v-250h451v-176h-451v-426h-225zM1623 1036h247l-289 -523l303 -513h-251l-244 427h-132v-427h-227v1036h227v-421h142z" />
    <glyph glyph-name="uniFB02.sc" horiz-adv-x="1749" 
d="M139 0v1036h693v-184h-468v-250h451v-176h-451v-426h-225zM1256 1036v-850h449v-186h-675v1036h226z" />
    <glyph glyph-name="glyph349" horiz-adv-x="1256" 
d="M27 819v177h144v117q0 166 88 258.5t240 92.5q92 0 179 -21l-26 -180q-75 12 -118 12q-76 0 -109 -38.5t-33 -141.5v-99h347l20 278h197l1 -278h232v-177h-228v-525q0 -62 27 -93.5t93 -31.5q51 0 128 14l15 -179q-80 -22 -175 -23q-59 0 -95 7q-208 34 -215 253l-2 578
h-342v-819h-224v819h-144z" />
    <glyph glyph-name="glyph350" horiz-adv-x="1803" 
d="M139 0v1036h693v-184h-468v-250h451v-176h-451v-426h-225zM1233 0v852h-307v184h842v-184h-307v-852h-228z" />
    <glyph glyph-name="glyph351" horiz-adv-x="1859" 
d="M27 819v177h144v117q0 166 88 258.5t240 92.5q98 0 180 -22l-27 -179q-75 12 -118 12q-76 0 -109 -38.5t-33 -141.5v-99h347l20 266h197l1 -266h388l14 278h200l1 -278h232v-177h-227v-525q0 -62 27 -93.5t92 -31.5q55 0 128 14l15 -179q-85 -24 -195 -24q-133 0 -210 65
t-80 199l-2 575h-379v-529q0 -60 27 -90.5t93 -30.5q54 0 124 14l15 -179q-85 -24 -192 -24q-132 0 -209 65t-81 199l-1 575h-342v-819h-224v819h-144z" />
    <glyph glyph-name="glyph352" horiz-adv-x="2715" 
d="M139 0v1036h693v-184h-468v-250h451v-176h-451v-426h-225zM1233 0v852h-307v184h842v-184h-307v-852h-228zM2145 0v852h-307v184h842v-184h-307v-852h-228z" />
    <glyph glyph-name="five.tnum" 
d="M1012 392q0 -208 -128.5 -310t-363.5 -102q-189 0 -347 40l30 196q151 -32 297 -32q283 0 283 211q0 223 -314 225q-83 1 -258 -5l30 739h700v-201h-513l-15 -350q57 1 133 -2q104 -5 190 -32t147.5 -77.5t95 -126.5t33.5 -173z" />
    <glyph glyph-name="uniF735.tnum" 
d="M1012 251q0 -208 -128.5 -310t-363.5 -102q-198 0 -347 40l30 196q151 -32 297 -32q283 0 283 211q0 223 -314 225q-165 0 -258 -6l30 740h700v-201h-513l-15 -350l133 -2q104 -5 190 -32t147.5 -77.5t95 -126.5t33.5 -173z" />
    <glyph glyph-name="florin.tnum" 
d="M262 589v178h200l49 274q59 332 400 332q83 0 164 -21l-41 -180q-88 13 -128 13q-78 0 -119 -39t-59 -143l-41 -236h241v-178h-273l-135 -746q-30 -163 -127.5 -236.5t-259.5 -73.5q-80 0 -155 21l43 180q81 -13 120 -13q73 0 112 37.5t56 136.5l122 694h-169z" />
    <glyph glyph-name="florin.aalt" horiz-adv-x="1045" 
d="M213 601l20 177h179l50 277q29 159 127 244t257 85q98 0 181 -20l-49 -181q-65 13 -122 13q-78 0 -117 -38.5t-57 -143.5l-42 -236h243l-21 -177h-253l-78 -442q-62 -347 -390 -347q-107 0 -180 20l51 181q65 -13 120 -13q76 0 117 41t59 141l73 419h-168z" />
    <glyph glyph-name="florin.aalt.tnum" 
d="M309 601l21 177h179l31 181l18 94q56 284 303 324q46 9 99 7q91 -1 163 -20l-49 -181q-65 13 -121 13q-78 0 -117 -38.5t-58 -143.5l-41 -236h242l-20 -177h-254l-78 -442q-54 -300 -306 -340q-46 -9 -100 -7q-92 1 -164 20l51 181q65 -13 120 -13q76 0 117 41t59 141
l73 419h-168z" />
    <glyph glyph-name="glyph361" horiz-adv-x="2301" 
d="M200 945v71h295v-71h-112v-302h-80v302h-103zM449 643v253h81v-253h-81zM594 547v349h65l9 -24l8 7q6 7 23 14.5t35 7.5q48 0 75.5 -35.5t27.5 -93.5q0 -59 -33 -96t-88 -37q-23 0 -40 10v-102h-82zM676 826v-117q9 -9 30 -9q23 0 35.5 19t12.5 50t-12 50t-34 19
q-20 0 -32 -12zM1002 901q62 0 95 -36.5t33 -92.5q0 -61 -35 -97t-96 -36q-57 0 -91 35.5t-34 92.5q0 58 33.5 96t94.5 38zM1001 843q-45 0 -45 -71q0 -75 46 -75q45 0 45 72q0 74 -46 74zM1593 547v349h66l8 -24l7 7q7 7 24.5 14.5t35.5 7.5q47 0 75 -35.5t28 -93.5
q0 -59 -33.5 -96t-87.5 -37q-24 0 -42 10v-102h-81zM1674 826v-117q16 -9 33 -9q16 0 31 15t15 54q0 69 -46 69q-19 0 -33 -12zM1078 945v71h283v-71h-101v-302h-81v302h-101zM1386 659l-89 237h89l51 -173h3l41 173h88l-80 -257q-19 -54 -48.5 -78t-77.5 -24q-31 0 -60 13
l9 59q30 -6 46 -6q31 0 37 29zM2093 754h-139q4 -49 55 -49q37 0 69 13l17 -58q-39 -21 -95 -21q-58 0 -93 35.5t-35 92.5q0 58 33.5 96t94.5 38q46 0 73.5 -26.5t27.5 -68.5q0 -33 -8 -52zM1954 797h70q4 20 -4.5 33t-25.5 13q-35 0 -40 -46zM321 426h9l38 -102l37 106h12
l-43 -119h-12l-37 101l-38 -101h-10l-43 119h12l37 -106zM508 426h10l39 -102l35 106h12l-42 -119h-11l-38 101l-36 -101h-11l-43 119h10l38 -106zM697 426h9l38 -102l38 106h11l-43 -119h-12l-37 101l-37 -101h-10l-44 119h12l37 -106zM806 326q6 0 6 -8q0 -10 -8 -10
q-7 0 -7 9t9 9zM831 423v7h91v-7h-39v-112h-11v112h-41zM945 311v119h11v-119h-11zM1006 311h-10v119h36q43 0 43 -35q0 -12 -9.5 -24t-34.5 -12h-25v-48zM1031 423h-25v-56h26q14 0 23 7.5t9 19.5q0 29 -33 29zM1091 370q0 27 17 45t43 18t42 -18t16 -45t-16.5 -44.5
t-43.5 -17.5q-24 0 -41 18t-17 44zM1198 369q0 25 -13.5 39.5t-35.5 14.5q-20 0 -33 -14t-13 -38t13 -38.5t35 -14.5q20 0 33.5 13.5t13.5 37.5zM1218 423v7h91v-7h-40v-112h-10v112h-41zM1360 311v46l-45 73h11l40 -65l40 65h11l-46 -73v-46h-11zM1450 311h-10v119h37
q42 0 42 -35q0 -12 -9.5 -24t-33.5 -12h-26v-48zM1476 423h-26v-56h27q31 0 31 27q0 29 -32 29zM1616 430v-7h-61v-48h59v-9h-59v-47h63v-8h-73v119h71zM1655 326q8 0 8 -8q0 -10 -8 -10t-8 9t8 9zM1751 433l27 -6l-3 -7l-25 3q-22 0 -35.5 -13.5t-13.5 -38.5
q0 -24 14 -38.5t40 -14.5l25 4l3 -8l-30 -6q-28 0 -46 18t-18 44q0 28 17 45.5t45 17.5zM1800 370q0 28 16 45.5t43 17.5q25 0 42 -18t17 -45q0 -26 -17 -44t-43 -18q-25 0 -41.5 18t-16.5 44zM1906 369q0 25 -13.5 39.5t-34.5 14.5t-34.5 -14t-13.5 -38t13.5 -38.5
t35.5 -14.5q20 0 33.5 13.5t13.5 37.5zM1948 311v119h15l50 -90l48 90h16v-119h-11v108l-49 -91h-8l-50 91v-108h-11z" />
    <glyph glyph-name="four.tnum" 
d="M711 1354h206v-870h176v-186h-176v-298h-215v298h-577v178zM361 484h345v520z" />
    <glyph glyph-name="uniF734.tnum" 
d="M711 1213h206v-870h176v-186h-176v-298h-215v298h-577v178zM361 343h345v520z" />
    <glyph glyph-name="uni2074.aalt" horiz-adv-x="640" 
d="M30 624v138l300 432v2h180v-426h108v-146h-108v-131h-185v131h-295zM215 765h121v179z" />
    <glyph glyph-name="fraction.aalt" horiz-adv-x="1027" 
d="M100 669h836v-143h-836v143z" />
    <glyph glyph-name="franc.tnum" 
d="M264 0v216h-162v150h162v988h793v-199h-561v-374h541v-198h-541v-217h279v-150h-279v-216h-232z" />
    <glyph glyph-name="franc.aalt" horiz-adv-x="1066" 
d="M236 0v184h-146v149h146v863h724v-192h-504v-310h486v-190h-486v-171h253v-149h-253v-184h-220z" />
    <glyph glyph-name="franc.aalt.tnum" 
d="M299 0v184h-146v149h146v863h724v-192h-504v-310h487v-190h-487v-171h254v-149h-254v-184h-220z" />
    <glyph glyph-name="g.salt" horiz-adv-x="983" 
d="M79 619v71q0 50 19.5 105.5t66 104t120 82.5t168.5 34q129 0 196.5 -76.5t75.5 -201.5q9 146 -27 278l203 -20q36 -339 -70.5 -521t-351.5 -182q-59 0 -106 10q-63 -47 -63 -92q0 -27 19.5 -42.5t53.5 -15.5h239q111 0 190 -42.5t120 -112.5t41 -165q0 -88 -46.5 -154.5
t-136.5 -108t-217 -41.5h-158q-167 0 -261.5 67.5t-94.5 190.5q0 66 41.5 126t121.5 104q-43 21 -70.5 59.5t-27.5 83.5q0 54 34.5 103t86.5 85q-78 43 -122 114t-44 157zM291 685v-51q0 -77 48.5 -128t140.5 -51q91 0 139.5 51.5t48.5 127.5v41q0 76 -48 129.5t-140 53.5
q-90 0 -139.5 -50.5t-49.5 -122.5zM591 -20h-225q-46 -23 -79.5 -64t-33.5 -92q0 -57 45.5 -91t142.5 -34h110q116 0 165 31.5t49 104.5q0 145 -174 145z" />
    <glyph glyph-name="g.sc" horiz-adv-x="982" 
d="M887 516v-477q-66 -25 -163.5 -42t-194.5 -17q-134 0 -229 46.5t-146.5 122.5t-55.5 178l-2 118v233q0 113 53.5 195.5t158 132.5t257.5 50q164 0 305 -51l-36 -178q-48 15 -117 27.5t-131 12.5q-127 0 -197.5 -54t-70.5 -150v-304q0 -95 60.5 -143.5t174.5 -48.5
q70 0 135 15v334h199z" />
    <glyph glyph-name="gbreve.sc" horiz-adv-x="982" 
d="M887 516v-477q-66 -25 -163.5 -42t-194.5 -17q-134 0 -229 46.5t-146.5 122.5t-55.5 178l-2 118v233q0 113 53.5 195.5t158 132.5t257.5 50q164 0 305 -51l-36 -178q-48 15 -117 27.5t-131 12.5q-127 0 -197.5 -54t-70.5 -150v-304q0 -95 60.5 -143.5t174.5 -48.5
q70 0 135 15v334h199zM227 1435h182q2 -54 29 -87.5t81 -33.5t81 33.5t29 87.5h182q0 -132 -79 -209t-213 -77t-213 77t-79 209z" />
    <glyph glyph-name="gcaron.sc" horiz-adv-x="982" 
d="M887 516v-477q-66 -25 -163.5 -42t-194.5 -17q-134 0 -229 46.5t-146.5 122.5t-55.5 178l-2 118v233q0 113 53.5 195.5t158 132.5t257.5 50q164 0 305 -51l-36 -178q-48 15 -117 27.5t-131 12.5q-127 0 -197.5 -54t-70.5 -150v-304q0 -95 60.5 -143.5t174.5 -48.5
q70 0 135 15v334h199zM843 1458l-212 -317h-204l-212 317l197 16l117 -189l117 189z" />
    <glyph glyph-name="gcircumflex.sc" horiz-adv-x="982" 
d="M887 516v-477q-66 -25 -163.5 -42t-194.5 -17q-134 0 -229 46.5t-146.5 122.5t-55.5 178l-2 118v233q0 113 53.5 195.5t158 132.5t257.5 50q164 0 305 -51l-36 -178q-48 15 -117 27.5t-131 12.5q-127 0 -197.5 -54t-70.5 -150v-304q0 -95 60.5 -143.5t174.5 -48.5
q70 0 135 15v334h199zM229 1150l200 316h205l200 -316l-195 -17l-107 186l-108 -186z" />
    <glyph glyph-name="gcommaaccent.sc" horiz-adv-x="982" 
d="M887 516v-477q-66 -25 -163.5 -42t-194.5 -17q-134 0 -229 46.5t-146.5 122.5t-55.5 178l-2 118v233q0 113 53.5 195.5t158 132.5t257.5 50q164 0 305 -51l-36 -178q-48 15 -117 27.5t-131 12.5q-127 0 -197.5 -54t-70.5 -150v-304q0 -95 60.5 -143.5t174.5 -48.5
q70 0 135 15v334h199zM435 -98h209l-3 -60q-2 -100 -40 -202t-98 -165h-155q35 70 61 163t26 182v82z" />
    <glyph glyph-name="gdotaccent.sc" horiz-adv-x="982" 
d="M887 516v-477q-66 -25 -163.5 -42t-194.5 -17q-134 0 -229 46.5t-146.5 122.5t-55.5 178l-2 118v233q0 113 53.5 195.5t158 132.5t257.5 50q164 0 305 -51l-36 -178q-48 15 -117 27.5t-131 12.5q-127 0 -197.5 -54t-70.5 -150v-304q0 -95 60.5 -143.5t174.5 -48.5
q70 0 135 15v334h199zM395 1290q0 58 33.5 89.5t92.5 31.5t92.5 -31.5t33.5 -89.5q0 -57 -33.5 -89t-92.5 -32t-92.5 32t-33.5 89z" />
    <glyph glyph-name="germandbls.sc" horiz-adv-x="1787" 
d="M825 281q0 -148 -103 -224.5t-300 -76.5q-81 0 -176 11.5t-169 37.5l29 177q153 -43 284 -43q104 0 159 25.5t55 93.5q0 30 -13.5 56t-43.5 44t-62.5 29t-196.5 57q-203 55 -203 287q0 80 44.5 152.5t135.5 110.5t199 38q152 0 314 -39l-26 -181q-136 37 -259 37
q-90 0 -139.5 -31t-49.5 -87q0 -29 8.5 -51t28.5 -37t46 -25.5t54.5 -19.5t72.5 -21t57 -16q130 -36 192 -108t62 -196zM1719 281q0 -148 -103.5 -224.5t-300.5 -76.5q-80 0 -175 11.5t-170 37.5l30 177q151 -43 284 -43q104 0 159 25.5t55 93.5q0 30 -13.5 56t-43.5 44
t-62.5 29t-196.5 57q-204 55 -204 287q0 47 17 98t61 96t119 76t183 31q154 0 313 -39l-25 -181q-136 37 -260 37q-89 0 -138.5 -31t-49.5 -87q0 -29 8.5 -51t28.5 -37t46 -25.5t54.5 -19.5t72.5 -21t57 -16q130 -36 192 -108t62 -196z" />
    <glyph glyph-name="glyph390" horiz-adv-x="607" 
d="M516 1183l-125 -71l-303 276l185 110z" />
    <glyph glyph-name="greater.tnum" 
d="M448 189l-149 136l411 352l-411 352l149 136l559 -488z" />
    <glyph glyph-name="greater.aalt" horiz-adv-x="991" 
d="M290 110l-149 136l411 352l-411 352l149 136l559 -488z" />
    <glyph glyph-name="greater.aalt.tnum" 
d="M448 110l-149 136l411 352l-411 352l149 136l559 -488z" />
    <glyph glyph-name="greaterequal.tnum" 
d="M299 196h676v-158h-676v158zM448 331l-149 136l411 352l-411 352l149 137l559 -489z" />
    <glyph glyph-name="greaterequal.aalt" horiz-adv-x="991" 
d="M141 139h676v-158h-676v158zM290 273l-149 137l411 352l-411 352l149 136l559 -488z" />
    <glyph glyph-name="greaterequal.aalt.tnum" 
d="M299 139h676v-158h-676v158zM448 273l-149 137l411 352l-411 352l149 136l559 -488z" />
    <glyph glyph-name="h.sc" horiz-adv-x="1161" 
d="M1022 0h-226v427h-431v-427h-226v1036h226v-422h431v422h226v-1036z" />
    <glyph glyph-name="hbar.sc" horiz-adv-x="1201" 
d="M34 747v144h125v145h226v-145h431v145h226v-145h126v-144h-126v-747h-226v427h-431v-427h-226v747h-125zM385 614h431v133h-431v-133z" />
    <glyph glyph-name="hcircumflex.sc" horiz-adv-x="1161" 
d="M1022 0h-226v427h-431v-427h-226v1036h226v-422h431v422h226v-1036zM277 1150l201 316h204l201 -316l-195 -17l-108 186l-108 -186z" />
    <glyph glyph-name="glyph412" horiz-adv-x="859" 
d="M237 1121l-140 34l115 367l203 -58zM559 1121l-140 38l145 359l207 -65z" />
    <glyph glyph-name="i.aalt" horiz-adv-x="494" 
d="M135 996h224v-996h-224v996zM117 1287q0 60 33.5 92t94.5 32q62 0 95 -32t33 -92t-33.5 -92.5t-94.5 -32.5t-94.5 32.5t-33.5 92.5z" />
    <glyph glyph-name="i.sc" horiz-adv-x="504" 
d="M365 1036v-1036h-226v1036h226z" />
    <glyph glyph-name="iacute.sc" horiz-adv-x="504" 
d="M365 1036v-1036h-226v1036h226zM236 1112l-127 71l243 315l185 -110z" />
    <glyph glyph-name="ibreve.sc" horiz-adv-x="504" 
d="M365 1036v-1036h-226v1036h226zM-40 1435h182q2 -54 29 -87.5t81 -33.5t81 33.5t29 87.5h182q0 -132 -79 -209t-213 -77t-213 77t-79 209z" />
    <glyph glyph-name="icircumflex.sc" horiz-adv-x="504" 
d="M365 1036v-1036h-226v1036h226zM-51 1150l201 316h204l201 -316l-195 -17l-108 186l-108 -186z" />
    <glyph glyph-name="idieresis.sc" horiz-adv-x="504" 
d="M365 1036v-1036h-226v1036h226zM-61 1290q0 58 33.5 89.5t92.5 31.5t92.5 -31.5t33.5 -89.5q0 -57 -33.5 -89t-92.5 -32t-92.5 32t-33.5 89zM313 1290q0 58 33.5 89.5t92.5 31.5t92.5 -31.5t33.5 -89.5q0 -57 -33.5 -89t-92.5 -32t-92.5 32t-33.5 89z" />
    <glyph glyph-name="i.aalt.sc" horiz-adv-x="504" 
d="M365 1036v-1036h-226v1036h226zM126 1290q0 58 33.5 89.5t92.5 31.5t92.5 -31.5t33.5 -89.5q0 -57 -33.5 -89t-92.5 -32t-92.5 32t-33.5 89z" />
    <glyph glyph-name="uni1ECB.sc" horiz-adv-x="504" 
d="M365 1036v-1036h-226v1036h226zM124 -288q0 60 33 92t95 32q61 0 94.5 -32t33.5 -92t-33.5 -92.5t-94.5 -32.5t-94.5 32.5t-33.5 92.5z" />
    <glyph glyph-name="igrave.sc" horiz-adv-x="504" 
d="M365 1036v-1036h-226v1036h226zM397 1183l-125 -71l-303 276l185 110z" />
    <glyph glyph-name="ij.sc" horiz-adv-x="1009" 
d="M365 1036v-1036h-226v1036h226zM643 1036h227v-1036q0 -123 -66 -212.5t-231 -164.5l-99 141q94 55 131.5 111t37.5 137v1024z" />
    <glyph glyph-name="glyph432" horiz-adv-x="1029" 
d="M653 996h225v-1002q0 -150 -70.5 -258.5t-253.5 -203.5l-101 150q126 85 163 159.5t37 166.5v988zM151 996h225v-996h-225v996zM242 1089l-124 70l262 339l184 -109zM745 1089l-124 70l262 339l184 -109z" />
    <glyph glyph-name="glyph433" horiz-adv-x="1009" 
d="M643 1036h227v-1036q0 -123 -66 -212.5t-231 -164.5l-99 141q94 55 131.5 111t37.5 137v1024zM365 1036v-1036h-226v1036h226zM236 1112l-127 71l243 315l185 -110zM740 1112l-127 71l243 315l185 -110z" />
    <glyph glyph-name="imacron.sc" horiz-adv-x="504" 
d="M365 1036v-1036h-226v1036h226zM-37 1195v177h578v-177h-578z" />
    <glyph glyph-name="iogonek.sc" horiz-adv-x="504" 
d="M365 1036v-1036q-177 -119 -177 -226q0 -38 24 -59t66 -21q57 0 97 14l16 -155q-60 -21 -137 -21q-110 0 -178 47.5t-68 144.5q0 68 51.5 140t152.5 136h-73v1036h226z" />
    <glyph glyph-name="itilde.sc" horiz-adv-x="504" 
d="M365 1036v-1036h-226v1036h226zM139 1406q43 0 118.5 -29t111.5 -29q56 0 113 66l104 -80q-12 -28 -39.5 -67t-75 -70t-105.5 -31q-43 0 -119 29t-111 29q-56 0 -113 -66l-104 80q12 28 39 67t74.5 70t106.5 31z" />
    <glyph glyph-name="j.sc" horiz-adv-x="505" 
d="M139 1036h227v-1036q0 -123 -66 -212.5t-231 -164.5l-98 141q93 55 130.5 111t37.5 137v1024z" />
    <glyph glyph-name="jcircumflex.sc" horiz-adv-x="505" 
d="M139 1036h227v-1036q0 -123 -66 -212.5t-231 -164.5l-98 141q93 55 130.5 111t37.5 137v1024zM-48 1150l200 316h205l200 -316l-195 -17l-107 186l-108 -186z" />
    <glyph glyph-name="k.sc" horiz-adv-x="1027" 
d="M732 1036h247l-289 -523l303 -513h-250l-245 427h-132v-427h-227v1036h227v-421h143z" />
    <glyph glyph-name="kcommaaccent.sc" horiz-adv-x="1027" 
d="M732 1036h247l-289 -523l303 -513h-250l-245 427h-132v-427h-227v1036h227v-421h143zM434 -98h209l-2 -57q-2 -101 -40.5 -204.5t-97.5 -165.5h-155q34 71 60 163.5t26 181.5v82z" />
    <glyph glyph-name="kgreenlandic.sc" horiz-adv-x="1027" 
d="M732 1036h247l-289 -523l303 -513h-250l-245 427h-132v-427h-227v1036h227v-421h143z" />
    <glyph glyph-name="l.sc" horiz-adv-x="858" 
d="M365 1036v-850h449v-186h-675v1036h226z" />
    <glyph glyph-name="lacute.sc" horiz-adv-x="858" 
d="M365 1036v-850h449v-186h-675v1036h226zM226 1112l-127 71l243 315l185 -110z" />
    <glyph glyph-name="lcaron.sc" horiz-adv-x="870" 
d="M573 1141h197l-13 -480h-172zM365 1036v-850h449v-186h-675v1036h226z" />
    <glyph glyph-name="lcommaaccent.sc" horiz-adv-x="858" 
d="M365 1036v-850h449v-186h-675v1036h226zM366 -98h209l-3 -60q-2 -100 -40 -202t-98 -165h-155q35 70 61 163t26 182v82z" />
    <glyph glyph-name="ldot.sc" horiz-adv-x="880" 
d="M365 1036v-850h449v-186h-675v1036h226zM546 575q0 58 33.5 89.5t92.5 31.5q60 0 93.5 -31.5t33.5 -89.5t-33.5 -89.5t-93.5 -31.5q-59 0 -92.5 31.5t-33.5 89.5z" />
    <glyph glyph-name="less.tnum" 
d="M752 1165l149 -136l-411 -352l411 -352l-149 -136l-559 488z" />
    <glyph glyph-name="less.aalt" horiz-adv-x="991" 
d="M700 1086l149 -136l-411 -352l411 -352l-149 -136l-559 488z" />
    <glyph glyph-name="less.aalt.tnum" 
d="M752 1086l149 -136l-411 -352l411 -352l-149 -136l-559 488z" />
    <glyph glyph-name="lessequal.tnum" 
d="M225 196h676v-158h-676v158zM752 1308l149 -137l-411 -352l411 -352l-149 -136l-559 488z" />
    <glyph glyph-name="lessequal.aalt" horiz-adv-x="991" 
d="M173 139h676v-158h-676v158zM700 1250l149 -136l-411 -352l411 -352l-149 -137l-559 489z" />
    <glyph glyph-name="lessequal.aalt.tnum" 
d="M225 139h676v-158h-676v158zM752 1250l149 -136l-411 -352l411 -352l-149 -137l-559 489z" />
    <glyph glyph-name="lira.tnum" horiz-adv-x="1186" 
d="M155 174q90 0 133.5 42t43.5 138v118h-157v148h754v-148h-369v-130q0 -105 -61 -168h560v-194h-904v194zM175 880h157v72q0 80 23.5 155t78 134t140.5 96t202 37q136 0 272 -35l-24 -198q-117 28 -233 28q-112 0 -171 -61t-59 -177v-51h368v-148h-754v148z" />
    <glyph glyph-name="lira.aalt" horiz-adv-x="1089" 
d="M152 555h695v-146h-333v-105q0 -80 -42 -135h492v-189h-830v189h8q77 2 114 35t38 109v96h-142v146zM152 785h142v53q0 115 48 197.5t139 131.5t220 49q130 0 254 -33l-24 -190q-110 25 -213 25q-99 0 -150.5 -51t-52.5 -182h332v-145h-695v145z" />
    <glyph glyph-name="lira.aalt.tnum" 
d="M214 555h695v-146h-333v-105q-1 -82 -42 -135h492v-189h-830v189h8q77 2 114 35t38 109v96h-142v146zM214 785h142v53q0 115 48 197.5t139 131.5t220 49q130 0 254 -33l-24 -190q-110 25 -213 25q-99 0 -150.5 -51t-52.5 -182h332v-145h-695v145z" />
    <glyph glyph-name="logicalnot.tnum" 
d="M813 337v243h-631v194h835v-437h-204z" />
    <glyph glyph-name="logicalnot.aalt" horiz-adv-x="1117" 
d="M772 258v244h-631v193h835v-437h-204z" />
    <glyph glyph-name="logicalnot.aalt.tnum" 
d="M813 258v244h-631v193h835v-437h-204z" />
    <glyph glyph-name="lslash.sc" horiz-adv-x="883" 
d="M390 1036v-363l195 93l64 -135l-259 -122v-323h449v-186h-675v402l-97 -46l-64 134l161 76v470h226z" />
    <glyph glyph-name="m.sc" horiz-adv-x="1367" 
d="M1013 0v709l-265 -570h-131l-264 570v-709h-214v1036h257l286 -647l288 647h258v-1036h-215z" />
    <glyph glyph-name="glyph481" horiz-adv-x="758" 
d="M90 1195v177h579v-177h-579z" />
    <glyph glyph-name="minus.tnum" 
d="M242 774h715v-194h-715v194z" />
    <glyph glyph-name="minus.aalt" horiz-adv-x="997" 
d="M141 694h715v-193h-715v193z" />
    <glyph glyph-name="minus.aalt.tnum" 
d="M242 694h715v-193h-715v193z" />
    <glyph glyph-name="uni00B5.tnum" 
d="M1014 0h-190l-14 113q-147 -119 -280 -122q-65 -3 -117 20q-1 -160 -69 -270.5t-255 -208.5l-101 150q114 76 157.5 148t43.5 178v988h224v-665q0 -143 133 -143q52 0 118.5 24t124.5 67v717h225v-996z" />
    <glyph glyph-name="uni00B5.aalt" horiz-adv-x="1118" 
d="M967 0h-190l-14 113q-147 -119 -280 -122q-66 -3 -117 20q-2 -160 -69.5 -270.5t-254.5 -208.5l-101 150q126 85 163 159.5t37 166.5v988h225v-665q0 -143 133 -143q52 0 118 24t125 67v717h225v-996z" />
    <glyph glyph-name="uni00B5.aalt.tnum" 
d="M1014 0h-190l-14 113q-147 -119 -280 -122q-65 -3 -117 20q-1 -160 -69 -270.5t-255 -208.5l-101 150q114 76 157.5 148t43.5 178v988h224v-665q0 -143 133 -143q52 0 118.5 24t124.5 67v717h225v-996z" />
    <glyph glyph-name="multiply.tnum" 
d="M855 1079l147 -147l-261 -260l250 -249l-138 -138l-249 250l-259 -260l-147 147l259 259l-249 250l138 137l249 -249z" />
    <glyph glyph-name="multiply.aalt" horiz-adv-x="1086" 
d="M798 1000l147 -146l-260 -260l249 -249l-138 -138l-249 249l-259 -259l-147 146l259 260l-249 249l138 138l249 -249z" />
    <glyph glyph-name="multiply.aalt.tnum" 
d="M855 1000l147 -146l-261 -260l250 -249l-138 -138l-249 249l-259 -259l-147 146l259 260l-249 249l138 138l249 -249z" />
    <glyph glyph-name="n.sc" horiz-adv-x="1165" 
d="M800 0l-438 703v-703h-223v1036h227l437 -703v703h223v-1036h-226z" />
    <glyph glyph-name="nacute.sc" horiz-adv-x="1165" 
d="M800 0l-438 703v-703h-223v1036h227l437 -703v703h223v-1036h-226zM581 1112l-127 71l243 315l185 -110z" />
    <glyph glyph-name="napostrophe.sc" horiz-adv-x="1165" 
d="M76 1624h204v-55q0 -220 -117 -392h-152q27 66 46 165t19 195v87zM800 0l-438 703v-703h-223v1036h227l437 -703v703h223v-1036h-226z" />
    <glyph glyph-name="ncaron.sc" horiz-adv-x="1165" 
d="M800 0l-438 703v-703h-223v1036h227l437 -703v703h223v-1036h-226zM896 1458l-220 -333h-204l-220 333l197 16l125 -205l125 205z" />
    <glyph glyph-name="ncommaaccent.sc" horiz-adv-x="1165" 
d="M800 0l-438 703v-703h-223v1036h227l437 -703v703h223v-1036h-226zM503 -98h209l-3 -60q-2 -100 -40 -202t-98 -165h-155q35 70 61 163t26 182v82z" />
    <glyph glyph-name="uni0272.sc" horiz-adv-x="1165" 
d="M800 0l-438 703v-384q0 -183 -14 -370q-9 -133 -76 -231t-233 -186l-101 146q114 77 157.5 150t43.5 180v1028h227l437 -703v703h223v-1036h-226z" />
    <glyph glyph-name="nine.tnum" 
d="M1041 960v-399l-2 -136q-6 -213 -138.5 -329t-370.5 -116q-75 0 -170 13t-154 35l32 196q102 -27 151.5 -34t105.5 -7q176 0 252.5 69t76.5 216v125q-137 -57 -260 -57q-139 0 -233.5 54t-143.5 147t-49 224q0 190 119.5 301.5t331.5 111.5q97 0 180.5 -26.5t144 -78.5
t94 -131t33.5 -178zM596 724q47 0 109.5 11.5t118.5 38.5v191q0 101 -63.5 158t-171.5 57q-106 0 -168 -55.5t-62 -150.5q0 -250 237 -250z" />
    <glyph glyph-name="uniF739.tnum" 
d="M1041 802v-399l-2 -136q-6 -213 -138.5 -329t-370.5 -116q-75 0 -170 13t-154 35l32 196q102 -27 151.5 -34t105.5 -7q74 0 133.5 11.5t101.5 40.5t68 91.5t26 266.5q-137 -57 -260 -57q-139 0 -233.5 54t-143.5 147t-49 224q0 190 119.5 301.5t331.5 111.5
q97 0 180.5 -26.5t144 -78.5t94 -131t33.5 -178zM596 566q47 0 109.5 11.5t118.5 38.5v191q0 101 -63.5 158t-171.5 57q-106 0 -168 -55.5t-62 -150.5q0 -250 237 -250z" />
    <glyph glyph-name="notequal.tnum" 
d="M234 753v190h418l150 299l127 -58l-121 -241h157v-190h-250l-76 -152h326v-190h-419l-149 -299l-127 57l121 242h-157v190h249l77 152h-326z" />
    <glyph glyph-name="notequal.aalt" horiz-adv-x="1014" 
d="M141 675v190h419l149 299l127 -58l-121 -241h158v-190h-251l-76 -153h327v-189h-420l-148 -299l-127 57l120 242h-157v189h250l77 153h-327z" />
    <glyph glyph-name="notequal.aalt.tnum" 
d="M234 675v190h418l150 299l127 -58l-121 -241h157v-190h-250l-76 -153h326v-189h-419l-149 -299l-127 57l121 242h-157v189h249l77 153h-326z" />
    <glyph glyph-name="ntilde.sc" horiz-adv-x="1165" 
d="M800 0l-438 703v-703h-223v1036h227l437 -703v703h223v-1036h-226zM455 1406q43 0 119 -29t111 -29q56 0 113 66l104 -80q-12 -28 -39.5 -67t-75 -70t-105.5 -31q-43 0 -118.5 29t-111.5 29q-56 0 -113 -66l-104 80q12 28 39 67t74.5 70t106.5 31z" />
    <glyph glyph-name="numbersign.tnum" 
d="M809 1354h192l-49 -354h211l-24 -177h-211l-40 -298h210l-23 -175h-212l-47 -350h-195l48 350h-219l-48 -350h-192l47 350h-220l23 175h221l40 298h-215l23 177h216l49 354h193l-48 -354h220zM514 823l-39 -298h218l42 298h-221z" />
    <glyph glyph-name="numbersign.aalt" horiz-adv-x="1401" 
d="M474 1213h196l-44 -317h235l45 317h195l-44 -317h205l-26 -177h-203l-32 -229h201l-25 -177h-200l-43 -313h-198l43 313h-233l-43 -313h-198l44 313h-210l24 177h210l32 229h-207l25 177h207zM602 719l-32 -229h234l32 229h-234z" />
    <glyph glyph-name="numbersign.aalt.tnum" 
d="M386 1213h192l-44 -317h219l44 317h192l-44 -317h185l-25 -177h-184l-32 -229h181l-25 -177h-180l-43 -313h-195l44 313h-217l-43 -313h-194l43 313h-189l24 177h190l32 229h-187l25 177h186zM510 719l-32 -229h217l33 229h-218z" />
    <glyph glyph-name="o.sc" horiz-adv-x="1081" 
d="M96 345v346q0 109 50.5 188.5t149 128t244.5 48.5t245 -48.5t149.5 -128t50.5 -188.5v-346q0 -65 -22 -130t-75.5 -117t-140 -85t-207.5 -33q-95 0 -177 23.5t-141.5 69.5t-92.5 115.5t-33 156.5zM324 690v-328q0 -90 56 -144t160 -54t160.5 54t56.5 144v312
q0 89 -56.5 143t-160.5 54q-103 0 -159.5 -48.5t-56.5 -132.5z" />
    <glyph glyph-name="oacute.sc" horiz-adv-x="1081" 
d="M96 345v241l4 132q7 161 129 249.5t311 88.5q146 0 245 -48.5t149.5 -128t50.5 -188.5v-241l-4 -132q-7 -162 -129 -250t-312 -88q-95 0 -177 23.5t-141.5 69.5t-92.5 115.5t-33 156.5zM324 690v-312q0 -96 54.5 -155t161.5 -59q106 0 161.5 56.5t55.5 149.5v288
q0 94 -55.5 153.5t-161.5 59.5q-103 0 -159.5 -48.5t-56.5 -132.5zM488 1112l-128 71l244 315l185 -110z" />
    <glyph glyph-name="obreve.sc" horiz-adv-x="1081" 
d="M96 345v346q0 109 50.5 188.5t149 128t244.5 48.5t245 -48.5t149.5 -128t50.5 -188.5v-346q0 -65 -22 -130t-75.5 -117t-140 -85t-207.5 -33q-95 0 -177 23.5t-141.5 69.5t-92.5 115.5t-33 156.5zM324 690v-328q0 -90 56 -144t160 -54t160.5 54t56.5 144v312
q0 89 -56.5 143t-160.5 54q-103 0 -159.5 -48.5t-56.5 -132.5zM248 1435h182q2 -54 29 -87.5t81 -33.5t81 33.5t29 87.5h182q0 -132 -79 -209t-213 -77t-213 77t-79 209z" />
    <glyph glyph-name="ocircumflex.sc" horiz-adv-x="1081" 
d="M96 345v241l4 132q7 161 129 249.5t311 88.5q146 0 245 -48.5t149.5 -128t50.5 -188.5v-241l-4 -132q-7 -162 -129 -250t-312 -88q-95 0 -177 23.5t-141.5 69.5t-92.5 115.5t-33 156.5zM324 690v-312q0 -96 54.5 -155t161.5 -59q106 0 161.5 56.5t55.5 149.5v288
q0 94 -55.5 153.5t-161.5 59.5q-103 0 -159.5 -48.5t-56.5 -132.5zM237 1150l201 316h204l201 -316l-195 -17l-108 186l-108 -186z" />
    <glyph glyph-name="odieresis.sc" horiz-adv-x="1081" 
d="M96 345v241l4 132q7 161 129 249.5t311 88.5q146 0 245 -48.5t149.5 -128t50.5 -188.5v-241l-4 -132q-7 -162 -129 -250t-312 -88q-95 0 -177 23.5t-141.5 69.5t-92.5 115.5t-33 156.5zM324 690v-312q0 -96 54.5 -155t161.5 -59q106 0 161.5 56.5t55.5 149.5v288
q0 94 -55.5 153.5t-161.5 59.5q-103 0 -159.5 -48.5t-56.5 -132.5zM218 1290q0 58 33.5 89.5t93.5 31.5q59 0 92.5 -31.5t33.5 -89.5q0 -57 -33.5 -89t-92.5 -32t-93 32t-34 89zM609 1290q0 58 33.5 89.5t92.5 31.5q60 0 93.5 -31.5t33.5 -89.5q0 -57 -33.5 -89t-93.5 -32
q-59 0 -92.5 32t-33.5 89z" />
    <glyph glyph-name="uni1ECD.sc" horiz-adv-x="1081" 
d="M96 345v241l4 132q7 161 129 249.5t311 88.5q146 0 245 -48.5t149.5 -128t50.5 -188.5v-241l-4 -132q-7 -162 -129 -250t-312 -88q-95 0 -177 23.5t-141.5 69.5t-92.5 115.5t-33 156.5zM324 690v-312q0 -96 54.5 -155t161.5 -59q106 0 161.5 56.5t55.5 149.5v288
q0 94 -55.5 153.5t-161.5 59.5q-103 0 -159.5 -48.5t-56.5 -132.5zM412 -288q0 60 33.5 92t94.5 32q62 0 95 -32t33 -92t-33.5 -92.5t-94.5 -32.5t-94.5 32.5t-33.5 92.5z" />
    <glyph glyph-name="oe.sc" horiz-adv-x="1461" 
d="M720 0v41q-91 -61 -213 -61q-82 0 -156 22t-130 66t-88.5 109.5t-34.5 147.5l-2 125v136l2 125q3 102 52 177.5t139.5 121.5t217.5 46q123 0 213 -62v42h667v-180h-459v-250h442v-170h-442v-256h477v-180h-685zM524 164q103 0 176 56v596q-76 56 -176 56
q-89 0 -144.5 -44.5t-55.5 -144.5v-314q0 -92 51.5 -148.5t148.5 -56.5z" />
    <glyph glyph-name="ograve.sc" horiz-adv-x="1081" 
d="M96 345v241l4 132q7 161 129 249.5t311 88.5q146 0 245 -48.5t149.5 -128t50.5 -188.5v-241l-4 -132q-7 -162 -129 -250t-312 -88q-95 0 -177 23.5t-141.5 69.5t-92.5 115.5t-33 156.5zM324 690v-312q0 -96 54.5 -155t161.5 -59q106 0 161.5 56.5t55.5 149.5v288
q0 94 -55.5 153.5t-161.5 59.5q-103 0 -159.5 -48.5t-56.5 -132.5zM692 1183l-126 -71l-302 276l185 110z" />
    <glyph glyph-name="ohungarumlaut.sc" horiz-adv-x="1081" 
d="M96 345v241l4 132q7 161 129 249.5t311 88.5q146 0 245 -48.5t149.5 -128t50.5 -188.5v-241l-4 -132q-7 -162 -129 -250t-312 -88q-95 0 -177 23.5t-141.5 69.5t-92.5 115.5t-33 156.5zM324 690v-312q0 -96 54.5 -155t161.5 -59q106 0 161.5 56.5t55.5 149.5v288
q0 94 -55.5 153.5t-161.5 59.5q-103 0 -159.5 -48.5t-56.5 -132.5zM415 1121l-141 34l116 367l202 -58zM737 1121l-141 38l146 359l206 -65z" />
    <glyph glyph-name="omacron.sc" horiz-adv-x="1081" 
d="M96 345v241l4 132q7 161 129 249.5t311 88.5q146 0 245 -48.5t149.5 -128t50.5 -188.5v-241l-4 -132q-7 -162 -129 -250t-312 -88q-95 0 -177 23.5t-141.5 69.5t-92.5 115.5t-33 156.5zM324 690v-312q0 -96 54.5 -155t161.5 -59q106 0 161.5 56.5t55.5 149.5v288
q0 94 -55.5 153.5t-161.5 59.5q-103 0 -159.5 -48.5t-56.5 -132.5zM251 1195v177h579v-177h-579z" />
    <glyph glyph-name="one.tnum" 
d="M1059 201v-201h-855v201h331v920l-338 -102l-25 194l419 141h174v-1153h294z" />
    <glyph glyph-name="uniF731.tnum" 
d="M1059 201v-201h-855v201h331v762l-338 -102l-25 193l419 142h174v-995h294z" />
    <glyph glyph-name="onehalf.aalt" horiz-adv-x="1029" 
d="M773 950v-159h-532v159h179v360l-181 -38l-12 151l237 71h147v-544h162zM799 -141v-160h-551v150q180 114 226.5 151.5t71.5 73t25 71.5q0 49 -37.5 73.5t-98.5 24.5q-63 0 -163 -20l-20 162q108 27 215 27q96 0 164.5 -31.5t105.5 -88.5t37 -140q0 -155 -249 -293h274z
M63 669h836v-143h-836v143z" />
    <glyph glyph-name="onequarter.aalt" horiz-adv-x="1029" 
d="M206 -168v138l299 432v2h181v-426h108v-146h-108v-131h-185v131h-295zM790 950v-159h-532v159h179v360l-181 -38l-12 151l236 71h148v-544h162zM63 669h836v-143h-836v143zM391 -27h121v179z" />
    <glyph glyph-name="uni00B9.aalt" horiz-adv-x="603" 
d="M584 652v-159h-532v159h179v360l-181 -38l-12 151l236 71h148v-544h162z" />
    <glyph glyph-name="uni01EB.sc" horiz-adv-x="1081" 
d="M96 345v346q0 109 50.5 188.5t149 128t244.5 48.5t245 -48.5t149.5 -128t50.5 -188.5v-346q0 -135 -75 -223.5t-205 -121.5q-177 -117 -177 -226q0 -38 24 -59t66 -21q57 0 97 14l17 -155q-61 -21 -138 -21q-110 0 -178 47.5t-68 144.5q0 62 43 128t131 128
q-92 2 -170.5 26.5t-135.5 70.5t-88.5 114.5t-31.5 153.5zM324 690v-328q0 -90 56 -144t160 -54t160.5 54t56.5 144v312q0 89 -56.5 143t-160.5 54q-103 0 -159.5 -48.5t-56.5 -132.5z" />
    <glyph glyph-name="ordfeminine.aalt" horiz-adv-x="757" 
d="M53 693q0 52 23 96.5t81 77.5t152 33h136v43q0 51 -28 79t-96 28q-97 0 -213 -34l-22 155q43 15 114 28.5t142 13.5q156 0 223 -61.5t67 -204.5v-252q0 -47 43 -47q30 0 51 6l3 -145q-47 -20 -108 -20q-44 0 -83 20.5t-60 54.5q-36 -31 -89.5 -53t-111.5 -22
q-98 0 -161 51.5t-63 152.5zM318 634q59 0 127 41v100h-117q-92 0 -92 -73q0 -34 23 -51t59 -17z" />
    <glyph glyph-name="ordmasculine.aalt" horiz-adv-x="808" 
d="M72 773v157q0 84 40 146t115 99.5t176 37.5q102 0 177 -36.5t115.5 -96.5t40.5 -141v-157q0 -87 -40.5 -151t-115.5 -102.5t-177 -38.5q-101 0 -176 37.5t-115 99.5t-40 146zM258 919v-134q0 -61 40 -96.5t105 -35.5q66 0 106.5 37.5t40.5 102.5v134q0 58 -40.5 91
t-106.5 33q-65 0 -105 -35.5t-40 -96.5z" />
    <glyph glyph-name="glyph557" horiz-adv-x="1632" 
d="M803 1338l142 -142l-429 -420l974 1v-202l-972 1l427 -418l-142 -142l-662 661z" />
    <glyph glyph-name="glyph558" horiz-adv-x="1632" 
d="M687 1016l142 142l661 -661l-661 -661l-142 142l427 418l-973 -1v202l975 -1z" />
    <glyph glyph-name="glyph559" horiz-adv-x="1606" 
d="M906 -190h-205l3 1004l-420 -426l-143 143l662 653l661 -653l-143 -143l-419 424z" />
    <glyph glyph-name="glyph560" horiz-adv-x="1606" 
d="M1321 606l143 -143l-661 -653l-662 653l143 143l419 -424l-4 1002h206l-4 -1004z" />
    <glyph glyph-name="glyph561" horiz-adv-x="1383" 
d="M141 996h202l-6 -660l762 764l142 -143l-762 -761l658 6v-202h-996v996z" />
    <glyph glyph-name="glyph562" horiz-adv-x="1383" 
d="M141 957l143 143l762 -764l-7 660h202v-996h-996v202l659 -6z" />
    <glyph glyph-name="glyph563" horiz-adv-x="1383" 
d="M343 0h-202v996h996v-202l-658 6l762 -761l-142 -143l-762 764z" />
    <glyph glyph-name="glyph564" horiz-adv-x="1383" 
d="M284 -104l-143 143l763 761l-659 -6v202h996v-996h-202l7 659z" />
    <glyph glyph-name="glyph565" horiz-adv-x="1632" 
d="M687 1196l142 142l661 -661l-661 -661l-142 142l427 418l-973 -1v202l975 -1z" />
    <glyph glyph-name="glyph566" horiz-adv-x="1606" 
d="M905 0h-206l4 1002l-419 -424l-143 143l662 653l661 -653l-143 -143l-420 426z" />
    <glyph glyph-name="glyph567" horiz-adv-x="1606" 
d="M1321 780l143 -144l-661 -653l-662 653l143 144l419 -425l-4 1002h206l-4 -1003z" />
    <glyph glyph-name="glyph568" horiz-adv-x="1383" 
d="M141 996h202l-6 -660l762 764l142 -143l-762 -761l658 6v-202h-996v996z" />
    <glyph glyph-name="glyph569" horiz-adv-x="1383" 
d="M141 957l143 143l762 -764l-7 660h202v-996h-996v202l659 -6z" />
    <glyph glyph-name="glyph570" horiz-adv-x="1383" 
d="M343 358h-202v996h996v-202l-658 6l762 -761l-142 -143l-762 763z" />
    <glyph glyph-name="glyph571" horiz-adv-x="1383" 
d="M284 254l-143 143l763 761l-659 -6v202h996v-996h-202l7 659z" />
    <glyph glyph-name="glyph572" horiz-adv-x="1632" 
d="M945 -22l-142 -142l-662 661l662 661l142 -142l-427 -419l972 2v-202l-974 1z" />
    <glyph glyph-name="oslash.sc" horiz-adv-x="1081" 
d="M145 -238l121 282q-162 92 -168 282l-2 98v188l2 96q3 104 54 180t149 122t239 46q76 0 144 -17l101 235h152l-121 -283q161 -92 167 -281l2 -98v-188l-2 -96q-3 -104 -54.5 -180t-149 -122t-239.5 -46q-79 0 -144 16l-99 -234h-152zM324 690v-312q0 -96 54.5 -155
t161.5 -59q106 0 161.5 56.5t55.5 149.5v288q0 94 -55.5 153.5t-161.5 59.5q-103 0 -159.5 -48.5t-56.5 -132.5z" />
    <glyph glyph-name="oslashacute.sc" horiz-adv-x="1081" 
d="M497 1116l-129 70l237 316l184 -111zM143 -238l121 283q-160 91 -166 281l-2 98v188l2 96q3 104 54 180t149 122t239 46q71 0 143 -16l102 234h151l-122 -282q163 -91 169 -282l2 -98v-188l-2 -96q-3 -104 -54.5 -180t-149 -122t-239.5 -46q-79 0 -146 16l-99 -234h-152z
M324 690v-312q0 -96 54.5 -155t161.5 -59q106 0 161.5 56.5t55.5 149.5v288q0 94 -55.5 153.5t-161.5 59.5q-103 0 -159.5 -48.5t-56.5 -132.5z" />
    <glyph glyph-name="otilde.sc" horiz-adv-x="1081" 
d="M96 345v241l4 132q7 161 129 249.5t311 88.5q146 0 245 -48.5t149.5 -128t50.5 -188.5v-241l-4 -132q-7 -162 -129 -250t-312 -88q-95 0 -177 23.5t-141.5 69.5t-92.5 115.5t-33 156.5zM324 690v-312q0 -96 54.5 -155t161.5 -59q106 0 161.5 56.5t55.5 149.5v288
q0 94 -55.5 153.5t-161.5 59.5q-103 0 -159.5 -48.5t-56.5 -132.5zM427 1406q43 0 119 -29t111 -29q56 0 113 66l104 -80q-12 -28 -39.5 -67t-75 -70t-105.5 -31q-43 0 -118.5 29t-111.5 29q-56 0 -113 -66l-104 80q12 28 39 67t74.5 70t106.5 31z" />
    </font>
</defs>
</svg>
